<svg width="95" height="48" viewBox="0 0 95 48" fill="none" xmlns="http://www.w3.org/2000/svg">
<g clip-path="url(#clip0_597_538)">
<path d="M38.4775 15.093C42.3358 15.093 45.4636 11.958 45.4636 8.09071C45.4636 4.22346 42.3358 1.08844 38.4775 1.08844C34.6192 1.08844 31.4915 4.22346 31.4915 8.09071C31.4915 11.958 34.6192 15.093 38.4775 15.093Z" fill="#E52621"/>
<path d="M39.4186 33.9229C39.0928 35.0839 38.767 36.2812 38.4413 37.4422C37.8983 39.4739 37.3553 41.4694 36.8124 43.5011C36.7762 43.5737 36.7762 43.6463 36.7762 43.7551C36.74 43.8277 36.8124 43.9365 36.7038 43.9728C36.378 45.2063 36.016 46.4399 35.7265 47.6735C35.6903 47.7097 35.6541 47.746 35.6179 47.7823C35.4731 47.9637 35.2559 47.8911 35.0387 47.8911C30.7675 47.8911 26.4962 47.8911 22.2249 47.8911C22.0439 47.8911 21.8629 47.8912 21.682 47.9274C21.5372 47.9274 21.4286 47.9637 21.2838 47.8549C21.2476 47.8186 21.2476 47.7823 21.2476 47.7097C21.2838 47.5283 21.32 47.3832 21.3562 47.2018C21.4648 46.7664 21.6096 46.3673 21.682 45.932C22.1163 44.4444 22.4783 42.9569 22.8765 41.4694C22.9489 41.288 22.9851 41.1429 23.0212 40.9614C23.0212 40.9252 23.0574 40.8889 23.0574 40.8526C23.166 40.3447 23.347 39.8367 23.4556 39.3288C23.4556 39.2925 23.4556 39.2562 23.4918 39.2199C23.6366 38.8934 23.6366 38.5306 23.7814 38.2041C23.3832 38.3492 22.9851 38.5669 22.5869 38.7846C22.5145 38.8209 22.4783 38.8571 22.4059 38.8571C22.2611 38.9297 22.1525 38.966 22.0439 39.0385C22.0077 39.0385 21.9715 39.0748 21.9715 39.0748C21.7905 39.1474 21.6458 39.2562 21.501 39.3651C20.9218 39.6916 20.3789 40.0907 19.7997 40.4535C19.7635 40.4898 19.7635 40.4898 19.7273 40.5261C19.4739 40.6712 19.2205 40.8526 19.0034 41.034H18.9672H18.931C18.4242 41.5057 17.845 41.941 17.3383 42.4127C17.1573 42.5578 16.9763 42.7392 16.8315 42.8843C16.7953 42.9206 16.7953 42.9206 16.7591 42.9569C16.1438 43.5374 15.6008 44.2267 15.0941 44.8798C14.8769 45.1338 14.7321 45.424 14.5149 45.6417C14.4063 45.8957 14.2253 46.0771 14.1167 46.2948C13.8996 46.6576 13.7186 47.0567 13.3204 47.2744C13.1394 47.4195 12.9584 47.5283 12.705 47.4921C12.2345 47.5283 11.7639 47.4921 11.2934 47.5646C11.1124 47.6009 10.9676 47.5283 10.7866 47.5283C9.26631 47.5283 7.74603 47.4921 6.26194 47.5283C4.37969 47.6009 2.49743 47.5646 0.615177 47.6009C0.0360212 47.6009 -0.0363732 47.4921 0.0722184 46.9116C0.144613 46.6576 0.144613 46.4036 0.108416 46.1497C0.108416 45.678 0.361796 45.2789 0.434191 44.8073C0.434191 44.771 0.43419 44.7347 0.470388 44.6984C0.940951 43.1746 1.37532 41.6508 1.80968 40.127C1.88208 39.9456 1.95447 39.8004 2.02687 39.619C2.02687 39.2925 2.13546 39.0023 2.24405 38.6757C2.31645 38.3492 2.42504 38.059 2.53363 37.7324C2.71461 37.4059 2.67842 37.0431 2.82321 36.6803C2.8594 36.5351 2.9318 36.39 2.96799 36.2086C3.07659 35.8095 3.18518 35.4104 3.32997 35.0113C3.61954 34.0317 3.90912 33.0884 4.1625 32.1088C4.52448 30.9478 4.85025 29.7506 5.21222 28.5896C5.57419 27.3197 5.97236 26.0862 6.29814 24.8163C6.40673 24.6712 6.44293 24.4898 6.44293 24.3084C6.44293 24.1633 6.51532 24.0181 6.58772 23.9093C6.58772 23.9093 6.62391 23.873 6.58772 23.873C6.8049 23.1111 7.05828 22.3855 7.23927 21.6236C7.38406 21.0068 7.20307 20.4263 6.87729 19.9184C6.62391 19.483 6.29814 19.1202 5.97236 18.7574C5.79138 18.4671 5.538 18.2494 5.35701 17.9592C5.28462 17.8503 5.17602 17.7778 5.21222 17.6326C5.24842 17.5964 5.28462 17.5601 5.32081 17.5601C5.42941 17.5238 5.538 17.5238 5.64659 17.5238C8.39758 17.415 11.1486 17.4875 13.8996 17.4512C15.0217 17.4512 16.1438 17.3787 17.3021 17.415C17.4831 17.4875 17.6641 17.4875 17.845 17.4875C18.8224 17.4512 19.7997 17.5238 20.777 17.5964C20.8132 17.5964 20.8132 17.6326 20.8494 17.5964C20.8132 17.5964 20.777 17.5601 20.7408 17.4875C20.777 17.415 20.8494 17.3787 20.9218 17.3787C21.3562 17.3424 21.7905 17.3424 22.2249 17.3787C22.2973 17.3787 22.3335 17.415 22.3697 17.4875C22.5145 17.5964 22.4421 17.7415 22.4059 17.8503C22.1887 18.6485 21.9715 19.4467 21.7543 20.2449C21.4286 21.3696 21.139 22.4943 20.8494 23.5828C20.8494 23.619 20.8494 23.6553 20.8132 23.6916C20.777 23.8005 20.7408 23.9093 20.7408 23.9819C20.7408 24.0181 20.7408 24.0544 20.7046 24.0907C20.4151 25.2154 20.0893 26.3039 19.8359 27.3923C19.6187 28.1905 19.4015 28.9887 19.1843 29.7868C19.0396 30.1497 18.9672 30.585 18.8586 30.9478C18.7862 31.1292 18.7138 31.2744 18.5328 31.3832C17.9174 31.7097 17.3745 32.1088 16.8315 32.5442C16.6505 32.6893 16.4334 32.8345 16.2524 32.9796C16.18 33.0159 16.1438 33.0884 16.0714 33.1247C15.8904 33.2698 15.6732 33.415 15.4922 33.5601C15.456 33.5964 15.456 33.5964 15.4198 33.6326C15.3112 33.6689 15.2388 33.7415 15.1665 33.8141C15.0941 33.8866 15.0217 33.9229 14.9493 33.9955C14.5511 34.3583 14.1167 34.6485 13.7186 35.0113C13.6824 35.0476 13.6462 35.0839 13.61 35.1202C13.2842 35.3741 12.9946 35.6281 12.705 35.8821C12.5241 36.0272 12.3431 36.136 12.1983 36.3537C12.4155 36.2449 12.5965 36.0998 12.8136 35.9909C13.3566 35.6644 13.8996 35.3379 14.4425 35.0113C15.5284 34.3583 16.6867 33.8141 17.8089 33.2336C18.75 32.7619 19.7635 32.3265 20.7408 31.8912C20.8132 31.8549 20.8494 31.8549 20.9218 31.8186C20.958 31.8186 20.9942 31.7823 20.9942 31.7823C21.139 31.7097 21.2838 31.6735 21.4286 31.6009C21.4648 31.6009 21.501 31.5646 21.501 31.5646C21.8991 31.4195 22.2611 31.2744 22.6231 31.093C22.6593 31.093 22.6955 31.0567 22.7317 31.0567C23.0212 30.9478 23.3108 30.839 23.6004 30.7302C24.1796 30.4762 24.7587 30.2585 25.3741 30.0771C25.4465 30.0408 25.5189 30.0408 25.5551 30.0045C25.6274 29.9682 25.736 29.932 25.8084 29.932C26.6772 29.678 27.5459 29.3878 28.4146 29.0975C29.2472 28.8435 30.0797 28.6621 30.9122 28.3356C31.0932 28.263 31.3466 28.2993 31.5276 28.2268C32.0706 28.1179 32.6135 27.9728 33.1203 27.7914C33.3013 27.61 33.5546 27.7551 33.7356 27.6463C34.0252 27.5374 34.3148 27.4648 34.6044 27.4286C34.8215 27.4286 35.0387 27.356 35.2197 27.2834C35.7627 26.9932 36.3418 26.9932 36.921 26.8481C37.102 26.8118 37.3191 26.8118 37.5001 26.7755C37.8259 26.5941 38.1517 26.5941 38.5137 26.5578C38.5499 26.5578 38.5499 26.5578 38.5499 26.5578C38.767 26.3764 39.0204 26.5215 39.2738 26.4127C39.672 26.3764 40.0339 26.3039 40.3959 26.195C40.5045 26.1224 40.6493 26.195 40.7579 26.1224C41.337 25.8685 41.9524 25.8685 42.5315 25.7596C43.0745 25.6871 43.6537 25.5782 44.1966 25.5057C45.1739 25.3605 46.1875 25.2154 47.1648 25.1429C48.4679 25.0703 49.7348 24.8526 51.0379 24.78C51.617 24.7438 52.2324 24.7438 52.8477 24.6712C53.0287 24.6349 53.2097 24.6349 53.3545 24.7438C53.4269 24.7438 53.2821 24.8526 53.3907 24.8526C54.0061 24.78 54.6214 24.7438 55.273 24.7438C56.9018 24.7075 58.5307 24.7075 60.1596 24.7438C60.6301 24.7438 61.1369 24.7438 61.6437 24.8526C61.897 24.9252 62.1504 24.8163 62.3676 24.7438C62.8382 24.7075 63.2725 24.8163 63.7431 24.8163C63.9603 24.8163 64.1775 24.8526 64.3947 24.8526C64.467 24.8526 64.5033 24.8526 64.5756 24.8889C65.4082 24.9977 66.2407 25.1066 67.0732 25.1429C67.1095 25.1429 67.1456 25.1429 67.1818 25.1791C67.5076 25.2517 67.8334 25.2517 68.1592 25.3243C69.6071 25.5419 71.0549 25.7959 72.5028 26.0862C74.0955 26.4127 75.652 26.7755 77.2085 27.2472C77.498 27.356 77.86 27.3197 78.1134 27.61C77.9686 27.8277 77.7876 27.7188 77.6066 27.7188C77.3533 27.7551 77.0637 27.7188 76.8103 27.6825C76.4121 27.61 75.9778 27.6825 75.5796 27.61C75.4348 27.61 75.3262 27.61 75.1814 27.5737C74.7833 27.5374 74.3489 27.5374 73.9507 27.4648C73.1182 27.4286 72.3218 27.2472 71.4893 27.2834C71.4531 27.2834 71.4169 27.2472 71.3807 27.2109C71.3445 27.1746 71.4169 27.1383 71.3807 27.1383C70.4396 26.9932 69.4623 26.9932 68.4849 26.9932C67.6162 26.9569 66.7475 26.8118 65.8787 26.9932C65.7701 27.0295 65.6254 27.0295 65.4806 26.9569C64.9014 26.7392 64.3223 26.8118 63.7431 27.0295C63.3811 27.102 63.0192 27.0295 62.6572 27.0658C62.5486 27.0658 62.44 27.0658 62.3314 27.0658C61.0283 27.0295 59.7252 27.102 58.4583 27.1383C56.2865 27.2472 54.0784 27.4286 51.9066 27.7188C50.6397 27.9002 49.3728 28.1179 48.1059 28.3356C47.8525 28.3719 47.6353 28.3719 47.4182 28.4444C46.8752 28.6621 46.2237 28.5896 45.6807 28.8798C45.5359 28.9524 45.3911 28.9524 45.2463 28.9524C44.812 29.0249 44.45 29.2426 43.9794 29.2789C43.6537 29.3515 43.3279 29.424 43.0021 29.5692C42.2782 29.932 41.518 30.1134 40.7941 30.4036C40.4321 30.5487 40.2149 30.7664 40.1425 31.1292C40.1425 31.2381 40.1063 31.3107 40.0701 31.4195C39.8891 31.746 39.853 32.1088 39.7806 32.4717C39.6358 33.0884 39.6358 33.5238 39.4186 33.9229Z" fill="#0056A6"/>
<path d="M35.1475 25.4694C33.9529 25.6508 32.7946 26.0136 31.6001 26.3038C31.4191 26.3401 31.2744 26.4127 31.0934 26.449C30.84 26.7029 30.478 26.6304 30.1884 26.7392C29.6093 26.9569 28.9939 27.1746 28.4148 27.3197C28.3062 27.356 28.2338 27.3197 28.1252 27.356C27.9804 27.5011 27.7994 27.5737 27.6184 27.61C27.5098 27.6462 27.4012 27.7188 27.2927 27.6462C27.1479 27.5374 27.2565 27.3923 27.2927 27.2834C27.4736 26.6667 27.6908 26.0136 27.8718 25.3968C27.908 25.3243 27.908 25.2517 27.9442 25.1791C28.1614 24.4535 28.3786 23.7279 28.5958 23.0023C28.8129 22.3855 28.9215 21.7687 29.1749 21.1882C29.2473 21.0431 29.3197 20.8617 29.3197 20.6803C29.3559 20.6077 29.3559 20.5351 29.3921 20.4263C29.3921 20.39 29.3921 20.3537 29.4283 20.3174C29.5007 20.0998 29.5731 19.9184 29.6093 19.7007C29.6455 19.5918 29.6817 19.483 29.6817 19.4104C29.7903 19.1565 29.8265 18.9025 29.8989 18.6485C30.116 17.7052 30.116 17.7415 31.0572 17.7052C35.1475 17.5601 39.2015 17.6689 43.2918 17.6326C43.509 17.6326 43.7624 17.5964 43.9434 17.7415C44.0158 17.9592 43.9072 18.1769 43.8348 18.3945C43.4728 19.5555 43.147 20.6803 42.7851 21.8413C42.5679 22.5306 42.3869 23.2199 42.1697 23.9093C42.1335 23.9818 42.1335 24.0544 42.0611 24.127C41.4458 24.3447 40.7942 24.4172 40.1789 24.4898C39.5273 24.5986 38.8396 24.7438 38.188 24.8526C37.8622 24.9252 37.5365 24.9252 37.2107 24.9977C36.8487 25.034 36.5229 25.1066 36.161 25.2154C35.8352 25.3968 35.5094 25.5057 35.1475 25.4694Z" fill="#0056A6"/>
<path d="M62.3677 27.1383C62.2953 27.6463 62.1143 28.1179 61.9695 28.5896C61.5352 30.1497 61.1008 31.7098 60.6664 33.2699C60.3768 34.2495 60.0873 35.229 59.8339 36.1724C59.7615 36.4989 59.6167 36.7891 59.5805 37.1157C59.6167 37.4059 59.4357 37.6962 59.3633 37.9501C59.0013 39.2563 58.6394 40.5624 58.2412 41.8322C57.9878 42.4127 57.8792 43.0295 57.6982 43.6463C57.3725 44.771 57.0829 45.8957 56.7209 47.0204C56.5399 47.5646 56.3228 47.7098 55.6712 47.7098C53.9337 47.7098 52.1963 47.7461 50.4588 47.7098C48.1784 47.6372 45.8618 47.6735 43.5813 47.6735C43.4004 47.6735 43.2194 47.6735 43.0384 47.6009C42.8212 47.2381 43.0384 46.9479 43.1108 46.6213C43.2918 45.8957 43.5089 45.1338 43.6899 44.4082C43.7261 44.2268 43.7985 44.0817 43.8709 43.9365C43.9433 43.864 43.9433 43.7914 43.9433 43.7188C44.1243 43.0658 44.3053 42.3764 44.4863 41.7234C44.7035 40.9252 44.9206 40.1633 45.1378 39.4014C45.3188 38.6032 45.6084 37.805 45.7894 36.9705C45.7894 36.898 45.7894 36.8254 45.7894 36.7891C45.9704 36.5352 45.9704 36.2086 46.0427 35.9184C46.3323 34.8662 46.5857 33.8504 46.8753 32.7982C47.0563 32.1451 47.3096 31.4921 47.4182 30.839C47.4544 30.6939 47.4906 30.5488 47.563 30.4037C47.7078 30.4037 47.7802 30.2948 47.7802 30.1497C47.7802 29.8594 47.8888 29.6055 47.8526 29.3152C47.8888 29.025 48.0336 28.7347 48.0336 28.4445C48.8299 28.2268 49.6987 28.1179 50.5312 27.9728C51.8343 27.7914 53.1736 27.61 54.4767 27.4649C55.5988 27.356 56.7209 27.2835 57.843 27.2109C59.2185 27.1383 60.594 27.0658 61.9695 27.0658C62.1143 27.1021 62.2591 27.1021 62.3677 27.1383Z" fill="#7FCBD9"/>
<path d="M85.5705 42.9932C85.5705 43.3923 85.3171 43.7188 85.3171 44.0816C85.2809 44.1179 85.2447 44.1905 85.1723 44.2267L85.1361 44.1905C85.1361 44.2267 85.1723 44.2267 85.1723 44.2267C85.0637 44.8072 84.8465 45.3515 84.6655 45.8957C84.5931 46.0771 84.5207 46.2585 84.4846 46.4762C84.3398 47.0204 84.2674 47.0567 83.7244 47.0567C82.7833 47.0567 81.8422 47.0567 80.901 47.0567C80.7562 47.0567 80.5753 47.0567 80.5029 46.9116C80.5029 46.8753 80.5753 46.9116 80.5753 46.839C80.5391 46.8753 80.5391 46.8753 80.5029 46.9116C80.4305 46.6213 80.6114 46.3311 80.6838 46.0771C81.2268 44.3719 81.7698 42.6667 82.3489 40.9252C82.6747 39.9456 82.9643 39.0023 83.29 38.0227C83.3262 37.9138 83.3624 37.7687 83.3624 37.6599C83.4348 37.3696 83.5072 37.0794 83.652 36.8254C84.1226 35.3741 84.5931 33.9592 85.0637 32.5079C85.3171 31.7097 85.2809 31.6735 86.1134 31.7097C86.9822 31.746 87.8147 31.8549 88.6834 31.8549C89.0454 31.8549 89.0816 31.9274 88.9368 32.2902C88.9368 32.3265 88.9006 32.3628 88.9006 32.3991C88.8644 32.5805 88.611 32.8345 88.7558 32.9433C88.9368 33.0884 89.1178 32.7982 89.335 32.7256C89.8779 32.5805 90.3123 32.2902 90.8191 32.1088C92.0498 31.6372 93.3529 31.3832 94.6922 31.3832C94.9817 31.3832 95.0541 31.4558 94.9455 31.746C94.7284 32.5442 94.5474 33.3424 94.3302 34.1406C94.2578 34.3583 94.1492 34.3945 93.9682 34.3945C93.0995 34.322 92.267 34.4671 91.4344 34.7211C91.3258 34.7574 91.2172 34.7936 91.1086 34.8662C90.4571 35.1202 89.8417 35.4104 89.335 35.9184C88.5748 36.4263 88.0681 37.1882 87.5975 37.9501C86.8736 39.1474 86.5116 40.4535 86.0772 41.7959C85.8962 42.195 85.7515 42.5941 85.5705 42.9932Z" fill="#7FCBD9"/>
<path d="M63.4899 22.4218C63.3451 22.6032 63.2727 22.8209 63.2365 23.0749C63.2003 23.2925 63.1279 23.2925 62.9469 23.2925C61.6439 23.3288 60.3408 23.3288 59.0739 23.3651C56.7934 23.4377 54.4768 23.474 52.1964 23.5102C51.581 23.5102 51.0019 23.5465 50.3865 23.5465C49.9884 23.5465 49.9884 23.5465 50.1693 23.1837C50.4951 22.4944 50.7485 21.7687 50.7847 20.9705C50.7847 20.5352 50.6399 20.1724 50.3503 19.8458C50.0607 19.5556 49.8074 19.2653 49.5178 18.9751C49.192 18.6486 48.9748 18.2495 49.0834 17.7778C49.192 17.669 49.3368 17.7052 49.4816 17.7052C52.8117 17.7052 56.1781 17.669 59.5082 17.7052C67.182 17.8141 74.8196 17.7052 82.4934 17.7415C82.964 17.7415 82.964 17.7415 82.964 18.2132C82.964 18.6486 82.8554 19.0114 82.6382 19.3742C82.2039 20.0998 81.5161 20.3901 80.756 20.5715C80.032 20.7529 79.2719 20.7891 78.5118 20.7891C74.9282 20.7891 71.3447 20.7891 67.7974 20.7891C67.2906 20.7891 66.7839 20.6803 66.2771 20.7166C65.8789 20.7529 65.4446 20.7891 65.0826 20.9343C64.974 21.0431 64.7568 21.0068 64.6482 21.152C64.0691 21.5148 63.6709 21.8413 63.4899 22.4218Z" fill="#7FCBD9"/>
<path d="M72.6478 43.3923C72.8649 42.8118 73.1545 42.2676 73.2631 41.6871C73.2993 41.5782 73.2993 41.4331 73.4079 41.3243C73.5165 41.0703 73.6251 40.8163 73.6975 40.5624C73.9147 39.9093 73.5165 39.5102 72.8287 39.5465C71.6704 39.619 70.5483 39.9456 69.4262 40.2358C69.1366 40.3084 68.8471 40.4172 68.5937 40.5261C67.8697 40.8163 67.1096 41.034 66.458 41.5057C66.0599 41.6508 65.7341 41.9048 65.4807 42.2313C65.0463 42.5578 64.8292 43.1383 64.974 43.6463C65.0102 43.7551 65.0102 43.8639 65.0463 43.9365C64.974 44.0453 65.0102 44.1179 65.1911 44.1542C65.4083 44.2268 65.4807 44.4444 65.6617 44.5896C66.1323 45.0249 66.6752 45.1701 67.2544 45.2063C67.8697 45.2426 68.5213 45.2426 69.1366 45.1701C69.3176 45.1338 69.3538 45.2063 69.3538 45.3877C69.3176 45.8594 69.0642 46.1859 68.7023 46.4762C68.6299 46.5487 68.5575 46.6213 68.4489 46.6939C68.4127 46.7302 68.3403 46.7664 68.3041 46.8027C67.8335 47.0567 67.3268 47.2018 66.82 47.2744C66.3133 47.3107 65.8065 47.4195 65.2997 47.4195C64.2862 47.4195 63.2365 47.3107 62.2954 46.839C62.2592 46.8027 62.223 46.8027 62.1506 46.8027C61.7162 46.3311 61.2818 45.932 61.0285 45.3152C60.5579 44.2268 60.8475 43.2472 61.3904 42.3038C61.4266 42.2313 61.499 42.1587 61.499 42.0499C61.6076 41.9048 61.7162 41.7234 61.861 41.5419C62.7297 40.3084 63.9604 39.5828 65.2997 39.0023C65.3359 38.966 65.4083 39.0023 65.4807 38.966C66.1323 38.6032 66.8924 38.458 67.6164 38.2766C67.6525 38.2766 67.7249 38.2404 67.7611 38.2041C68.9194 37.9138 70.0778 37.6599 71.2361 37.3696C72.0324 37.1882 72.8649 36.9705 73.6613 36.6803C73.6975 36.7165 73.6613 36.6803 73.6975 36.7165C73.6975 36.7165 73.6975 36.7165 73.6613 36.6803C74.0957 36.4263 74.5662 36.1723 74.892 35.7732C75.4711 35.0476 75.1454 33.7778 74.4214 33.3787C74.168 33.2336 73.9147 33.1247 73.6613 33.0159C73.6975 32.9796 73.6975 32.9796 73.7337 32.9433C73.6975 32.9433 73.6975 32.9796 73.6613 33.0159C73.2993 32.9796 72.9011 32.907 72.5392 32.8707C71.0913 32.8345 69.6796 33.1247 68.3041 33.5964C67.9421 33.7415 67.544 33.8503 67.1458 33.8503C66.7114 33.8141 66.5666 33.5601 66.6028 33.161C66.6752 32.1451 67.3268 31.7097 68.1955 31.4558C69.5348 31.0204 70.9465 30.8753 72.3582 30.8027C73.9871 30.6939 75.5797 30.8027 77.1724 31.1655C77.8964 31.3469 78.5117 31.6372 78.9823 32.254C79.0909 32.3991 79.1271 32.5442 79.2719 32.6531C79.2719 32.8707 79.3804 33.0884 79.4528 33.3061C79.67 34.4308 79.4166 35.4467 79.0909 36.4989C78.9461 36.898 78.7651 37.297 78.7289 37.6961C78.3669 38.6395 78.0773 39.5828 77.7516 40.5261C77.6068 40.8889 77.4982 41.288 77.3896 41.6871C77.2086 42.1224 77.0638 42.5941 76.919 43.0658C76.6295 43.7188 76.4485 44.4082 76.2313 45.0612C76.1951 45.1701 76.1589 45.2789 76.1227 45.3877C75.9779 45.7506 75.9055 46.1134 75.6883 46.4399C75.3264 46.7302 74.8558 46.7302 74.4214 46.6939C73.6251 46.6576 72.8288 46.6939 72.0686 46.6576C71.5618 46.6576 71.5618 46.6213 71.7066 46.1497C71.9962 45.2063 72.322 44.2993 72.6478 43.3923Z" fill="#7FCBD9"/>
<mask id="mask0_597_538" style="mask-type:luminance" maskUnits="userSpaceOnUse" x="31" y="1" width="15" height="15">
<path d="M38.4775 15.093C42.3358 15.093 45.4636 11.958 45.4636 8.09071C45.4636 4.22346 42.3358 1.08844 38.4775 1.08844C34.6192 1.08844 31.4915 4.22346 31.4915 8.09071C31.4915 11.958 34.6192 15.093 38.4775 15.093Z" fill="white"/>
</mask>
<g mask="url(#mask0_597_538)">
<path d="M42.8936 8.05442C45.1126 8.05442 46.9115 6.25138 46.9115 4.02721C46.9115 1.80304 45.1126 0 42.8936 0C40.6746 0 38.8757 1.80304 38.8757 4.02721C38.8757 6.25138 40.6746 8.05442 42.8936 8.05442Z" fill="url(#paint0_radial_597_538)"/>
</g>
</g>
<defs>
<radialGradient id="paint0_radial_597_538" cx="0" cy="0" r="1" gradientUnits="userSpaceOnUse" gradientTransform="translate(42.8773 4.01781) scale(4.00852 4.01781)">
<stop offset="0.1899" stop-color="white"/>
<stop offset="0.7402" stop-color="white" stop-opacity="0.1369"/>
<stop offset="1" stop-color="white" stop-opacity="0"/>
</radialGradient>
<clipPath id="clip0_597_538">
<rect width="94.9091" height="48" fill="white"/>
</clipPath>
</defs>
</svg>
