<svg width="115" height="59" viewBox="0 0 115 59" fill="none" xmlns="http://www.w3.org/2000/svg">
<g clip-path="url(#clip0_597_878)">
<path d="M46.6229 18.718C51.2979 18.718 55.0878 14.9299 55.0878 10.257C55.0878 5.58405 51.2979 1.7959 46.6229 1.7959C41.9478 1.7959 38.158 5.58405 38.158 10.257C38.158 14.9299 41.9478 18.718 46.6229 18.718Z" fill="white"/>
<path d="M47.7632 41.4706C47.3685 42.8735 46.9738 44.3202 46.579 45.723C45.9211 48.1781 45.2632 50.5893 44.6053 53.0443C44.5615 53.132 44.5615 53.2196 44.5615 53.3512C44.5176 53.4388 44.6053 53.5704 44.4738 53.6142C44.079 55.1048 43.6404 56.5953 43.2895 58.0859C43.2457 58.1297 43.2018 58.1735 43.158 58.2174C42.9825 58.4366 42.7194 58.3489 42.4562 58.3489C37.2808 58.3489 32.1053 58.3489 26.9299 58.3489C26.7106 58.3489 26.4913 58.3489 26.272 58.3927C26.0966 58.3927 25.965 58.4366 25.7895 58.3051C25.7457 58.2612 25.7457 58.2174 25.7457 58.1297C25.7895 57.9105 25.8334 57.7351 25.8773 57.5159C26.0088 56.9899 26.1843 56.5076 26.272 55.9815C26.7983 54.1841 27.2369 52.3867 27.7194 50.5893C27.8071 50.3701 27.851 50.1947 27.8948 49.9755C27.8948 49.9317 27.9387 49.8878 27.9387 49.844C28.0702 49.2302 28.2895 48.6165 28.4211 48.0027C28.4211 47.9589 28.4211 47.915 28.465 47.8712C28.6404 47.4766 28.6404 47.0382 28.8159 46.6437C28.3334 46.819 27.851 47.0821 27.3685 47.3451C27.2808 47.389 27.2369 47.4328 27.1492 47.4328C26.9738 47.5205 26.8422 47.5643 26.7106 47.652C26.6667 47.652 26.6229 47.6958 26.6229 47.6958C26.4036 47.7835 26.2281 47.915 26.0527 48.0466C25.351 48.4411 24.6931 48.9233 23.9913 49.3617C23.9474 49.4056 23.9474 49.4056 23.9036 49.4494C23.5966 49.6248 23.2895 49.844 23.0264 50.0632H22.9825H22.9387C22.3246 50.6331 21.6229 51.1592 21.0088 51.7291C20.7895 51.9044 20.5702 52.1236 20.3948 52.299C20.351 52.3428 20.351 52.3428 20.3071 52.3867C19.5615 53.0881 18.9036 53.9211 18.2895 54.7102C18.0264 55.0171 17.851 55.3678 17.5878 55.6308C17.4562 55.9377 17.2369 56.1569 17.1053 56.4199C16.8422 56.8583 16.6229 57.3406 16.1404 57.6036C15.9211 57.779 15.7018 57.9105 15.3948 57.8667C14.8246 57.9105 14.2545 57.8667 13.6843 57.9543C13.465 57.9982 13.2895 57.9105 13.0702 57.9105C11.2281 57.9105 9.38604 57.8667 7.58779 57.9105C5.30709 57.9982 3.02639 57.9543 0.745687 57.9982C0.0439331 57.9982 -0.0437862 57.8667 0.0877927 57.1652C0.175512 56.8583 0.175512 56.5515 0.131652 56.2446C0.131652 55.6747 0.43867 55.1924 0.526389 54.6225C0.526389 54.5787 0.526389 54.5348 0.570249 54.491C1.14042 52.6497 1.66674 50.8085 2.19306 48.9672C2.28078 48.748 2.36849 48.5726 2.45621 48.3534C2.45621 47.9589 2.58779 47.6082 2.71937 47.2136C2.80709 46.819 2.93867 46.4683 3.07025 46.0738C3.28955 45.6792 3.24569 45.2408 3.42113 44.8024C3.46499 44.6271 3.5527 44.4517 3.59656 44.2325C3.72814 43.7503 3.85972 43.268 4.03516 42.7858C4.38604 41.6021 4.73692 40.4623 5.04393 39.2786C5.48253 37.8757 5.87727 36.429 6.31586 35.0261C6.75446 33.4918 7.23692 32.0012 7.63165 30.4668C7.76323 30.2914 7.80709 30.0723 7.80709 29.8531C7.80709 29.6777 7.89481 29.5023 7.98253 29.3708C7.98253 29.3708 8.02639 29.327 7.98253 29.327C8.24569 28.4063 8.5527 27.5295 8.772 26.6089C8.94744 25.8636 8.72814 25.1622 8.33341 24.5484C8.02639 24.0224 7.63165 23.584 7.23692 23.1456C7.01762 22.7948 6.7106 22.5318 6.4913 22.1811C6.40358 22.0496 6.272 21.9619 6.31586 21.7865C6.35972 21.7427 6.40358 21.6989 6.44744 21.6989C6.57902 21.655 6.7106 21.655 6.84218 21.655C10.1755 21.5235 13.5088 21.6112 16.8422 21.5673C18.2018 21.5673 19.5615 21.4797 20.965 21.5235C21.1843 21.6112 21.4036 21.6112 21.6229 21.6112C22.8071 21.5673 23.9913 21.655 25.1755 21.7427C25.2194 21.7427 25.2194 21.7865 25.2632 21.7427C25.2194 21.7427 25.1755 21.6989 25.1317 21.6112C25.1755 21.5235 25.2632 21.4797 25.351 21.4797C25.8773 21.4358 26.4036 21.4358 26.9299 21.4797C27.0176 21.4797 27.0615 21.5235 27.1053 21.6112C27.2808 21.7427 27.1931 21.9181 27.1492 22.0496C26.886 23.014 26.6229 23.9785 26.3597 24.943C25.965 26.302 25.6141 27.6611 25.2632 28.9763C25.2632 29.0201 25.2632 29.0639 25.2194 29.1078C25.1755 29.2393 25.1317 29.3708 25.1317 29.4585C25.1317 29.5023 25.1317 29.5462 25.0878 29.59C24.7369 30.949 24.3422 32.2642 24.0352 33.5794C23.772 34.5439 23.5088 35.5084 23.2457 36.4729C23.0702 36.9113 22.9825 37.4373 22.851 37.8757C22.7632 38.0949 22.6755 38.2703 22.4562 38.4018C21.7106 38.7964 21.0527 39.2786 20.3948 39.8047C20.1755 39.98 19.9124 40.1554 19.6931 40.3308C19.6053 40.3746 19.5615 40.4623 19.4738 40.5061C19.2545 40.6815 18.9913 40.8568 18.772 41.0322C18.7281 41.076 18.7281 41.076 18.6843 41.1199C18.5527 41.1637 18.465 41.2514 18.3773 41.3391C18.2895 41.4267 18.2018 41.4706 18.1141 41.5583C17.6317 41.9967 17.1053 42.3474 16.6229 42.7858C16.579 42.8296 16.5352 42.8735 16.4913 42.9173C16.0966 43.2242 15.7457 43.5311 15.3948 43.8379C15.1755 44.0133 14.9562 44.1448 14.7808 44.4079C15.0439 44.2763 15.2632 44.101 15.5264 43.9695C16.1843 43.5749 16.8422 43.1803 17.5001 42.7858C18.8159 41.9967 20.2194 41.3391 21.579 40.6376C22.7194 40.0677 23.9474 39.5416 25.1317 39.0156C25.2194 38.9717 25.2632 38.9717 25.351 38.9279C25.3948 38.9279 25.4387 38.884 25.4387 38.884C25.6141 38.7964 25.7895 38.7525 25.965 38.6648C26.0088 38.6648 26.0527 38.621 26.0527 38.621C26.5352 38.4456 26.9738 38.2703 27.4124 38.0511C27.4562 38.0511 27.5001 38.0072 27.5439 38.0072C27.8948 37.8757 28.2457 37.7442 28.5966 37.6127C29.2983 37.3058 30.0001 37.0428 30.7457 36.8236C30.8334 36.7797 30.9211 36.7797 30.965 36.7359C31.0527 36.6921 31.1843 36.6482 31.272 36.6482C32.3246 36.3413 33.3773 35.9906 34.4299 35.6399C35.4387 35.333 36.4474 35.1138 37.4562 34.7193C37.6755 34.6316 37.9825 34.6754 38.2018 34.5877C38.8597 34.4562 39.5176 34.2809 40.1317 34.0617C40.351 33.8425 40.658 34.0178 40.8773 33.8863C41.2281 33.7548 41.579 33.6671 41.9299 33.6233C42.1931 33.6233 42.4562 33.5356 42.6755 33.4479C43.3334 33.0972 44.0352 33.0972 44.7369 32.9218C44.9562 32.878 45.2194 32.878 45.4387 32.8342C45.8334 32.615 46.2281 32.615 46.6667 32.5711C46.7106 32.5711 46.7106 32.5711 46.7106 32.5711C46.9738 32.3519 47.2808 32.5273 47.5878 32.3958C48.0702 32.3519 48.5088 32.2642 48.9474 32.1327C49.079 32.045 49.2545 32.1327 49.386 32.045C50.0878 31.7382 50.8334 31.7382 51.5352 31.6066C52.1931 31.519 52.8948 31.3874 53.5527 31.2998C54.7369 31.1244 55.965 30.949 57.1492 30.8614C58.7281 30.7737 60.2632 30.5106 61.8422 30.423C62.5439 30.3791 63.2895 30.3791 64.0352 30.2914C64.2545 30.2476 64.4738 30.2476 64.6492 30.3791C64.7369 30.3791 64.5615 30.5106 64.6931 30.5106C65.4387 30.423 66.1843 30.3791 66.9738 30.3791C68.9474 30.3353 70.9211 30.3353 72.8948 30.3791C73.465 30.3791 74.079 30.3791 74.6931 30.5106C75.0001 30.5983 75.3071 30.4668 75.5702 30.3791C76.1404 30.3353 76.6667 30.4668 77.2369 30.4668C77.5001 30.4668 77.7632 30.5106 78.0264 30.5106C78.1141 30.5106 78.158 30.5106 78.2457 30.5545C79.2545 30.686 80.2632 30.8175 81.272 30.8614C81.3159 30.8614 81.3597 30.8614 81.4036 30.9052C81.7983 30.9929 82.1931 30.9929 82.5878 31.0806C84.3422 31.3436 86.0966 31.6505 87.8509 32.0012C89.7808 32.3958 91.6667 32.8342 93.5527 33.4041C93.9036 33.5356 94.3422 33.4918 94.6492 33.8425C94.4738 34.1055 94.2545 33.974 94.0352 33.974C93.7281 34.0178 93.3773 33.974 93.0702 33.9302C92.5878 33.8425 92.0615 33.9301 91.579 33.8425C91.4036 33.8425 91.272 33.8425 91.0966 33.7986C90.6141 33.7548 90.0878 33.7548 89.6053 33.6671C88.5966 33.6233 87.6316 33.4041 86.6229 33.4479C86.579 33.4479 86.5352 33.4041 86.4913 33.3602C86.4474 33.3164 86.5352 33.2726 86.4913 33.2726C85.3509 33.0972 84.1667 33.0972 82.9825 33.0972C81.9299 33.0534 80.8773 32.878 79.8246 33.0972C79.6931 33.141 79.5176 33.141 79.3422 33.0534C78.6404 32.7903 77.9387 32.878 77.2369 33.141C76.7983 33.2287 76.3597 33.141 75.9211 33.1849C75.7895 33.1849 75.658 33.1849 75.5264 33.1849C73.9474 33.141 72.3685 33.2287 70.8334 33.2726C68.2018 33.4041 65.5264 33.6233 62.8948 33.974C61.3597 34.1932 59.8246 34.4562 58.2895 34.7193C57.9825 34.7631 57.7194 34.7631 57.4562 34.8508C56.7983 35.1138 56.0088 35.0261 55.3509 35.3769C55.1755 35.4645 55.0001 35.4645 54.8246 35.4645C54.2983 35.5522 53.8597 35.8153 53.2895 35.8591C52.8948 35.9468 52.5001 36.0345 52.1053 36.2098C51.2281 36.6482 50.3071 36.8674 49.4299 37.2181C48.9913 37.3935 48.7281 37.6565 48.6404 38.0949C48.6404 38.2264 48.5966 38.3141 48.5527 38.4456C48.3334 38.8402 48.2895 39.2786 48.2018 39.717C48.0264 40.4623 48.0264 40.9883 47.7632 41.4706Z" fill="white"/>
<path d="M42.5877 31.2558C41.1403 31.475 39.7368 31.9134 38.2894 32.2641C38.0701 32.308 37.8947 32.3957 37.6754 32.4395C37.3684 32.7464 36.9298 32.6587 36.5789 32.7902C35.8771 33.0533 35.1315 33.3163 34.4298 33.4917C34.2982 33.5355 34.2105 33.4917 34.0789 33.5355C33.9034 33.7109 33.6841 33.7985 33.4648 33.8424C33.3333 33.8862 33.2017 33.9739 33.0701 33.8862C32.8947 33.7547 33.0262 33.5793 33.0701 33.4478C33.2894 32.7025 33.5526 31.9134 33.7719 31.1681C33.8157 31.0805 33.8157 30.9928 33.8596 30.9051C34.1227 30.0283 34.3859 29.1515 34.6491 28.2747C34.9122 27.5294 35.0438 26.7842 35.3508 26.0827C35.4385 25.9074 35.5262 25.6882 35.5262 25.469C35.5701 25.3813 35.5701 25.2936 35.614 25.1621C35.614 25.1183 35.614 25.0744 35.6578 25.0306C35.7455 24.7675 35.8333 24.5483 35.8771 24.2853C35.921 24.1538 35.9648 24.0223 35.9648 23.9346C36.0964 23.6277 36.1403 23.3208 36.228 23.014C36.4912 21.8741 36.4912 21.918 37.6315 21.8741C42.5877 21.6988 47.4999 21.8303 52.4561 21.7864C52.7192 21.7864 53.0262 21.7426 53.2455 21.918C53.3333 22.181 53.2017 22.444 53.114 22.7071C52.6754 24.1099 52.2806 25.469 51.842 26.8718C51.5789 27.7048 51.3596 28.5378 51.0964 29.3707C51.0526 29.4584 51.0526 29.5461 50.9648 29.6338C50.2192 29.8968 49.4298 29.9845 48.6841 30.0722C47.8947 30.2037 47.0613 30.379 46.2719 30.5105C45.8771 30.5982 45.4824 30.5982 45.0877 30.6859C44.6491 30.7297 44.2543 30.8174 43.8157 30.9489C43.421 31.1681 43.0262 31.2997 42.5877 31.2558Z" fill="white"/>
<path d="M75.5702 33.2727C75.4824 33.8865 75.2631 34.4564 75.0877 35.0263C74.5614 36.9114 74.0351 38.7965 73.5088 40.6817C73.1579 41.8653 72.807 43.049 72.5 44.1888C72.4123 44.5834 72.2368 44.9341 72.193 45.3287C72.2368 45.6794 72.0175 46.0301 71.9298 46.337C71.4912 47.9152 71.0526 49.4935 70.5702 51.0278C70.2631 51.7293 70.1316 52.4746 69.9123 53.2198C69.5175 54.5789 69.1667 55.9379 68.7281 57.2969C68.5088 57.9545 68.2456 58.1299 67.4561 58.1299C65.3509 58.1299 63.2456 58.1737 61.1403 58.1299C58.3772 58.0422 55.5702 58.086 52.807 58.086C52.5877 58.086 52.3684 58.086 52.1491 57.9984C51.8859 57.56 52.1491 57.2092 52.2368 56.8147C52.4561 55.9379 52.7193 55.0173 52.9386 54.1405C52.9824 53.9213 53.0702 53.7459 53.1579 53.5705C53.2456 53.4829 53.2456 53.3952 53.2456 53.3075C53.4649 52.5184 53.6842 51.6854 53.9035 50.8963C54.1667 49.9318 54.4298 49.0112 54.693 48.0906C54.9123 47.1261 55.2631 46.1616 55.4824 45.1533C55.4824 45.0656 55.4824 44.978 55.4824 44.9341C55.7017 44.6272 55.7017 44.2327 55.7895 43.882C56.1403 42.6106 56.4474 41.3831 56.7982 40.1117C57.0175 39.3226 57.3245 38.5335 57.4561 37.7444C57.5 37.569 57.5438 37.3937 57.6316 37.2183C57.807 37.2183 57.8947 37.0868 57.8947 36.9114C57.8947 36.5607 58.0263 36.2538 57.9824 35.9031C58.0263 35.5524 58.2017 35.2017 58.2017 34.851C59.1667 34.5879 60.2193 34.4564 61.2281 34.2811C62.807 34.0619 64.4298 33.8427 66.0088 33.6673C67.3684 33.5358 68.7281 33.4481 70.0877 33.3604C71.7544 33.2727 73.421 33.1851 75.0877 33.1851C75.2631 33.2289 75.4386 33.2289 75.5702 33.2727Z" fill="white"/>
<path d="M103.684 52.4306C103.684 52.9128 103.377 53.3074 103.377 53.7458C103.333 53.7896 103.289 53.8773 103.202 53.9211L103.158 53.8773C103.158 53.9211 103.202 53.9211 103.202 53.9211C103.07 54.6226 102.807 55.2802 102.588 55.9378C102.5 56.157 102.412 56.3762 102.368 56.6392C102.193 57.2968 102.105 57.3406 101.447 57.3406C100.307 57.3406 99.1666 57.3406 98.0262 57.3406C97.8508 57.3406 97.6315 57.3406 97.5438 57.1653C97.5438 57.1214 97.6315 57.1653 97.6315 57.0776C97.5876 57.1214 97.5876 57.1214 97.5438 57.1653C97.456 56.8146 97.6753 56.4638 97.7631 56.157C98.421 54.0965 99.0789 52.036 99.7806 49.9317C100.175 48.748 100.526 47.6082 100.921 46.4245C100.965 46.293 101.009 46.1177 101.009 45.9861C101.096 45.6354 101.184 45.2847 101.36 44.9778C101.93 43.2242 102.5 41.5145 103.07 39.7609C103.377 38.7964 103.333 38.7526 104.342 38.7964C105.395 38.8403 106.403 38.9718 107.456 38.9718C107.895 38.9718 107.938 39.0595 107.763 39.4978C107.763 39.5417 107.719 39.5855 107.719 39.6294C107.675 39.8486 107.368 40.1554 107.544 40.287C107.763 40.4623 107.982 40.1116 108.246 40.0239C108.903 39.8486 109.43 39.4978 110.044 39.2787C111.535 38.7087 113.114 38.4019 114.737 38.4019C115.088 38.4019 115.175 38.4895 115.044 38.8403C114.781 39.8047 114.561 40.7692 114.298 41.7337C114.21 41.9967 114.079 42.0406 113.86 42.0406C112.807 41.9529 111.798 42.1282 110.789 42.4351C110.658 42.479 110.526 42.5228 110.395 42.6105C109.605 42.9173 108.86 43.2681 108.246 43.8818C107.324 44.4956 106.71 45.4162 106.14 46.3369C105.263 47.7836 104.824 49.3618 104.298 50.9839C104.079 51.4661 103.903 51.9483 103.684 52.4306Z" fill="white"/>
<path d="M76.9298 27.5736C76.7544 27.7928 76.6667 28.0559 76.6228 28.3627C76.5789 28.6258 76.4912 28.6258 76.2719 28.6258C74.693 28.6696 73.114 28.6696 71.5789 28.7135C68.8158 28.8011 66.0088 28.845 63.2456 28.8888C62.5 28.8888 61.7982 28.9327 61.0526 28.9327C60.5702 28.9327 60.5702 28.9327 60.7895 28.4943C61.1842 27.6613 61.4912 26.7845 61.5351 25.82C61.5351 25.294 61.3596 24.8556 61.0088 24.461C60.6579 24.1103 60.3509 23.7596 60 23.4089C59.6053 23.0143 59.3421 22.5321 59.4737 21.9621C59.6053 21.8306 59.7807 21.8745 59.9561 21.8745C63.9912 21.8745 68.0702 21.8306 72.1053 21.8745C81.4035 22.006 90.6579 21.8745 99.9561 21.9183C100.526 21.9183 100.526 21.9183 100.526 22.4882C100.526 23.0143 100.395 23.4527 100.132 23.8911C99.6053 24.7679 98.7719 25.1186 97.8509 25.3378C96.9737 25.557 96.0526 25.6008 95.1316 25.6008C90.7895 25.6008 86.4474 25.6008 82.1491 25.6008C81.5351 25.6008 80.921 25.4693 80.307 25.5132C79.8246 25.557 79.2982 25.6008 78.8596 25.7762C78.7281 25.9077 78.4649 25.8639 78.3333 26.0392C77.6316 26.4776 77.1491 26.8722 76.9298 27.5736Z" fill="white"/>
<path d="M88.0264 52.9129C88.2895 52.2115 88.6404 51.5539 88.772 50.8524C88.8158 50.7209 88.8158 50.5456 88.9474 50.414C89.079 50.1072 89.2106 49.8003 89.2983 49.4934C89.5615 48.7043 89.079 48.2221 88.2457 48.2659C86.8421 48.3536 85.4825 48.7481 84.1229 49.0988C83.772 49.1865 83.4211 49.318 83.1141 49.4496C82.2369 49.8003 81.3158 50.0633 80.5264 50.6332C80.0439 50.8086 79.6492 51.1155 79.3421 51.51C78.8158 51.9046 78.5527 52.606 78.7281 53.2198C78.772 53.3513 78.772 53.4828 78.8158 53.5705C78.7281 53.702 78.772 53.7897 78.9913 53.8335C79.2544 53.9212 79.3421 54.1843 79.5614 54.3596C80.1316 54.8857 80.7895 55.0611 81.4913 55.1049C82.2369 55.1487 83.0264 55.1487 83.772 55.0611C83.9913 55.0172 84.0351 55.1049 84.0351 55.3241C83.9913 55.894 83.6843 56.2886 83.2457 56.6393C83.1579 56.727 83.0702 56.8146 82.9386 56.9023C82.8948 56.9462 82.8071 56.99 82.7632 57.0338C82.193 57.3407 81.579 57.5161 80.965 57.6038C80.3509 57.6476 79.7369 57.7791 79.1228 57.7791C77.8948 57.7791 76.6229 57.6476 75.4825 57.0777C75.4386 57.0338 75.3948 57.0338 75.3071 57.0338C74.7807 56.4639 74.2544 55.9817 73.9474 55.2364C73.3772 53.9212 73.7281 52.7375 74.386 51.5977C74.4299 51.51 74.5176 51.4224 74.5176 51.2908C74.6492 51.1155 74.7807 50.8963 74.9562 50.6771C76.0088 49.1865 77.5 48.3097 79.1228 47.6083C79.1667 47.5645 79.2544 47.6083 79.3421 47.5645C80.1316 47.1261 81.0527 46.9507 81.9299 46.7315C81.9737 46.7315 82.0614 46.6877 82.1053 46.6438C83.5088 46.2931 84.9123 45.9862 86.3158 45.6355C87.2807 45.4163 88.2895 45.1533 89.2544 44.8025C89.2983 44.8464 89.2544 44.8025 89.2983 44.8464C89.2983 44.8464 89.2983 44.8464 89.2544 44.8025C89.7807 44.4957 90.3509 44.1888 90.7457 43.7066C91.4474 42.8298 91.0527 41.2954 90.1755 40.8131C89.8685 40.6378 89.5614 40.5063 89.2544 40.3747C89.2983 40.3309 89.2983 40.3309 89.3421 40.2871C89.2983 40.2871 89.2983 40.3309 89.2544 40.3747C88.8158 40.3309 88.3334 40.2432 87.8948 40.1994C86.1404 40.1555 84.4299 40.5063 82.7632 41.0762C82.3246 41.2515 81.8421 41.3831 81.3597 41.3831C80.8334 41.3392 80.6579 41.0323 80.7018 40.5501C80.7895 39.3226 81.579 38.7965 82.6316 38.4896C84.2544 37.9635 85.965 37.7882 87.6755 37.7005C89.6492 37.569 91.579 37.7005 93.5088 38.1389C94.386 38.3581 95.1316 38.7088 95.7018 39.4541C95.8334 39.6295 95.8772 39.8048 96.0527 39.9363C96.0527 40.1994 96.1843 40.4624 96.272 40.7255C96.5351 42.0845 96.2281 43.312 95.8334 44.5834C95.6579 45.0656 95.4386 45.5478 95.3948 46.0301C94.9562 47.1699 94.6053 48.3097 94.2106 49.4496C94.0351 49.888 93.9036 50.3702 93.772 50.8524C93.5527 51.3785 93.3772 51.9484 93.2018 52.5183C92.8509 53.3075 92.6316 54.1404 92.3685 54.9295C92.3246 55.0611 92.2807 55.1926 92.2369 55.3241C92.0614 55.7625 91.9737 56.2009 91.7106 56.5954C91.272 56.9462 90.7018 56.9462 90.1755 56.9023C89.2106 56.8585 88.2457 56.9023 87.3246 56.8585C86.7106 56.8585 86.7106 56.8146 86.886 56.2447C87.2369 55.1049 87.6316 54.0089 88.0264 52.9129Z" fill="white"/>
<mask id="mask0_597_878" style="mask-type:luminance" maskUnits="userSpaceOnUse" x="38" y="1" width="18" height="18">
<path d="M46.6229 18.718C51.2979 18.718 55.0878 14.9299 55.0878 10.257C55.0878 5.58405 51.2979 1.7959 46.6229 1.7959C41.9478 1.7959 38.158 5.58405 38.158 10.257C38.158 14.9299 41.9478 18.718 46.6229 18.718Z" fill="white"/>
</mask>
<g mask="url(#mask0_597_878)">
<path d="M51.9736 10.2129C54.6624 10.2129 56.8421 8.03422 56.8421 5.34668C56.8421 2.65915 54.6624 0.480469 51.9736 0.480469C49.2849 0.480469 47.1052 2.65915 47.1052 5.34668C47.1052 8.03422 49.2849 10.2129 51.9736 10.2129Z" fill="url(#paint0_radial_597_878)"/>
</g>
</g>
<defs>
<radialGradient id="paint0_radial_597_878" cx="0" cy="0" r="1" gradientUnits="userSpaceOnUse" gradientTransform="translate(51.9539 5.33533) scale(4.85706 4.85486)">
<stop offset="0.1899" stop-color="white"/>
<stop offset="0.7402" stop-color="white" stop-opacity="0.1369"/>
<stop offset="1" stop-color="white" stop-opacity="0"/>
</radialGradient>
<clipPath id="clip0_597_878">
<rect width="115" height="58" fill="white" transform="translate(0 0.480469)"/>
</clipPath>
</defs>
</svg>
