<svg width="20" height="20" viewBox="0 0 20 20" fill="none" xmlns="http://www.w3.org/2000/svg">
<path d="M20.0005 2.22223V17.7777C20.0005 19.0051 19.0055 20 17.7782 20H13.6114C13.3046 20 13.0559 19.7513 13.0559 19.4444V12.7777H15.656C15.92 12.7779 16.1476 12.592 16.2004 12.3333L16.6004 10.3333C16.6169 10.2525 16.5967 10.1685 16.5452 10.1041C16.4936 10.0399 16.4161 10.0016 16.3337 10H13.0559V6.38889C13.0559 6.23548 13.1803 6.11111 13.3337 6.11111H16.1115C16.4184 6.11111 16.6671 5.86239 16.6671 5.55556V3.88889C16.6671 3.58207 16.4184 3.33333 16.1115 3.33333H13.3337C11.4927 3.33333 10.0002 4.82572 10.0002 6.66667V10H8.63356C8.32672 10 8.07799 10.2487 8.07799 10.5556V12.2223C8.07799 12.5291 8.32672 12.7777 8.63356 12.7777H10.0002V19.4444C10.0002 19.7513 9.75157 20 9.44463 20H2.22228C0.994945 20 0 19.0051 0 17.7777V2.22223C0 0.99492 0.994945 0 2.22228 0H17.7782C19.0055 0 20.0005 0.99492 20.0005 2.22223Z" fill="#0056A6"/>
</svg>
