<svg width="20" height="20" viewBox="0 0 20 20" fill="none" xmlns="http://www.w3.org/2000/svg">
<path fill-rule="evenodd" clip-rule="evenodd" d="M5.55556 0H14.4444C17.5127 0 20 2.48724 20 5.55542V14.444C20 17.5122 17.5127 19.9995 14.4444 19.9995H5.55556C2.48731 19.9995 0 17.5122 0 14.444V5.55542C0 2.48724 2.48731 0 5.55556 0ZM15.2828 5.83145C15.8964 5.83145 16.3939 5.334 16.3939 4.72036C16.3939 4.10673 15.8964 3.60928 15.2828 3.60928C14.6691 3.60928 14.1716 4.10673 14.1716 4.72036C14.1716 5.334 14.6691 5.83145 15.2828 5.83145ZM10.0012 4.99988C7.23973 4.99988 5.00115 7.2384 5.00115 9.99974C5.00115 12.7611 7.23973 14.9996 10.0012 14.9996C12.7625 14.9996 15.0012 12.7611 15.0012 9.99974C15.0041 8.6728 14.4783 7.39934 13.54 6.46105C12.6016 5.52275 11.3281 4.99692 10.0012 4.99988ZM6.94547 9.99801C6.94547 11.6856 8.31348 13.0535 10.0011 13.0535C11.6885 13.0535 13.0565 11.6856 13.0565 9.99801C13.0565 8.31052 11.6885 6.94253 10.0011 6.94253C8.31348 6.94253 6.94547 8.31052 6.94547 9.99801Z" fill="#0056A6"/>
</svg>
