<svg width="20" height="17" viewBox="0 0 20 17" fill="none" xmlns="http://www.w3.org/2000/svg">
<path d="M19.9707 2.46372C19.4547 3.15204 18.831 3.75248 18.1236 4.24184C18.1236 4.42165 18.1236 4.60146 18.1236 4.79126C18.1292 8.05659 16.8248 11.1877 14.5029 13.4825C12.1809 15.7772 9.03566 17.0439 5.77211 16.9984C3.88537 17.0046 2.02281 16.5738 0.330305 15.7398C0.239045 15.6998 0.180185 15.6096 0.180521 15.51V15.4C0.180521 15.2566 0.296752 15.1404 0.44014 15.1404C2.29475 15.0792 4.08319 14.4362 5.55244 13.3023C3.87376 13.2684 2.36338 12.274 1.66829 10.745C1.63318 10.6615 1.64411 10.5656 1.69713 10.4922C1.75016 10.4187 1.83761 10.3783 1.9279 10.3854C2.43808 10.4366 2.95337 10.3892 3.44561 10.2455C1.59249 9.86086 0.200069 8.32238 0.000796672 6.43951C-0.00628333 6.34919 0.0341927 6.2617 0.107609 6.20865C0.181025 6.1556 0.276772 6.14467 0.360256 6.17979C0.857548 6.39922 1.39438 6.51479 1.93788 6.51943C0.314104 5.45369 -0.387259 3.42663 0.230452 1.58464C0.294208 1.40566 0.4474 1.27343 0.633724 1.23656C0.820036 1.19969 1.01201 1.26361 1.13908 1.40483C3.33027 3.73685 6.34099 5.12648 9.53645 5.28074C9.4546 4.95414 9.41434 4.6185 9.41663 4.2818C9.44651 2.51629 10.539 0.943538 12.1825 0.29985C13.826 -0.343837 15.6953 0.0689284 16.9153 1.3449C17.747 1.18647 18.551 0.907142 19.3017 0.515773C19.3567 0.481442 19.4265 0.481442 19.4815 0.515773C19.5158 0.570791 19.5158 0.64057 19.4815 0.695588C19.1178 1.52831 18.5035 2.22674 17.7241 2.69348C18.4067 2.61433 19.0771 2.45334 19.7211 2.21398C19.7754 2.17707 19.8467 2.17707 19.9009 2.21398C19.9463 2.23476 19.9802 2.27451 19.9937 2.32263C20.0072 2.37074 19.9988 2.42236 19.9707 2.46372Z" fill="#0056A6"/>
</svg>
