<svg width="20" height="15" viewBox="0 0 20 15" fill="none" xmlns="http://www.w3.org/2000/svg">
<path fill-rule="evenodd" clip-rule="evenodd" d="M15.9452 0.306783L17.2725 0.443138C18.8438 0.620738 20.0236 1.96189 19.9996 3.54295V10.9971C20.0236 12.5781 18.8438 13.9192 17.2725 14.0969L15.9997 14.2333C12.0286 14.6422 8.02593 14.6422 4.05476 14.2333L2.72754 14.0969C1.15624 13.9192 -0.0236819 12.5781 0.000360909 10.9971V3.54295C-0.0236819 1.96189 1.15624 0.620738 2.72754 0.443138L4.00021 0.306783C7.97139 -0.102261 11.9741 -0.102261 15.9452 0.306783ZM9.19094 10.197L12.7271 7.83362H12.7817C12.9723 7.70948 13.0872 7.49742 13.0872 7.26998C13.0872 7.04256 12.9723 6.83053 12.7817 6.70637L9.24548 4.34289C9.0367 4.20177 8.7671 4.18731 8.54443 4.30531C8.32176 4.42331 8.18234 4.65449 8.18188 4.90648V9.63351C8.19361 9.86804 8.32528 10.0801 8.53035 10.1946C8.73543 10.3092 8.98502 10.3102 9.19094 10.197Z" fill="#0056A6"/>
</svg>
