<svg width="75" height="62" viewBox="0 0 75 62" fill="none" xmlns="http://www.w3.org/2000/svg">
<g clip-path="url(#clip0_219_79)">
<path d="M40.6234 0.000488281C34.4664 14.4987 28.3782 28.7905 22.3072 43.1167C22.6511 43.2199 22.9263 43.1339 23.2187 43.0823C26.9335 42.4116 30.6312 41.7408 34.346 41.1045C34.8275 41.0185 35.0855 40.8121 35.2919 40.365C36.7194 37.1661 38.1812 33.9672 39.6259 30.7683C40.847 28.0682 42.068 25.368 43.3407 22.5475C53.7801 35.1711 64.1507 47.6915 74.5041 60.2291C74.5901 60.1775 74.6589 60.1087 74.7449 60.0571C63.394 40.0898 52.0431 20.1053 40.6234 0.000488281ZM41.0705 7.25819L32.6778 23.1495L40.7438 3.54335L58.0281 33.4685L41.0705 7.25819Z" fill="#1D8FCF"/>
<path d="M39.299 43.4089C38.9378 43.0134 38.5938 43.1166 38.2155 43.1681C34.1567 43.8217 30.0979 44.4924 26.0391 45.146C23.4765 45.5587 20.9312 45.9715 18.1794 46.4014C24.474 31.1637 30.717 16.0636 36.96 0.980631C36.8912 0.946235 36.8224 0.911838 36.7364 0.877441C24.5256 20.7243 12.3148 40.5884 0.000778198 60.5901C16.0468 57.9587 31.9209 55.379 47.9153 52.7476C44.9572 49.5487 42.1195 46.4874 39.299 43.4089ZM3.52644 58.4059L23.7517 25.1615L6.62214 56.3249L36.0141 53.126L3.52644 58.4059Z" fill="#0870B4"/>
<path d="M44.063 28.0853C42.4636 31.7657 40.8641 35.4634 39.2475 39.1438C39.0755 39.5222 39.2991 39.6598 39.471 39.8661C40.3826 40.8808 41.3113 41.9127 42.2228 42.9275C45.2669 46.2983 48.3282 49.6692 51.3723 53.0573C51.5271 53.2293 51.871 53.3668 51.7507 53.6592C51.6647 53.9 51.3379 53.7968 51.1315 53.8312C49.3773 54.1236 47.6403 54.4159 45.886 54.7255C39.2131 55.8606 32.5401 56.9957 25.8672 58.1308C18.6611 59.3519 11.455 60.5729 4.24886 61.794C4.24886 61.8628 4.23166 61.9488 4.23166 62.0176C27.2086 62.0176 50.1856 62.0176 73.2314 62.0176C63.5143 50.6495 53.8489 39.333 44.1834 28.0337C44.1146 28.0681 44.063 28.0681 44.063 28.0853ZM69.5165 60.3666L34.9651 60.4354L66.1285 58.8187L55.8955 44.4065L69.5165 60.3666Z" fill="#2EABE2"/>
</g>
<defs>
<clipPath id="clip0_219_79">
<rect width="74.7268" height="62" fill="white"/>
</clipPath>
</defs>
</svg>
