<svg width="60" height="58" viewBox="0 0 60 58" fill="none" xmlns="http://www.w3.org/2000/svg">
<rect x="0.125" y="24" width="30" height="30" rx="15" fill="#77D1DE"/>
<path d="M36.7891 24.0278V29.77C36.7891 32.27 36.5547 34.4497 36.0859 36.3091C35.6172 38.1528 34.9297 39.6841 34.0234 40.9028C33.1328 42.106 32.0391 43.0044 30.7422 43.5981C29.4609 44.1919 27.9922 44.4888 26.3359 44.4888C25.0234 44.4888 23.8203 44.3013 22.7266 43.9263C21.6328 43.5513 20.6562 42.981 19.7969 42.2153C18.9531 41.4341 18.2344 40.4575 17.6406 39.2856C17.0469 38.1138 16.5938 36.7388 16.2812 35.1606C15.9688 33.5669 15.8125 31.77 15.8125 29.77V24.0278C15.8125 21.5122 16.0469 19.3403 16.5156 17.5122C17 15.6841 17.6875 14.1685 18.5781 12.9653C19.4844 11.7622 20.5859 10.8716 21.8828 10.2935C23.1797 9.69971 24.6484 9.40283 26.2891 9.40283C27.6016 9.40283 28.8047 9.59814 29.8984 9.98877C31.0078 10.3638 31.9844 10.9263 32.8281 11.6763C33.6875 12.4263 34.4062 13.3872 34.9844 14.5591C35.5781 15.7153 36.0234 17.0825 36.3203 18.6606C36.6328 20.2388 36.7891 22.0278 36.7891 24.0278ZM34 30.0981V23.6763C34 22.1294 33.8906 20.7231 33.6719 19.4575C33.4688 18.1919 33.1641 17.0825 32.7578 16.1294C32.3516 15.1763 31.8359 14.3794 31.2109 13.7388C30.6016 13.0981 29.8828 12.6216 29.0547 12.3091C28.2422 11.981 27.3203 11.8169 26.2891 11.8169C25.0234 11.8169 23.9062 12.0747 22.9375 12.5903C21.9844 13.0903 21.1875 13.8403 20.5469 14.8403C19.9062 15.8247 19.4219 17.0591 19.0938 18.5435C18.7812 20.0278 18.625 21.7388 18.625 23.6763V30.0981C18.625 31.6294 18.7266 33.0278 18.9297 34.2935C19.1328 35.5435 19.4453 36.6528 19.8672 37.6216C20.2891 38.5903 20.8047 39.4106 21.4141 40.0825C22.0391 40.7388 22.7578 41.2388 23.5703 41.5825C24.3984 41.9106 25.3203 42.0747 26.3359 42.0747C27.6328 42.0747 28.7578 41.8169 29.7109 41.3013C30.6641 40.77 31.4609 39.9966 32.1016 38.981C32.7422 37.9497 33.2188 36.6919 33.5312 35.2075C33.8438 33.7075 34 32.0044 34 30.0981ZM55.8906 9.75439V44.02H53.1016V13.2935L43.8203 16.7388V14.0903L55.4219 9.75439H55.8906Z" fill="#222222"/>
</svg>
