<svg width="64" height="58" viewBox="0 0 64 58" fill="none" xmlns="http://www.w3.org/2000/svg">
<rect x="0.125" y="24" width="30" height="30" rx="15" fill="#77D1DE"/>
<path d="M36.0391 24.0278V29.77C36.0391 32.27 35.8047 34.4497 35.3359 36.3091C34.8672 38.1528 34.1797 39.6841 33.2734 40.9028C32.3828 42.106 31.2891 43.0044 29.9922 43.5981C28.7109 44.1919 27.2422 44.4888 25.5859 44.4888C24.2734 44.4888 23.0703 44.3013 21.9766 43.9263C20.8828 43.5513 19.9062 42.981 19.0469 42.2153C18.2031 41.4341 17.4844 40.4575 16.8906 39.2856C16.2969 38.1138 15.8438 36.7388 15.5312 35.1606C15.2188 33.5669 15.0625 31.77 15.0625 29.77V24.0278C15.0625 21.5122 15.2969 19.3403 15.7656 17.5122C16.25 15.6841 16.9375 14.1685 17.8281 12.9653C18.7344 11.7622 19.8359 10.8716 21.1328 10.2935C22.4297 9.69971 23.8984 9.40283 25.5391 9.40283C26.8516 9.40283 28.0547 9.59814 29.1484 9.98877C30.2578 10.3638 31.2344 10.9263 32.0781 11.6763C32.9375 12.4263 33.6562 13.3872 34.2344 14.5591C34.8281 15.7153 35.2734 17.0825 35.5703 18.6606C35.8828 20.2388 36.0391 22.0278 36.0391 24.0278ZM33.25 30.0981V23.6763C33.25 22.1294 33.1406 20.7231 32.9219 19.4575C32.7188 18.1919 32.4141 17.0825 32.0078 16.1294C31.6016 15.1763 31.0859 14.3794 30.4609 13.7388C29.8516 13.0981 29.1328 12.6216 28.3047 12.3091C27.4922 11.981 26.5703 11.8169 25.5391 11.8169C24.2734 11.8169 23.1562 12.0747 22.1875 12.5903C21.2344 13.0903 20.4375 13.8403 19.7969 14.8403C19.1562 15.8247 18.6719 17.0591 18.3438 18.5435C18.0312 20.0278 17.875 21.7388 17.875 23.6763V30.0981C17.875 31.6294 17.9766 33.0278 18.1797 34.2935C18.3828 35.5435 18.6953 36.6528 19.1172 37.6216C19.5391 38.5903 20.0547 39.4106 20.6641 40.0825C21.2891 40.7388 22.0078 41.2388 22.8203 41.5825C23.6484 41.9106 24.5703 42.0747 25.5859 42.0747C26.8828 42.0747 28.0078 41.8169 28.9609 41.3013C29.9141 40.77 30.7109 39.9966 31.3516 38.981C31.9922 37.9497 32.4688 36.6919 32.7812 35.2075C33.0938 33.7075 33.25 32.0044 33.25 30.0981ZM63.4609 41.606V44.02H42.1094V41.8403L53.2891 29.1606C54.6797 27.5825 55.7891 26.1997 56.6172 25.0122C57.4453 23.8091 58.0391 22.7153 58.3984 21.731C58.7734 20.731 58.9609 19.7622 58.9609 18.8247C58.9609 17.4497 58.6875 16.2388 58.1406 15.1919C57.6094 14.145 56.8125 13.3247 55.75 12.731C54.6875 12.1372 53.375 11.8403 51.8125 11.8403C50.25 11.8403 48.8906 12.1763 47.7344 12.8481C46.5781 13.52 45.6875 14.4575 45.0625 15.6606C44.4531 16.8481 44.1484 18.1997 44.1484 19.7153H41.3594C41.3594 17.8403 41.7734 16.1216 42.6016 14.5591C43.4453 12.9966 44.6484 11.7544 46.2109 10.8325C47.7734 9.89502 49.6406 9.42627 51.8125 9.42627C53.875 9.42627 55.6484 9.79346 57.1328 10.5278C58.6172 11.2466 59.7578 12.2856 60.5547 13.645C61.3672 15.0044 61.7734 16.645 61.7734 18.5669C61.7734 19.5981 61.5859 20.6372 61.2109 21.6841C60.8516 22.731 60.3516 23.7778 59.7109 24.8247C59.0859 25.856 58.3672 26.8794 57.5547 27.895C56.7578 28.9106 55.9219 29.9106 55.0469 30.895L45.5312 41.606H63.4609Z" fill="#222222"/>
</svg>
