<svg width="63" height="58" viewBox="0 0 63 58" fill="none" xmlns="http://www.w3.org/2000/svg">
<rect x="0.125" y="24" width="30" height="30" rx="15" fill="#77D1DE"/>
<path d="M36.2891 24.0278V29.77C36.2891 32.27 36.0547 34.4497 35.5859 36.3091C35.1172 38.1528 34.4297 39.6841 33.5234 40.9028C32.6328 42.106 31.5391 43.0044 30.2422 43.5981C28.9609 44.1919 27.4922 44.4888 25.8359 44.4888C24.5234 44.4888 23.3203 44.3013 22.2266 43.9263C21.1328 43.5513 20.1562 42.981 19.2969 42.2153C18.4531 41.4341 17.7344 40.4575 17.1406 39.2856C16.5469 38.1138 16.0938 36.7388 15.7812 35.1606C15.4688 33.5669 15.3125 31.77 15.3125 29.77V24.0278C15.3125 21.5122 15.5469 19.3403 16.0156 17.5122C16.5 15.6841 17.1875 14.1685 18.0781 12.9653C18.9844 11.7622 20.0859 10.8716 21.3828 10.2935C22.6797 9.69971 24.1484 9.40283 25.7891 9.40283C27.1016 9.40283 28.3047 9.59814 29.3984 9.98877C30.5078 10.3638 31.4844 10.9263 32.3281 11.6763C33.1875 12.4263 33.9062 13.3872 34.4844 14.5591C35.0781 15.7153 35.5234 17.0825 35.8203 18.6606C36.1328 20.2388 36.2891 22.0278 36.2891 24.0278ZM33.5 30.0981V23.6763C33.5 22.1294 33.3906 20.7231 33.1719 19.4575C32.9688 18.1919 32.6641 17.0825 32.2578 16.1294C31.8516 15.1763 31.3359 14.3794 30.7109 13.7388C30.1016 13.0981 29.3828 12.6216 28.5547 12.3091C27.7422 11.981 26.8203 11.8169 25.7891 11.8169C24.5234 11.8169 23.4062 12.0747 22.4375 12.5903C21.4844 13.0903 20.6875 13.8403 20.0469 14.8403C19.4062 15.8247 18.9219 17.0591 18.5938 18.5435C18.2812 20.0278 18.125 21.7388 18.125 23.6763V30.0981C18.125 31.6294 18.2266 33.0278 18.4297 34.2935C18.6328 35.5435 18.9453 36.6528 19.3672 37.6216C19.7891 38.5903 20.3047 39.4106 20.9141 40.0825C21.5391 40.7388 22.2578 41.2388 23.0703 41.5825C23.8984 41.9106 24.8203 42.0747 25.8359 42.0747C27.1328 42.0747 28.2578 41.8169 29.2109 41.3013C30.1641 40.77 30.9609 39.9966 31.6016 38.981C32.2422 37.9497 32.7188 36.6919 33.0312 35.2075C33.3438 33.7075 33.5 32.0044 33.5 30.0981ZM48.5938 25.4106H51.4531C53.2031 25.4106 54.6641 25.1138 55.8359 24.52C57.0234 23.9106 57.9141 23.106 58.5078 22.106C59.1172 21.106 59.4219 19.9966 59.4219 18.7778C59.4219 17.4028 59.1641 16.1997 58.6484 15.1685C58.1328 14.1216 57.3438 13.3091 56.2812 12.731C55.2344 12.1372 53.8906 11.8403 52.25 11.8403C50.8125 11.8403 49.5312 12.1216 48.4062 12.6841C47.2812 13.2466 46.3906 14.0513 45.7344 15.0981C45.0781 16.145 44.75 17.395 44.75 18.8481H41.9609C41.9609 16.9888 42.4062 15.356 43.2969 13.9497C44.1875 12.5278 45.4141 11.4185 46.9766 10.6216C48.5391 9.82471 50.2969 9.42627 52.25 9.42627C54.2656 9.42627 56.0156 9.79346 57.5 10.5278C59 11.2622 60.1562 12.3325 60.9688 13.7388C61.7969 15.145 62.2109 16.856 62.2109 18.8716C62.2109 19.9028 61.9844 20.9185 61.5312 21.9185C61.0938 22.9185 60.4375 23.8247 59.5625 24.6372C58.6875 25.4341 57.6016 26.0747 56.3047 26.5591C55.0078 27.0435 53.5 27.2856 51.7812 27.2856H48.5938V25.4106ZM48.5938 27.8247V25.9731H51.7812C53.7344 25.9731 55.4062 26.1997 56.7969 26.6528C58.1875 27.0903 59.3281 27.7153 60.2188 28.5278C61.125 29.3247 61.7891 30.2544 62.2109 31.3169C62.6328 32.3794 62.8438 33.52 62.8438 34.7388C62.8438 36.3013 62.5859 37.6841 62.0703 38.8872C61.5547 40.0903 60.8203 41.1138 59.8672 41.9575C58.9297 42.7856 57.8203 43.4185 56.5391 43.856C55.2734 44.2778 53.8828 44.4888 52.3672 44.4888C50.9922 44.4888 49.6484 44.2856 48.3359 43.8794C47.0391 43.4731 45.8672 42.8716 44.8203 42.0747C43.7891 41.2622 42.9688 40.2466 42.3594 39.0278C41.75 37.7935 41.4453 36.3716 41.4453 34.7622H44.2344C44.2344 36.1997 44.5781 37.4731 45.2656 38.5825C45.9531 39.6763 46.9062 40.5356 48.125 41.1606C49.3594 41.77 50.7734 42.0747 52.3672 42.0747C53.9766 42.0747 55.3516 41.8013 56.4922 41.2544C57.6484 40.6919 58.5312 39.8716 59.1406 38.7935C59.75 37.7153 60.0547 36.395 60.0547 34.8325C60.0547 33.1919 59.6875 31.856 58.9531 30.8247C58.2344 29.7935 57.2266 29.0356 55.9297 28.5513C54.6484 28.0669 53.1562 27.8247 51.4531 27.8247H48.5938Z" fill="#222222"/>
</svg>
