<svg width="66" height="58" viewBox="0 0 66 58" fill="none" xmlns="http://www.w3.org/2000/svg">
<rect x="0.125" y="24" width="30" height="30" rx="15" fill="#77D1DE"/>
<path d="M36.5391 24.0278V29.77C36.5391 32.27 36.3047 34.4497 35.8359 36.3091C35.3672 38.1528 34.6797 39.6841 33.7734 40.9028C32.8828 42.106 31.7891 43.0044 30.4922 43.5981C29.2109 44.1919 27.7422 44.4888 26.0859 44.4888C24.7734 44.4888 23.5703 44.3013 22.4766 43.9263C21.3828 43.5513 20.4062 42.981 19.5469 42.2153C18.7031 41.4341 17.9844 40.4575 17.3906 39.2856C16.7969 38.1138 16.3438 36.7388 16.0312 35.1606C15.7188 33.5669 15.5625 31.77 15.5625 29.77V24.0278C15.5625 21.5122 15.7969 19.3403 16.2656 17.5122C16.75 15.6841 17.4375 14.1685 18.3281 12.9653C19.2344 11.7622 20.3359 10.8716 21.6328 10.2935C22.9297 9.69971 24.3984 9.40283 26.0391 9.40283C27.3516 9.40283 28.5547 9.59814 29.6484 9.98877C30.7578 10.3638 31.7344 10.9263 32.5781 11.6763C33.4375 12.4263 34.1562 13.3872 34.7344 14.5591C35.3281 15.7153 35.7734 17.0825 36.0703 18.6606C36.3828 20.2388 36.5391 22.0278 36.5391 24.0278ZM33.75 30.0981V23.6763C33.75 22.1294 33.6406 20.7231 33.4219 19.4575C33.2188 18.1919 32.9141 17.0825 32.5078 16.1294C32.1016 15.1763 31.5859 14.3794 30.9609 13.7388C30.3516 13.0981 29.6328 12.6216 28.8047 12.3091C27.9922 11.981 27.0703 11.8169 26.0391 11.8169C24.7734 11.8169 23.6562 12.0747 22.6875 12.5903C21.7344 13.0903 20.9375 13.8403 20.2969 14.8403C19.6562 15.8247 19.1719 17.0591 18.8438 18.5435C18.5312 20.0278 18.375 21.7388 18.375 23.6763V30.0981C18.375 31.6294 18.4766 33.0278 18.6797 34.2935C18.8828 35.5435 19.1953 36.6528 19.6172 37.6216C20.0391 38.5903 20.5547 39.4106 21.1641 40.0825C21.7891 40.7388 22.5078 41.2388 23.3203 41.5825C24.1484 41.9106 25.0703 42.0747 26.0859 42.0747C27.3828 42.0747 28.5078 41.8169 29.4609 41.3013C30.4141 40.77 31.2109 39.9966 31.8516 38.981C32.4922 37.9497 32.9688 36.6919 33.2812 35.2075C33.5938 33.7075 33.75 32.0044 33.75 30.0981ZM65.1328 33.0044V35.395H40.9688V33.7778L56.7422 9.89502H59.0859L55.7578 15.6841L44.3906 33.0044H65.1328ZM59.8125 9.89502V44.02H57.0234V9.89502H59.8125Z" fill="#222222"/>
</svg>
