<svg width="19" height="19" viewBox="0 0 19 19" fill="none" xmlns="http://www.w3.org/2000/svg">
<g clip-path="url(#clip0_21_1490)">
<path d="M2.52508 10.58C2.40508 10.58 2.31508 10.61 2.25508 10.67C2.19508 10.73 2.16508 10.82 2.16508 10.94V17.72C2.16508 17.84 2.19508 17.94 2.25508 18.02C2.31508 18.1 2.40508 18.14 2.52508 18.14H16.0251C16.1051 18.14 16.1851 18.1 16.2651 18.02C16.3451 17.94 16.3851 17.84 16.3851 17.72V12.2C16.3851 12.08 16.3451 11.99 16.2651 11.93C16.1851 11.87 16.0951 11.84 15.9951 11.84C15.8951 11.84 15.8151 11.87 15.7551 11.93C15.6951 11.99 15.6651 12.08 15.6651 12.2V17.36H2.88508V10.94C2.88508 10.82 2.84508 10.73 2.76508 10.67C2.68508 10.61 2.60508 10.58 2.52508 10.58ZM4.02508 12.14C3.90508 12.14 3.81508 12.17 3.75508 12.23C3.69508 12.29 3.66508 12.38 3.66508 12.5V17.72C3.66508 17.84 3.69508 17.94 3.75508 18.02C3.81508 18.1 3.90508 18.14 4.02508 18.14H8.16508C8.24508 18.14 8.32508 18.1 8.40508 18.02C8.48508 17.94 8.52508 17.84 8.52508 17.72V13.64C8.52508 13.56 8.48508 13.48 8.40508 13.4C8.32508 13.32 8.23508 13.28 8.13508 13.28C8.03508 13.28 7.94508 13.32 7.86508 13.4C7.78508 13.48 7.74508 13.56 7.74508 13.64V17.36H4.38508V12.86H8.16508C8.24508 12.86 8.32508 12.83 8.40508 12.77C8.48508 12.71 8.52508 12.62 8.52508 12.5C8.52508 12.38 8.48508 12.29 8.40508 12.23C8.32508 12.17 8.24508 12.14 8.16508 12.14H4.02508ZM10.0251 12.14C9.90508 12.14 9.81508 12.17 9.75508 12.23C9.69508 12.29 9.66508 12.38 9.66508 12.5V15.86C9.66508 15.98 9.69508 16.07 9.75508 16.13C9.81508 16.19 9.90508 16.22 10.0251 16.22H14.5251C14.6051 16.22 14.6851 16.19 14.7651 16.13C14.8451 16.07 14.8851 15.98 14.8851 15.86V13.64C14.8851 13.56 14.8451 13.48 14.7651 13.4C14.6851 13.32 14.5951 13.28 14.4951 13.28C14.3951 13.28 14.3151 13.32 14.2551 13.4C14.1951 13.48 14.1651 13.56 14.1651 13.64V15.5H10.3851V12.86H14.5251C14.6051 12.86 14.6851 12.83 14.7651 12.77C14.8451 12.71 14.8851 12.62 14.8851 12.5C14.8851 12.38 14.8451 12.29 14.7651 12.23C14.6851 12.17 14.6051 12.14 14.5251 12.14H10.0251ZM9.24508 8.12002C8.80508 8.12002 8.43508 8.28002 8.13508 8.60002C7.83508 8.92002 7.68508 9.30002 7.68508 9.74002C7.68508 10.18 7.83508 10.56 8.13508 10.88C8.43508 11.2 8.80508 11.36 9.24508 11.36C9.68508 11.36 10.0651 11.2 10.3851 10.88C10.7051 10.56 10.8651 10.18 10.8651 9.74002C10.8651 9.62002 10.8251 9.53001 10.7451 9.47002C10.6651 9.41002 10.5751 9.38002 10.4751 9.38002C10.3751 9.38002 10.2851 9.41002 10.2051 9.47002C10.1251 9.53001 10.0851 9.62002 10.0851 9.74002C10.0851 9.98002 10.0051 10.18 9.84508 10.34C9.68508 10.5 9.48508 10.58 9.24508 10.58C9.00508 10.58 8.80508 10.5 8.64508 10.34C8.48508 10.18 8.40508 9.98002 8.40508 9.74002C8.40508 9.50002 8.48508 9.30002 8.64508 9.14002C8.80508 8.98002 9.00508 8.90002 9.24508 8.90002C9.48508 8.90002 9.68508 8.98002 9.84508 9.14002C9.92508 9.22002 10.0151 9.26002 10.1151 9.26002C10.2151 9.26002 10.3051 9.22002 10.3851 9.14002C10.4651 9.06002 10.5051 8.97002 10.5051 8.87002C10.5051 8.77002 10.4651 8.68002 10.3851 8.60002C10.0651 8.28002 9.68508 8.12002 9.24508 8.12002ZM11.7051 13.46C11.5451 13.46 11.4451 13.54 11.4051 13.7L10.9851 14.3C10.9451 14.42 10.9351 14.53 10.9551 14.63C10.9751 14.73 11.0351 14.8 11.1351 14.84C11.2351 14.88 11.3351 14.89 11.4351 14.87C11.5351 14.85 11.6051 14.8 11.6451 14.72L12.0051 14.06C12.0851 13.98 12.1051 13.89 12.0651 13.79C12.0251 13.69 11.9751 13.62 11.9151 13.58C11.8551 13.54 11.7851 13.5 11.7051 13.46ZM13.2051 13.46C13.0451 13.46 12.9451 13.54 12.9051 13.7L12.4851 14.3C12.4451 14.42 12.4351 14.53 12.4551 14.63C12.4751 14.73 12.5351 14.8 12.6351 14.84C12.7351 14.88 12.8351 14.89 12.9351 14.87C13.0351 14.85 13.1051 14.8 13.1451 14.72L13.5051 14.06C13.5851 13.98 13.6051 13.89 13.5651 13.79C13.5251 13.69 13.4751 13.62 13.4151 13.58C13.3551 13.54 13.2851 13.5 13.2051 13.46ZM15.4251 0.860016C14.7851 0.860016 14.2251 1.10002 13.7451 1.58002C13.2651 2.06002 13.0251 2.64002 13.0251 3.32002C13.0251 4.00002 13.2651 4.57002 13.7451 5.03002C14.2251 5.49002 14.7951 5.72002 15.4551 5.72002C16.1151 5.72002 16.6851 5.49002 17.1651 5.03002C17.6451 4.57002 17.8851 4.00002 17.8851 3.32002C17.8851 2.64002 17.6451 2.06002 17.1651 1.58002C16.6851 1.10002 16.1051 0.860016 15.4251 0.860016ZM15.4251 1.64002C15.9051 1.64002 16.3151 1.80002 16.6551 2.12002C16.9951 2.44002 17.1651 2.84002 17.1651 3.32002C17.1651 3.80002 16.9951 4.20002 16.6551 4.52002C16.3151 4.84002 15.9151 5.00002 15.4551 5.00002C14.9951 5.00002 14.5951 4.84002 14.2551 4.52002C13.9151 4.20002 13.7451 3.80002 13.7451 3.32002C13.7451 2.84002 13.9151 2.44002 14.2551 2.12002C14.5951 1.80002 14.9851 1.64002 15.4251 1.64002ZM2.58508 4.04002C2.50508 4.04002 2.42508 4.07002 2.34508 4.13002C2.26508 4.19002 2.22508 4.28002 2.22508 4.40002V8.66002C2.22508 8.74002 2.26508 8.82002 2.34508 8.90002C2.42508 8.98002 2.51508 9.02002 2.61508 9.02002C2.71508 9.02002 2.79508 8.98002 2.85508 8.90002C2.91508 8.82002 2.94508 8.74002 2.94508 8.66002V4.76002H4.44508V6.98002C4.44508 7.10002 4.48508 7.20002 4.56508 7.28002C4.64508 7.36002 4.73508 7.40002 4.83508 7.40002C4.93508 7.40002 5.02508 7.36002 5.10508 7.28002C5.18508 7.20002 5.22508 7.10002 5.22508 6.98002V4.40002C5.22508 4.28002 5.18508 4.19002 5.10508 4.13002C5.02508 4.07002 4.94508 4.04002 4.86508 4.04002H2.58508ZM1.86508 2.66002C1.74508 2.66002 1.64508 2.70002 1.56508 2.78002C1.48508 2.86002 1.44508 2.94002 1.44508 3.02002V4.40002C1.44508 4.48002 1.48508 4.56002 1.56508 4.64002C1.64508 4.72002 1.74508 4.76002 1.86508 4.76002H5.58508C5.70508 4.76002 5.79508 4.72002 5.85508 4.64002C5.91508 4.56002 5.94508 4.48002 5.94508 4.40002V3.02002C5.94508 2.94002 5.91508 2.86002 5.85508 2.78002C5.79508 2.70002 5.70508 2.66002 5.58508 2.66002H1.86508ZM2.22508 3.44002H5.22508V4.04002H2.22508V3.44002ZM5.76508 15.14C5.76508 15.26 5.71508 15.37 5.61508 15.47C5.51508 15.57 5.40508 15.62 5.28508 15.62C5.16508 15.62 5.05508 15.57 4.95508 15.47C4.85508 15.37 4.80508 15.25 4.80508 15.11C4.80508 14.97 4.85508 14.86 4.95508 14.78C5.05508 14.7 5.16508 14.66 5.28508 14.66C5.40508 14.66 5.51508 14.7 5.61508 14.78C5.71508 14.86 5.76508 14.98 5.76508 15.14ZM9.18508 3.98002C8.98508 3.98002 8.80508 4.04002 8.64508 4.16002L1.14508 9.32001C0.985078 9.44002 0.885078 9.61001 0.845078 9.83002C0.805078 10.05 0.845078 10.24 0.965078 10.4L1.38508 11C1.50508 11.16 1.66508 11.26 1.86508 11.3C2.06508 11.34 2.26508 11.3 2.46508 11.18L9.24508 6.44002L16.0851 11.18C16.2451 11.3 16.4351 11.34 16.6551 11.3C16.8751 11.26 17.0451 11.16 17.1651 11L17.5851 10.4C17.7051 10.24 17.7451 10.05 17.7051 9.83002C17.6651 9.61001 17.5651 9.44002 17.4051 9.32001L9.90508 4.16002C9.70508 4.04002 9.46508 3.98002 9.18508 3.98002ZM9.24508 4.70002C9.32508 4.70002 9.40508 4.72002 9.48508 4.76002L16.9251 9.98002L16.5051 10.58L9.48508 5.72002C9.32508 5.60002 9.18508 5.60002 9.06508 5.72002L1.98508 10.58L1.56508 9.98002L9.06508 4.76002C9.10508 4.72002 9.16508 4.70002 9.24508 4.70002Z" fill="#0056A6"/>
</g>
<defs>
<clipPath id="clip0_21_1490">
<rect width="18" height="18" fill="white" transform="matrix(1 0 0 -1 0.36499 18.5)"/>
</clipPath>
</defs>
</svg>
