<svg width="17" height="12" viewBox="0 0 17 12" fill="none" xmlns="http://www.w3.org/2000/svg">
<path d="M1.40331 7.10734C2.88617 8.58153 5.47225 10.6249 8.41446 10.6249C11.3567 10.6249 13.9423 8.58153 15.4251 7.10734C15.8162 6.71855 16.0124 6.52349 16.1369 6.14176C16.2258 5.8694 16.2258 5.38061 16.1369 5.10825C16.0124 4.72651 15.8162 4.53142 15.4251 4.14259C13.9423 2.6684 11.3567 0.625 8.41446 0.625C5.47225 0.625 2.88617 2.6684 1.40331 4.14259C1.01192 4.53169 0.816212 4.72637 0.691637 5.10825C0.602788 5.38061 0.602788 5.8694 0.691637 6.14176C0.816212 6.52364 1.01192 6.71824 1.40331 7.10734Z" stroke="#222222" stroke-width="1.25" stroke-linecap="round" stroke-linejoin="round"/>
<path d="M6.74764 5.625C6.74764 6.54547 7.49383 7.29167 8.41431 7.29167C9.33478 7.29167 10.081 6.54547 10.081 5.625C10.081 4.70453 9.33478 3.95833 8.41431 3.95833C7.49383 3.95833 6.74764 4.70453 6.74764 5.625Z" stroke="#222222" stroke-width="1.25" stroke-linecap="round" stroke-linejoin="round"/>
</svg>
