<svg width="32" height="31" viewBox="0 0 32 31" fill="none" xmlns="http://www.w3.org/2000/svg">
<path d="M27.6739 7.02507V24.1604C27.6739 25.5124 26.5779 26.6084 25.2259 26.6084H20.6359C20.2979 26.6084 20.024 26.3345 20.024 25.9964V18.6526H22.8881C23.179 18.6528 23.4297 18.448 23.4878 18.1631L23.9285 15.96C23.9467 15.871 23.9244 15.7784 23.8677 15.7075C23.8108 15.6367 23.7255 15.5945 23.6347 15.5928H20.024V11.6149C20.024 11.4459 20.161 11.3089 20.33 11.3089H23.3899C23.728 11.3089 24.0019 11.0349 24.0019 10.6969V8.86101C24.0019 8.52302 23.728 8.24902 23.3899 8.24902H20.33C18.302 8.24902 16.658 9.89298 16.658 11.9209V15.5928H15.1525C14.8145 15.5928 14.5405 15.8667 14.5405 16.2048V18.0407C14.5405 18.3787 14.8145 18.6526 15.1525 18.6526H16.658V25.9964C16.658 26.3345 16.3841 26.6084 16.0459 26.6084H8.09007C6.73808 26.6084 5.64209 25.5124 5.64209 24.1604V7.02507C5.64209 5.67311 6.73808 4.57715 8.09007 4.57715H25.2259C26.5779 4.57715 27.6739 5.67311 27.6739 7.02507Z" fill="white"/>
</svg>
