<svg width="40" height="40" viewBox="0 0 40 40" fill="none" xmlns="http://www.w3.org/2000/svg">
<path d="M21.9493 3.33325H9.99935C8.16602 3.33325 6.66602 4.83325 6.66602 6.66659V33.3333C6.66602 35.1666 8.16602 36.6666 9.99935 36.6666H29.9993C31.8327 36.6666 33.3327 35.1666 33.3327 33.3333V14.7166C33.3327 13.8333 32.9827 12.9833 32.3493 12.3666L24.2993 4.31659C23.6827 3.68325 22.8327 3.33325 21.9493 3.33325ZM26.666 24.9999C26.666 28.8999 23.316 32.0166 19.3493 31.6333C15.8827 31.2999 13.3327 28.1999 13.3327 24.7166V16.0666C13.3327 13.8833 14.8993 11.8999 17.066 11.6833C19.566 11.4333 21.666 13.3833 21.666 15.8333V23.3333C21.666 24.2499 20.916 24.9999 19.9993 24.9999C19.0827 24.9999 18.3327 24.2499 18.3327 23.3333V15.8333C18.3327 15.3666 17.966 14.9999 17.4993 14.9999C17.0327 14.9999 16.666 15.3666 16.666 15.8333V24.8166C16.666 26.4833 17.7993 28.0166 19.4327 28.2833C21.5327 28.6333 23.3327 27.0166 23.3327 24.9999V19.9999C23.3327 19.0833 24.0827 18.3333 24.9993 18.3333C25.916 18.3333 26.666 19.0833 26.666 19.9999V24.9999ZM23.3327 11.6666V6.66659L29.9993 13.3333H24.9993C24.0827 13.3333 23.3327 12.5833 23.3327 11.6666Z" fill="#77D1DE"/>
</svg>
