<svg width="31" height="31" viewBox="0 0 31 31" fill="none" xmlns="http://www.w3.org/2000/svg">
<path fill-rule="evenodd" clip-rule="evenodd" d="M11.1654 4.57715H20.9572C24.3372 4.57715 27.0772 7.31707 27.0772 10.6969V20.4886C27.0772 23.8684 24.3372 26.6084 20.9572 26.6084H11.1654C7.7854 26.6084 5.04541 23.8684 5.04541 20.4886V10.6969C5.04541 7.31707 7.7854 4.57715 11.1654 4.57715ZM21.8808 11.001C22.5567 11.001 23.1047 10.453 23.1047 9.77705C23.1047 9.10109 22.5567 8.5531 21.8808 8.5531C21.2047 8.5531 20.6567 9.10109 20.6567 9.77705C20.6567 10.453 21.2047 11.001 21.8808 11.001ZM16.0626 10.085C13.0206 10.085 10.5546 12.5509 10.5546 15.5928C10.5546 18.6347 13.0206 21.1006 16.0626 21.1006C19.1045 21.1006 21.5706 18.6347 21.5706 15.5928C21.5738 14.131 20.9945 12.7282 19.961 11.6946C18.9272 10.661 17.5244 10.0817 16.0626 10.085ZM12.6965 15.5909C12.6965 17.4499 14.2035 18.9568 16.0625 18.9568C17.9214 18.9568 19.4284 17.4499 19.4284 15.5909C19.4284 13.7319 17.9214 12.225 16.0625 12.225C14.2035 12.225 12.6965 13.7319 12.6965 15.5909Z" fill="white"/>
</svg>
