<svg width="19" height="19" viewBox="0 0 19 19" fill="none" xmlns="http://www.w3.org/2000/svg">
<g clip-path="url(#clip0_21_1495)">
<path d="M9.42498 12.8C9.54498 12.8 9.63498 12.77 9.69498 12.71C9.75498 12.65 9.78498 12.56 9.78498 12.44V10.82C9.78498 10.66 9.72498 10.55 9.60498 10.49C9.48498 10.43 9.36498 10.43 9.24498 10.49C9.12498 10.55 9.06498 10.66 9.06498 10.82V12.44C9.06498 12.56 9.10498 12.65 9.18498 12.71C9.26498 12.77 9.34498 12.8 9.42498 12.8ZM9.42498 5.42C9.54498 5.42 9.63498 5.39 9.69498 5.33C9.75498 5.27 9.78498 5.2 9.78498 5.12V3.44C9.78498 3.32 9.72498 3.23 9.60498 3.17C9.48498 3.11 9.36498 3.11 9.24498 3.17C9.12498 3.23 9.06498 3.32 9.06498 3.44V5.12C9.06498 5.2 9.10498 5.27 9.18498 5.33C9.26498 5.39 9.34498 5.42 9.42498 5.42ZM9.42498 9.14C9.54498 9.14 9.63498 9.1 9.69498 9.02C9.75498 8.94 9.78498 8.86 9.78498 8.78V7.16C9.78498 7.04 9.75498 6.95 9.69498 6.89C9.63498 6.83 9.55498 6.8 9.45498 6.8C9.35498 6.8 9.26498 6.83 9.18498 6.89C9.10498 6.95 9.06498 7.04 9.06498 7.16V8.78C9.06498 8.86 9.10498 8.94 9.18498 9.02C9.26498 9.1 9.34498 9.14 9.42498 9.14ZM11.885 5.42C11.965 5.42 12.045 5.39 12.125 5.33C12.205 5.27 12.245 5.2 12.245 5.12V3.44C12.245 3.36 12.205 3.28 12.125 3.2C12.045 3.12 11.965 3.08 11.885 3.08C11.805 3.08 11.725 3.12 11.645 3.2C11.565 3.28 11.525 3.36 11.525 3.44V5.12C11.525 5.2 11.565 5.27 11.645 5.33C11.725 5.39 11.805 5.42 11.885 5.42ZM11.885 9.14C11.965 9.14 12.045 9.1 12.125 9.02C12.205 8.94 12.245 8.86 12.245 8.78V7.16C12.245 7.04 12.205 6.95 12.125 6.89C12.045 6.83 11.965 6.8 11.885 6.8C11.805 6.8 11.725 6.83 11.645 6.89C11.565 6.95 11.525 7.04 11.525 7.16V8.78C11.525 8.86 11.565 8.94 11.645 9.02C11.725 9.1 11.805 9.14 11.885 9.14ZM11.885 12.8C11.965 12.8 12.045 12.77 12.125 12.71C12.205 12.65 12.245 12.56 12.245 12.44V10.82C12.245 10.7 12.205 10.61 12.125 10.55C12.045 10.49 11.965 10.46 11.885 10.46C11.805 10.46 11.725 10.49 11.645 10.55C11.565 10.61 11.525 10.7 11.525 10.82V12.44C11.525 12.56 11.565 12.65 11.645 12.71C11.725 12.77 11.805 12.8 11.885 12.8ZM15.965 14.12H16.265C16.345 14.12 16.415 14.09 16.475 14.03C16.535 13.97 16.565 13.89 16.565 13.79C16.565 13.69 16.535 13.61 16.475 13.55C16.415 13.49 16.345 13.46 16.265 13.46H15.965C15.845 13.46 15.755 13.49 15.695 13.55C15.635 13.61 15.605 13.69 15.605 13.79C15.605 13.89 15.635 13.97 15.695 14.03C15.755 14.09 15.845 14.12 15.965 14.12ZM15.965 12.14H16.265C16.345 12.14 16.415 12.11 16.475 12.05C16.535 11.99 16.565 11.91 16.565 11.81C16.565 11.71 16.535 11.62 16.475 11.54C16.415 11.46 16.345 11.42 16.265 11.42H15.965C15.845 11.42 15.755 11.46 15.695 11.54C15.635 11.62 15.605 11.71 15.605 11.81C15.605 11.91 15.635 11.99 15.695 12.05C15.755 12.11 15.845 12.14 15.965 12.14ZM15.965 16.1H16.265C16.345 16.1 16.415 16.06 16.475 15.98C16.535 15.9 16.565 15.82 16.565 15.74C16.565 15.66 16.535 15.58 16.475 15.5C16.415 15.42 16.345 15.38 16.265 15.38H15.965C15.845 15.38 15.755 15.42 15.695 15.5C15.635 15.58 15.605 15.66 15.605 15.74C15.605 15.82 15.635 15.9 15.695 15.98C15.755 16.06 15.845 16.1 15.965 16.1ZM5.28498 10.16H5.58498C5.66498 10.16 5.73498 10.13 5.79498 10.07C5.85498 10.01 5.88498 9.93 5.88498 9.83C5.88498 9.73 5.85498 9.65 5.79498 9.59C5.73498 9.53 5.66498 9.5 5.58498 9.5H5.28498C5.16498 9.5 5.07498 9.53 5.01498 9.59C4.95498 9.65 4.92498 9.73 4.92498 9.83C4.92498 9.93 4.95498 10.01 5.01498 10.07C5.07498 10.13 5.16498 10.16 5.28498 10.16ZM5.28498 8.18H5.58498C5.66498 8.18 5.73498 8.15 5.79498 8.09C5.85498 8.03 5.88498 7.95 5.88498 7.85C5.88498 7.75 5.85498 7.67 5.79498 7.61C5.73498 7.55 5.66498 7.52 5.58498 7.52H5.28498C5.16498 7.52 5.07498 7.55 5.01498 7.61C4.95498 7.67 4.92498 7.75 4.92498 7.85C4.92498 7.95 4.95498 8.03 5.01498 8.09C5.07498 8.15 5.16498 8.18 5.28498 8.18ZM5.28498 12.14H5.58498C5.66498 12.14 5.73498 12.11 5.79498 12.05C5.85498 11.99 5.88498 11.91 5.88498 11.81C5.88498 11.71 5.85498 11.62 5.79498 11.54C5.73498 11.46 5.66498 11.42 5.58498 11.42H5.28498C5.12498 11.42 5.01498 11.48 4.95498 11.6C4.89498 11.72 4.89498 11.84 4.95498 11.96C5.01498 12.08 5.12498 12.14 5.28498 12.14ZM17.885 8.6H14.645V1.16C14.645 1.04 14.615 0.950003 14.555 0.890003C14.495 0.830004 14.405 0.800003 14.285 0.800003H7.02498C6.94498 0.800003 6.86498 0.840002 6.78498 0.920002C6.70498 1 6.66498 1.08 6.66498 1.16V5.48H3.78498C3.70498 5.48 3.62498 5.51 3.54498 5.57C3.46498 5.63 3.42498 5.72 3.42498 5.84V10.1C3.42498 10.22 3.46498 10.31 3.54498 10.37C3.62498 10.43 3.71498 10.46 3.81498 10.46C3.91498 10.46 3.99498 10.43 4.05498 10.37C4.11498 10.31 4.14498 10.22 4.14498 10.1V6.14H6.66498V17.72H4.14498C4.02498 17.72 3.93498 17.76 3.87498 17.84C3.81498 17.92 3.78498 18.01 3.78498 18.11C3.78498 18.21 3.81498 18.29 3.87498 18.35C3.93498 18.41 4.02498 18.44 4.14498 18.44H16.685C17.125 18.44 17.495 18.29 17.795 17.99C18.095 17.69 18.245 17.34 18.245 16.94V8.96C18.245 8.88 18.205 8.8 18.125 8.72C18.045 8.64 17.965 8.6 17.885 8.6ZM9.78498 17.72V15.02H11.525V17.72H9.78498ZM13.925 17.72H12.245V14.66C12.245 14.54 12.205 14.45 12.125 14.39C12.045 14.33 11.965 14.3 11.885 14.3H9.42498C9.34498 14.3 9.26498 14.33 9.18498 14.39C9.10498 14.45 9.06498 14.54 9.06498 14.66V17.72H7.38498V1.46H13.925V17.72ZM17.525 16.94C17.525 17.14 17.445 17.33 17.285 17.51C17.125 17.69 16.925 17.78 16.685 17.78H14.645V9.32H17.525V16.94ZM4.74498 13.64C4.74498 13.04 4.44498 12.46 3.84498 11.9C3.52498 11.58 3.18498 11.32 2.82498 11.12C2.74498 11.08 2.64498 11.08 2.52498 11.12C2.20498 11.32 1.86498 11.58 1.50498 11.9C0.90498 12.46 0.60498 13.05 0.60498 13.67C0.60498 14.29 0.76498 14.84 1.08498 15.32C1.40498 15.8 1.82498 16.08 2.34498 16.16V18.08C2.34498 18.2 2.37498 18.29 2.43498 18.35C2.49498 18.41 2.57498 18.44 2.67498 18.44C2.77498 18.44 2.85498 18.41 2.91498 18.35C2.97498 18.29 3.00498 18.2 3.00498 18.08V16.16C3.52498 16.08 3.94498 15.8 4.26498 15.32C4.58498 14.84 4.74498 14.28 4.74498 13.64ZM1.26498 13.64C1.26498 13.32 1.44498 12.96 1.80498 12.56C2.04498 12.32 2.34498 12.08 2.70498 11.84C3.02498 12.08 3.30498 12.32 3.54498 12.56C3.90498 12.96 4.08498 13.32 4.08498 13.64C4.08498 14.08 3.98498 14.47 3.78498 14.81C3.58498 15.15 3.32498 15.36 3.00498 15.44V14.66C3.00498 14.54 2.97498 14.45 2.91498 14.39C2.85498 14.33 2.77498 14.3 2.67498 14.3C2.57498 14.3 2.49498 14.33 2.43498 14.39C2.37498 14.45 2.34498 14.54 2.34498 14.66V15.44C2.02498 15.36 1.76498 15.15 1.56498 14.81C1.36498 14.47 1.26498 14.08 1.26498 13.64Z" fill="#0056A6"/>
</g>
<defs>
<clipPath id="clip0_21_1495">
<rect width="18" height="18" fill="white" transform="matrix(1 0 0 -1 0.36499 18.5)"/>
</clipPath>
</defs>
</svg>
