<svg width="60" height="61" viewBox="0 0 60 61" fill="none" xmlns="http://www.w3.org/2000/svg">
<path d="M16.6812 49.8621C13.4114 49.8621 10.7956 48.6632 8.83379 46.2654C6.9446 43.7949 6 40.8884 6 37.546C6 34.7849 6.50863 32.2054 7.52589 29.8076C8.54314 27.4098 9.81471 25.2299 11.3406 23.2681C12.9391 21.3062 14.6104 19.5987 16.3542 18.1455C18.1708 16.6196 19.842 15.348 21.3678 14.3308C22.8937 13.2408 24.129 12.4416 25.0736 11.9329C26.0908 11.4243 26.5631 11.17 26.4905 11.17L28.9973 14.5487C28.3433 14.8394 27.4714 15.4207 26.3815 16.2926C25.2916 17.0919 24.2016 18.0728 23.1117 19.2354C22.0945 20.398 21.1862 21.6695 20.3869 23.0501C19.5876 24.358 19.188 25.6296 19.188 26.8648C19.188 27.5914 19.624 28.318 20.4959 29.0447C21.3678 29.6986 22.3124 30.4979 23.3297 31.4425C24.347 32.3144 25.2916 33.4043 26.1635 34.7122C27.0354 35.9475 27.4714 37.4734 27.4714 39.2899C27.4714 40.8884 27.1444 42.3417 26.4905 43.6496C25.9092 44.9575 25.1099 46.0837 24.0926 47.0283C23.148 47.9002 22.0218 48.5905 20.7139 49.0992C19.406 49.6078 18.0618 49.8621 16.6812 49.8621ZM43.4932 50.0801C41.822 50.0801 40.2961 49.7168 38.9155 48.9902C37.535 48.2635 36.3361 47.2826 35.3188 46.0474C34.3015 44.8121 33.5023 43.3952 32.921 41.7967C32.4124 40.1255 32.158 38.3453 32.158 36.4561C32.158 32.6777 32.9573 29.19 34.5559 25.9929C36.2271 22.7231 38.0436 19.9257 40.0055 17.6005C42.3306 14.8394 44.9827 12.3326 47.9619 10.0801L51.1226 13.0229C50.4687 13.4588 49.6694 14.1491 48.7248 15.0937C47.8529 16.0383 47.0173 17.1645 46.218 18.4724C45.4914 19.7077 44.8374 21.0156 44.2561 22.3962C43.7475 23.7767 43.4932 25.1209 43.4932 26.4289C43.4932 27.3008 44.0381 28.0274 45.1281 28.6087C46.218 29.19 47.4169 29.9166 48.7248 30.7885C50.0327 31.6605 51.2316 32.7867 52.3215 34.1673C53.4114 35.4752 53.9564 37.328 53.9564 39.7259C53.9564 41.1791 53.6658 42.5233 53.0845 43.7586C52.5032 44.9938 51.7039 46.0837 50.6866 47.0283C49.7421 47.9729 48.6158 48.7358 47.3079 49.3171C46.0727 49.8258 44.8011 50.0801 43.4932 50.0801Z" fill="#77D1DE"/>
</svg>
