<svg width="60" height="60" viewBox="0 0 60 60" fill="none" xmlns="http://www.w3.org/2000/svg">
<rect x="0.652344" y="20.8695" width="39.1304" height="39.1304" rx="19.5652" fill="#77D1DE"/>
<path d="M54.0002 42.3913H51.6523V30C51.6523 29.826 51.5871 29.6521 51.4567 29.4782C51.3263 29.3043 51.1523 29.2174 50.935 29.2174C50.7176 29.2174 50.5219 29.3043 50.348 29.4782C50.1741 29.6521 50.0871 29.826 50.0871 30V42.3913H44.6089V36C44.6089 35.826 44.5436 35.6521 44.4132 35.4782C44.2828 35.3043 44.0871 35.2174 43.8263 35.2174H38.8697C38.6958 35.2174 38.5219 35.3043 38.348 35.4782C38.1741 35.6521 38.0871 35.826 38.0871 36V42.3913H32.7393V10.9565H50.0871V23.2174C50.0871 23.4782 50.1741 23.6739 50.348 23.8043C50.5219 23.9347 50.7176 24 50.935 24C51.1523 24 51.3263 23.9347 51.4567 23.8043C51.5871 23.6739 51.6523 23.4782 51.6523 23.2174V10.1739C51.6523 9.91301 51.5871 9.71735 51.4567 9.58692C51.3263 9.45649 51.1306 9.39127 50.8697 9.39127H49.0436V7.17388C49.0436 6.99996 48.9567 6.84779 48.7828 6.71735C48.6089 6.58692 48.435 6.5217 48.261 6.5217H34.8263C34.6523 6.5217 34.4784 6.58692 34.3045 6.71735C34.1306 6.84779 34.0436 6.99996 34.0436 7.17388V9.39127H31.9567C31.7828 9.39127 31.6306 9.45649 31.5002 9.58692C31.3697 9.71735 31.3045 9.91301 31.3045 10.1739V22.0434H25.3045V19.6956C25.3045 19.4347 25.2176 19.2391 25.0436 19.1087C24.8697 18.9782 24.6958 18.913 24.5219 18.913H19.1741C19.0002 18.913 18.8263 18.9782 18.6523 19.1087C18.4784 19.2391 18.3915 19.4347 18.3915 19.6956V42.3913H16.435C16.1741 42.3913 15.9784 42.4565 15.848 42.5869C15.7176 42.7174 15.6523 42.8913 15.6523 43.1087C15.6523 43.326 15.7176 43.5 15.848 43.6304C15.9784 43.7608 16.1741 43.826 16.435 43.826H54.0002C54.261 43.826 54.4567 43.7608 54.5871 43.6304C54.7176 43.5 54.7828 43.326 54.7828 43.1087C54.7828 42.8913 54.7176 42.7174 54.5871 42.5869C54.4567 42.4565 54.261 42.3913 54.0002 42.3913ZM35.6089 7.95649H47.4784V9.39127H35.6089V7.95649ZM19.9567 20.4782H23.7393V22.0434H19.9567V20.4782ZM26.4784 42.3913H24.6523V39.6521H26.4784V42.3913ZM31.3045 42.3913H28.0436V38.8695C28.0436 38.6956 27.9567 38.5217 27.7828 38.3478C27.6089 38.1739 27.435 38.0869 27.261 38.0869H23.8697C23.6958 38.0869 23.5219 38.1739 23.348 38.3478C23.1741 38.5217 23.0871 38.6956 23.0871 38.8695V42.3913H19.9567V23.6087H31.3045V42.3913ZM43.1741 42.3913H39.6523V36.7826H43.1741V42.3913ZM51.5219 26.3478C51.348 26 51.0871 25.8695 50.7393 25.9565C50.3915 26.0434 50.1958 26.2608 50.1523 26.6087C50.1089 26.9565 50.2393 27.2174 50.5436 27.3913C50.848 27.5652 51.1089 27.5652 51.3263 27.3913C51.5436 27.2174 51.6523 27.0434 51.6523 26.8695C51.6523 26.6956 51.6089 26.5217 51.5219 26.3478ZM40.1741 14.3478C40.1741 14.1739 40.0871 14.0217 39.9132 13.8913C39.7393 13.7608 39.5654 13.6956 39.3915 13.6956H36.1306C35.9567 13.6956 35.7828 13.7608 35.6089 13.8913C35.435 14.0217 35.348 14.1739 35.348 14.3478V17.6087C35.348 17.8695 35.435 18.0652 35.6089 18.1956C35.7828 18.326 35.9567 18.3913 36.1306 18.3913H39.3915C39.5654 18.3913 39.7393 18.326 39.9132 18.1956C40.0871 18.0652 40.1741 17.8695 40.1741 17.6087V14.3478ZM38.6089 16.826H36.9132V15.1304H38.6089V16.826ZM47.348 14.3478C47.348 14.1739 47.261 14.0217 47.0871 13.8913C46.9132 13.7608 46.7393 13.6956 46.5654 13.6956H43.3045C43.1306 13.6956 42.9567 13.7608 42.7828 13.8913C42.6089 14.0217 42.5219 14.1739 42.5219 14.3478V17.6087C42.5219 17.8695 42.6089 18.0652 42.7828 18.1956C42.9567 18.326 43.1306 18.3913 43.3045 18.3913H46.5654C46.7393 18.3913 46.9132 18.326 47.0871 18.1956C47.261 18.0652 47.348 17.8695 47.348 17.6087V14.3478ZM45.7828 16.826H44.0871V15.1304H45.7828V16.826ZM40.1741 21.1304C40.1741 20.8695 40.0871 20.6739 39.9132 20.5434C39.7393 20.413 39.5654 20.3478 39.3915 20.3478H36.1306C35.9567 20.3478 35.7828 20.413 35.6089 20.5434C35.435 20.6739 35.348 20.8695 35.348 21.1304V24.2608C35.348 24.5217 35.435 24.7174 35.6089 24.8478C35.7828 24.9782 35.9567 25.0434 36.1306 25.0434H39.3915C39.5654 25.0434 39.7393 24.9782 39.9132 24.8478C40.0871 24.7174 40.1741 24.5217 40.1741 24.2608V21.1304ZM38.6089 23.6087H36.9132V21.913H38.6089V23.6087ZM47.348 21.1304C47.348 20.8695 47.261 20.6739 47.0871 20.5434C46.9132 20.413 46.7393 20.3478 46.5654 20.3478H43.3045C43.1306 20.3478 42.9567 20.413 42.7828 20.5434C42.6089 20.6739 42.5219 20.8695 42.5219 21.1304V24.2608C42.5219 24.5217 42.6089 24.7174 42.7828 24.8478C42.9567 24.9782 43.1306 25.0434 43.3045 25.0434H46.5654C46.7393 25.0434 46.9132 24.9782 47.0871 24.8478C47.261 24.7174 47.348 24.5217 47.348 24.2608V21.1304ZM45.7828 23.6087H44.0871V21.913H45.7828V23.6087ZM39.3915 27H36.1306C35.9567 27 35.7828 27.0652 35.6089 27.1956C35.435 27.326 35.348 27.5217 35.348 27.7826V31.0434C35.348 31.2174 35.435 31.3913 35.6089 31.5652C35.7828 31.7391 35.9567 31.826 36.1306 31.826H39.3915C39.5654 31.826 39.7393 31.7391 39.9132 31.5652C40.0871 31.3913 40.1741 31.2174 40.1741 31.0434V27.7826C40.1741 27.5217 40.0871 27.326 39.9132 27.1956C39.7393 27.0652 39.5654 27 39.3915 27ZM38.6089 30.2608H36.9132V28.5652H38.6089V30.2608ZM46.5654 27H43.3045C43.1306 27 42.9567 27.0652 42.7828 27.1956C42.6089 27.326 42.5219 27.5217 42.5219 27.7826V31.0434C42.5219 31.2174 42.6089 31.3913 42.7828 31.5652C42.9567 31.7391 43.1306 31.826 43.3045 31.826H46.5654C46.7393 31.826 46.9132 31.7391 47.0871 31.5652C47.261 31.3913 47.348 31.2174 47.348 31.0434V27.7826C47.348 27.5217 47.261 27.326 47.0871 27.1956C46.9132 27.0652 46.7393 27 46.5654 27ZM45.7828 30.2608H44.0871V28.5652H45.7828V30.2608ZM22.435 25.3043C22.261 25.3043 22.0871 25.3913 21.9132 25.5652C21.7393 25.7391 21.6523 25.913 21.6523 26.0869V35.7391C21.6523 35.913 21.7393 36.0869 21.9132 36.2608C22.0871 36.4347 22.261 36.5217 22.435 36.5217C22.6089 36.5217 22.7828 36.4347 22.9567 36.2608C23.1306 36.0869 23.2176 35.913 23.2176 35.7391V26.0869C23.2176 25.913 23.1306 25.7391 22.9567 25.5652C22.7828 25.3913 22.6089 25.3043 22.435 25.3043ZM25.5654 36.5217C25.7393 36.5217 25.9132 36.4347 26.0871 36.2608C26.261 36.0869 26.348 35.913 26.348 35.7391V26.0869C26.348 25.913 26.261 25.7391 26.0871 25.5652C25.9132 25.3913 25.7393 25.3043 25.5654 25.3043C25.3915 25.3043 25.2176 25.3913 25.0436 25.5652C24.8697 25.7391 24.7828 25.913 24.7828 26.0869V35.7391C24.7828 35.913 24.8697 36.0869 25.0436 36.2608C25.2176 36.4347 25.3915 36.5217 25.5654 36.5217ZM28.6958 36.5217C28.8697 36.5217 29.0436 36.4347 29.2176 36.2608C29.3915 36.0869 29.4784 35.913 29.4784 35.7391V26.0869C29.4784 25.913 29.3915 25.7391 29.2176 25.5652C29.0436 25.3913 28.8697 25.3043 28.6958 25.3043C28.5219 25.3043 28.348 25.3913 28.1741 25.5652C28.0002 25.7391 27.9132 25.913 27.9132 26.0869V35.7391C27.9132 35.913 28.0002 36.0869 28.1741 36.2608C28.348 36.4347 28.5219 36.5217 28.6958 36.5217Z" fill="#222222"/>
</svg>
