<svg width="45" height="35" viewBox="0 0 45 35" fill="none" xmlns="http://www.w3.org/2000/svg">
<g clip-path="url(#clip0_212_3983)">
<path d="M4.79729 24.7307C4.23805 23.3637 3.70366 22.0837 3.15685 20.7539C2.89588 20.7539 2.54791 20.7539 2.21236 20.7539C0.982041 20.7539 0.0996879 19.9586 0.0499778 18.7407C0.000267807 17.7216 0.000267807 16.6901 0.0499778 15.6711C0.112115 14.4656 0.982041 13.6951 2.18751 13.6827C3.23142 13.6827 3.19414 13.6702 3.56696 12.676C3.92736 11.7067 4.36232 10.7746 4.82214 9.70587C4.6233 9.53189 4.33747 9.29576 4.07649 9.03479C3.20656 8.14 3.20656 6.93454 4.07649 6.03976C4.73515 5.35624 5.40623 4.69759 6.07732 4.03893C6.98453 3.14415 8.17757 3.15657 9.0972 4.05135C9.84285 4.77215 9.83043 4.7473 10.7873 4.31233C11.6324 3.92708 12.5023 3.61639 13.3723 3.3057C13.6332 3.21871 13.7202 3.11929 13.7078 2.85831C13.6954 2.49792 13.6954 2.14995 13.7327 1.78955C13.8445 0.782921 14.6523 0.0248432 15.6714 0.0124157C16.6904 -0.0124393 17.7219 -0.0124393 18.7409 0.0124157C19.8967 0.0372707 20.7418 0.869913 20.8039 2.0381C20.8288 2.42335 20.7045 2.90802 20.8909 3.169C21.0773 3.41755 21.5868 3.41755 21.9472 3.56668C22.6556 3.86494 23.3764 4.1632 24.0723 4.49875C24.6316 4.75972 24.6813 5.00827 24.383 5.53023C23.538 6.99667 22.6929 8.45069 21.8602 9.91714C21.562 10.4267 21.3756 10.4764 20.8412 10.2154C17.8586 8.74895 14.4907 9.14663 12.0549 11.3587C9.66887 13.5211 8.83622 16.2676 9.70615 19.3745C10.5636 22.4316 12.6639 24.3082 15.7832 24.9793C17.5106 25.3521 19.1635 25.0787 20.7542 24.3206C21.3134 24.0596 21.4626 24.0969 21.7608 24.6313C22.6059 26.0853 23.451 27.5518 24.2836 29.0182C24.5819 29.5402 24.5322 29.7887 23.9729 30.0373C23.103 30.4225 22.2082 30.7953 21.3134 31.106C20.9158 31.2427 20.7791 31.4043 20.8039 31.8144C20.8288 32.1624 20.8039 32.5352 20.7418 32.8707C20.5554 33.8028 19.7849 34.449 18.8279 34.4615C17.784 34.4863 16.7525 34.4863 15.7086 34.4615C14.6399 34.4366 13.8445 33.6785 13.7327 32.6098C13.7202 32.5352 13.7202 32.4606 13.7078 32.3736C13.683 32.0008 13.7948 31.5534 13.6084 31.2924C13.4468 31.0563 12.9622 31.0688 12.639 30.9321C11.8188 30.5841 10.9862 30.2361 10.1908 29.8384C9.91742 29.7017 9.75586 29.7017 9.55702 29.9378C9.38303 30.1367 9.19662 30.3231 8.99778 30.4971C8.15271 31.28 6.9721 31.2924 6.13946 30.5095C5.39381 29.8011 4.67301 29.0804 3.96464 28.3347C3.19414 27.5145 3.20656 26.3463 3.95221 25.5137C4.2629 25.203 4.57359 24.942 4.79729 24.7307ZM21.0028 25.377C16.0815 27.4151 11.881 25.0787 10.0044 22.4316C7.8296 19.3745 7.77989 15.2237 9.94227 12.1168C11.0235 10.5758 12.4526 9.46975 14.2173 8.83595C16.5413 7.99087 18.8279 8.14001 21.0897 9.13421C21.8354 7.84174 22.5686 6.57414 23.3143 5.26925C23.016 5.13255 22.7799 4.98342 22.5189 4.89643C21.8105 4.64788 21.0897 4.39932 20.3565 4.20048C19.934 4.07621 19.7227 3.85251 19.7351 3.41755C19.7476 2.97016 19.7476 2.52277 19.7351 2.06295C19.7103 1.45401 19.325 1.0439 18.7037 1.0439C17.7467 1.03147 16.7774 1.03147 15.8205 1.0439C15.1867 1.05633 14.789 1.46643 14.7766 2.10024C14.7641 2.56005 14.7641 3.0323 14.7766 3.49212C14.789 3.86494 14.615 4.08864 14.267 4.1632C12.7882 4.49874 11.4211 5.08284 10.1287 5.8782C9.84285 6.05218 9.58187 6.02733 9.33332 5.77878C9.02264 5.45566 8.69952 5.13255 8.37641 4.82186C7.85445 4.31233 7.29521 4.31233 6.78569 4.80943C6.13946 5.45566 5.49323 6.10189 4.847 6.76055C4.33747 7.28251 4.3499 7.81689 4.85942 8.35127C5.17011 8.67439 5.49323 8.9975 5.81634 9.30819C6.06489 9.54431 6.1146 9.80529 5.92819 10.1036C5.1204 11.3836 4.54874 12.763 4.20076 14.2419C4.11377 14.6147 3.89008 14.7514 3.52968 14.739C3.08229 14.7266 2.6349 14.7266 2.17508 14.739C1.46671 14.7639 1.09389 15.1491 1.08146 15.8451C1.06903 16.7647 1.06903 17.6719 1.08146 18.5915C1.08146 19.3372 1.46671 19.7224 2.23722 19.7349C2.65975 19.7473 3.06986 19.7473 3.4924 19.7349C3.9025 19.7224 4.11377 19.8964 4.21319 20.2941C4.54874 21.7357 5.10797 23.0903 5.90333 24.3455C6.10217 24.6562 6.06489 24.9171 5.80391 25.1781C5.45594 25.5137 5.10797 25.8492 4.78486 26.1972C4.36232 26.657 4.3499 27.2038 4.78486 27.6512C5.45594 28.3471 6.12703 29.0182 6.82297 29.6893C7.29521 30.1491 7.86688 30.1243 8.35155 29.6644C8.66224 29.3662 8.97293 29.0555 9.27119 28.7448C9.54459 28.4466 9.83043 28.4093 10.1784 28.6205C11.4336 29.4035 12.7882 29.9751 14.2298 30.2982C14.5902 30.3852 14.7766 30.5965 14.7766 30.9942C14.7641 31.454 14.7641 31.9263 14.7766 32.3861C14.789 32.995 15.1743 33.4175 15.7956 33.43C16.7774 33.4548 17.7467 33.4548 18.7285 33.43C19.3375 33.4175 19.7227 33.0074 19.7351 32.3861C19.7476 31.9884 19.7351 31.5783 19.7351 31.1806C19.7351 30.5219 19.8221 30.4474 20.4559 30.261C21.3756 29.9751 22.2828 29.652 23.2521 29.3165C22.4692 27.9122 21.736 26.657 21.0028 25.377Z" fill="white"/>
<path d="M34.9217 9.9917C34.9217 9.64373 34.9093 9.37032 34.9217 9.09692C34.9341 8.71166 35.133 8.5004 35.5306 8.5004C36.4751 8.5004 37.4196 8.5004 38.3641 8.5004C38.7618 8.5004 38.9731 8.68681 38.9855 9.08449C38.9855 10.0414 38.9855 11.0108 38.9855 11.9677C38.9855 12.3902 38.7494 12.5766 38.3393 12.5766C37.4196 12.5766 36.5124 12.5766 35.5928 12.5766C35.1081 12.5766 34.9341 12.3902 34.9093 11.8931C34.8968 11.6446 34.8968 11.396 34.8844 11.1475C34.8844 11.135 34.8596 11.1226 34.8098 11.0605C33.5919 11.0605 32.3243 11.0605 31.0567 11.0729C30.9697 11.0729 30.8455 11.1847 30.7833 11.2717C29.7643 13.024 28.7576 14.7887 27.7386 16.541C27.7262 16.5658 27.7386 16.6031 27.7386 16.6528C32.1131 16.6528 36.4876 16.6528 40.9118 16.6528C40.9118 16.3422 40.9118 16.0439 40.9118 15.7581C40.9118 15.3728 41.123 15.1864 41.4958 15.1864C42.4528 15.1864 43.4221 15.1864 44.379 15.1864C44.7519 15.1864 44.9755 15.3977 44.988 15.7456C45.0004 16.7274 45.0004 17.6968 44.988 18.6785C44.988 19.0638 44.7518 19.2626 44.3542 19.2626C43.4221 19.2626 42.49 19.2626 41.558 19.2626C41.0857 19.2626 40.9242 19.0886 40.9118 18.6164C40.9118 18.3554 40.9118 18.0944 40.9118 17.7962C36.4627 17.7962 32.0385 17.7962 27.577 17.7962C27.6516 17.9453 27.7137 18.0696 27.7759 18.1939C28.7452 19.884 29.727 21.5741 30.6963 23.2643C30.8455 23.5128 30.9946 23.6371 31.3053 23.6371C32.5356 23.6122 33.7535 23.6247 34.9838 23.6247C35.1205 23.6247 35.2572 23.6122 35.4312 23.5998C35.4312 23.3016 35.4436 23.0282 35.4312 22.7423C35.4188 22.3446 35.6176 22.1085 36.0029 22.0961C36.9847 22.0712 37.954 22.0712 38.9358 22.0961C39.321 22.1085 39.5199 22.3446 39.5199 22.7299C39.5199 23.662 39.5199 24.594 39.5199 25.5261C39.5199 25.9859 39.3335 26.1599 38.8612 26.1599C37.9416 26.1723 37.0344 26.1599 36.1147 26.1599C35.6052 26.1599 35.4436 25.9983 35.4436 25.5012C35.4436 25.2402 35.4436 24.9793 35.4436 24.6562C34.8844 24.6562 34.3625 24.6562 33.8405 24.6562C32.8463 24.6562 31.8521 24.6437 30.8579 24.6686C30.4478 24.681 30.2117 24.5195 30.0128 24.1715C28.8695 22.1582 27.6889 20.1574 26.5456 18.1317C26.384 17.8459 26.21 17.7465 25.8869 17.7465C21.5497 17.7589 17.2001 17.7589 12.8629 17.7589C12.751 17.7589 12.6516 17.7589 12.5398 17.7589C12.0302 17.7465 11.7692 17.5725 11.7817 17.2121C11.7817 16.8641 12.0427 16.6777 12.5522 16.6777C17.0137 16.6777 21.4876 16.6777 25.949 16.6901C26.3219 16.6901 26.5207 16.5658 26.7071 16.2427C27.7883 14.3289 28.9068 12.4399 29.988 10.5261C30.2117 10.1284 30.4851 9.95441 30.9573 9.96684C32.2498 10.0041 33.5547 9.9917 34.9217 9.9917ZM37.9416 9.56916C37.2581 9.56916 36.6367 9.56916 36.0153 9.56916C36.0153 10.2278 36.0153 10.8368 36.0153 11.4706C36.674 11.4706 37.3078 11.4706 37.9416 11.4706C37.9416 10.8119 37.9416 10.203 37.9416 9.56916ZM41.9681 18.1939C42.6267 18.1939 43.2605 18.1939 43.8944 18.1939C43.8944 17.5352 43.8944 16.9138 43.8944 16.2676C43.2357 16.2676 42.6143 16.2676 41.9681 16.2676C41.9681 16.9138 41.9681 17.5228 41.9681 18.1939ZM38.4387 23.2021C37.7676 23.2021 37.1462 23.2021 36.5248 23.2021C36.5248 23.8608 36.5248 24.4822 36.5248 25.116C37.1835 25.116 37.7924 25.116 38.4387 25.116C38.4387 24.4822 38.4387 23.8484 38.4387 23.2021Z" fill="white"/>
<path d="M40.9241 5.94035C40.7128 5.94035 40.5388 5.94035 40.3772 5.94035C36.388 5.94035 32.4112 5.94035 28.422 5.92792C28.0616 5.92792 27.8752 6.03977 27.7012 6.35045C26.2347 8.93537 24.731 11.4954 23.2521 14.0804C23.0409 14.4656 22.7923 14.6272 22.3325 14.6272C19.5612 14.6023 16.7774 14.6147 14.0061 14.6147C13.8818 14.6147 13.7202 14.6645 13.6457 14.6023C13.4717 14.4656 13.2356 14.2668 13.2231 14.0928C13.2231 13.9312 13.4593 13.72 13.6333 13.5957C13.7451 13.5211 13.9315 13.5708 14.0931 13.5708C16.678 13.5708 19.2753 13.5584 21.8603 13.5833C22.1958 13.5833 22.3822 13.4838 22.5562 13.1856C24.0351 10.6007 25.5264 8.04059 26.9928 5.45567C27.2414 5.02071 27.5272 4.85915 28.0243 4.85915C32.113 4.88401 36.214 4.87158 40.3027 4.87158C40.4891 4.87158 40.6631 4.87158 40.9116 4.87158C40.9116 4.54847 40.9116 4.2502 40.9116 3.96437C40.9116 3.59155 41.0856 3.38028 41.4709 3.38028C42.4526 3.38028 43.422 3.38028 44.4038 3.38028C44.789 3.38028 44.9754 3.60397 44.9879 3.96437C45.0003 4.92129 45.0003 5.89064 44.9879 6.84755C44.9879 7.25766 44.7393 7.46893 44.3292 7.46893C43.4096 7.46893 42.5023 7.46893 41.5827 7.46893C41.0856 7.46893 40.9241 7.28252 40.9116 6.79784C40.9241 6.51201 40.9241 6.25103 40.9241 5.94035ZM43.8942 6.35045C43.8942 5.70422 43.8942 5.08285 43.8942 4.42419C43.248 4.42419 42.6266 4.42419 41.968 4.42419C41.968 5.07042 41.968 5.70422 41.968 6.35045C42.6266 6.35045 43.248 6.35045 43.8942 6.35045Z" fill="white"/>
<path d="M40.9241 28.7572C40.9241 28.3968 40.9241 28.111 40.9241 27.8128C40.9241 27.4524 41.098 27.2411 41.446 27.2411C42.4402 27.2287 43.4344 27.2287 44.4162 27.2411C44.789 27.2411 44.9879 27.4772 44.9879 27.8376C45.0003 28.7821 45.0003 29.7266 44.9879 30.6711C44.9879 31.0812 44.789 31.3049 44.354 31.2925C43.4096 31.28 42.4651 31.2925 41.5206 31.2925C41.0856 31.2925 40.8992 31.0812 40.9116 30.6587C40.9241 30.3852 40.9116 30.1118 40.9116 29.7887C40.6879 29.7887 40.5015 29.7887 40.3275 29.7887C36.2389 29.7887 32.1502 29.7763 28.0492 29.8012C27.5023 29.8012 27.2165 29.6147 26.9555 29.1549C25.4642 26.5327 23.9481 23.9229 22.4444 21.3132C22.2704 21.0025 22.084 20.8782 21.7236 20.8906C19.1883 20.9031 16.6407 20.9031 14.1055 20.9031C13.9564 20.9031 13.7575 20.9528 13.6457 20.8782C13.4717 20.7539 13.2231 20.5551 13.2231 20.3935C13.2231 20.2195 13.4593 20.0207 13.6333 19.884C13.7078 19.8219 13.8694 19.8716 13.9936 19.8716C16.7401 19.8716 19.4742 19.884 22.2207 19.8592C22.6556 19.8592 22.8917 20.0207 23.103 20.3811C24.6192 23.0406 26.1602 25.6877 27.6888 28.3471C27.8627 28.6578 28.0492 28.807 28.4344 28.7945C32.4112 28.7821 36.4004 28.7821 40.3772 28.7821C40.5512 28.7572 40.7128 28.7572 40.9241 28.7572ZM43.9067 28.3223C43.2356 28.3223 42.6018 28.3223 41.9928 28.3223C41.9928 28.9809 41.9928 29.6023 41.9928 30.2237C42.6515 30.2237 43.2729 30.2237 43.9067 30.2237C43.9067 29.5775 43.9067 28.9685 43.9067 28.3223Z" fill="white"/>
</g>
<defs>
<clipPath id="clip0_212_3983">
<rect width="45" height="34.449" fill="white"/>
</clipPath>
</defs>
</svg>
