<svg width="45" height="45" viewBox="0 0 45 45" fill="none" xmlns="http://www.w3.org/2000/svg">
<g clip-path="url(#clip0_207_2410)">
<path d="M23.2207 36.2544C25.1952 36.2544 27.0969 36.2544 29.035 36.2544C29.3136 33.9529 30.319 32.0511 32.1723 30.646C34.0256 29.2288 36.1211 28.7322 38.4105 29.1319C42.323 29.8223 45.1454 33.323 45 37.393C44.8789 40.9785 41.8506 44.4065 38.2894 44.891C36 45.2059 33.9408 44.7214 32.1117 43.3042C30.3069 41.8991 29.3136 40.0215 29.035 37.7443C27.0969 37.7443 25.1831 37.7443 23.2207 37.7443C23.2207 37.9987 23.2207 38.2288 23.2207 38.4711C23.2086 39.6824 22.2638 40.6272 21.0646 40.6272C17.2005 40.6272 13.3244 40.6272 9.46031 40.6272C8.20055 40.6272 7.26784 39.6824 7.26784 38.4105C7.26784 38.2046 7.26784 37.9865 7.26784 37.7201C6.60162 37.7201 5.94752 37.6958 5.30553 37.7201C2.73756 37.8412 0.436079 35.9758 0.0484614 33.3715C0.0121223 33.1292 9.1996e-06 32.8869 9.1996e-06 32.6447C9.1996e-06 30.7066 9.1996e-06 28.7806 9.1996e-06 26.8425C0.0121223 23.996 2.24092 21.755 5.08749 21.755C8.05519 21.755 11.0108 21.755 13.9785 21.755C14.1359 21.755 14.3055 21.755 14.5114 21.755C14.5114 21.4764 14.5114 21.2463 14.5114 21.004C14.5236 19.8048 15.4684 18.8479 16.6676 18.8479C20.5316 18.8479 24.4078 18.8479 28.2719 18.8479C29.5316 18.8479 30.4522 19.7927 30.4643 21.0646C30.4643 21.2705 30.4643 21.4886 30.4643 21.755C30.6582 21.755 30.8156 21.755 30.9731 21.755C33.8439 21.755 36.7147 21.755 39.5855 21.755C41.996 21.755 43.5222 20.2288 43.5222 17.8183C43.5222 16.3042 43.5222 14.79 43.5222 13.288C43.5222 10.9744 41.9717 9.42396 39.6581 9.42396C39.0283 9.42396 38.3984 9.42396 37.7201 9.42396C37.7201 9.67833 37.7201 9.88425 37.7201 10.0902C37.7201 11.3984 36.7995 12.3311 35.5034 12.3311C31.6635 12.3311 27.8237 12.3311 23.9839 12.3311C22.6878 12.3311 21.7551 11.3984 21.7551 10.1144C21.7551 9.90848 21.7551 9.70256 21.7551 9.4603C20.3136 9.4603 18.8964 9.4603 17.4307 9.4603C17.4307 9.78735 17.4186 10.1023 17.4307 10.4172C17.4549 10.6837 17.3338 10.7927 17.0915 10.8412C16.6676 10.9381 16.2436 11.0592 15.8197 11.1804C15.3836 11.3015 15.2503 11.6285 15.4684 12.0283C15.7349 12.5007 16.0014 12.9731 16.2436 13.4092C15.2867 14.3661 14.354 15.2988 13.3728 16.2799C12.961 16.0498 12.4765 15.7712 11.9919 15.5047C11.5922 15.2867 11.2773 15.4199 11.144 15.856C11.0229 16.2921 10.926 16.7281 10.7685 17.1642C10.7201 17.2853 10.5384 17.4428 10.4172 17.4428C9.2665 17.467 8.11576 17.4549 6.97713 17.4549C6.72275 17.4549 6.63796 17.3459 6.58951 17.1279C6.48049 16.6918 6.35936 16.2557 6.23823 15.8197C6.12921 15.432 5.80216 15.2988 5.45088 15.4926C4.96636 15.7591 4.48184 16.0377 3.96098 16.3284C3.06461 15.432 2.16825 14.5357 1.28399 13.6272C1.21131 13.5545 1.21131 13.3486 1.25977 13.2517C1.46569 12.8398 1.72006 12.4401 1.95021 12.0283C2.16825 11.6406 2.035 11.3257 1.61105 11.2046C1.16286 11.0713 0.702566 10.9744 0.266496 10.817C0.145366 10.7685 9.1996e-06 10.5868 -0.0121039 10.4657C-0.03633 9.31494 -0.03633 8.1642 -0.0121039 7.02557C-0.0121039 6.90444 0.145366 6.71063 0.266496 6.67429C0.702566 6.51682 1.16286 6.41992 1.61105 6.29879C2.01078 6.17766 2.14402 5.86272 1.95021 5.49933C1.72006 5.08748 1.46569 4.69987 1.27188 4.27591C1.21131 4.15478 1.23554 3.91252 1.32033 3.82773C2.13191 2.99192 2.95559 2.16824 3.7914 1.35666C3.87619 1.28398 4.09422 1.25976 4.20324 1.30821C4.6272 1.51413 5.01481 1.76851 5.42666 1.99865C5.82639 2.21669 6.1171 2.08345 6.25035 1.64738C6.43204 1.09018 6.5774 0.5572 6.73487 0C8.00674 0 9.2665 0 10.5141 0.0121131C10.611 0.0121131 10.7685 0.15747 10.8049 0.254374C10.9502 0.702557 11.0592 1.15074 11.1804 1.59892C11.3136 2.04711 11.6285 2.18035 12.0283 1.9502C12.5007 1.68371 12.9731 1.41723 13.4092 1.16285C14.3661 2.11978 15.2988 3.0646 16.2678 4.03365C16.0256 4.4576 15.747 4.94213 15.4805 5.42665C15.2746 5.80215 15.4078 6.11709 15.8197 6.23822C15.8923 6.26245 15.965 6.28668 16.0377 6.3109C16.4617 6.43203 16.9946 6.41992 17.2611 6.69852C17.5034 6.94078 17.4428 7.48587 17.5276 7.93405C18.8964 7.93405 20.3136 7.93405 21.7672 7.93405C21.7672 7.71602 21.7672 7.51009 21.7672 7.29206C21.7672 5.98385 22.6878 5.05114 23.9839 5.05114C27.8237 5.05114 31.6635 5.05114 35.5034 5.05114C36.7995 5.05114 37.7322 5.97174 37.7322 7.26783C37.7322 7.47375 37.7322 7.67968 37.7322 7.94616C38.4226 7.94616 39.0888 7.97039 39.7429 7.94616C42.6985 7.83715 45.0848 10.3203 45 13.2032C44.9516 14.8506 45 16.498 44.9879 18.1454C44.9758 20.9314 42.7228 23.1723 39.9368 23.1844C36.9569 23.1965 33.9771 23.1844 31.0094 23.1844C30.852 23.1844 30.6824 23.1844 30.4765 23.1844C30.4765 23.463 30.4765 23.7052 30.4765 23.9354C30.4643 25.1225 29.5316 26.0794 28.3567 26.0794C24.4563 26.0915 20.5559 26.0915 16.6555 26.0794C15.4805 26.0794 14.5357 25.1225 14.5236 23.9475C14.5236 23.7052 14.5236 23.4751 14.5236 23.1844C14.3298 23.1844 14.1602 23.1844 14.0027 23.1844C11.1319 23.1844 8.26111 23.1844 5.39032 23.1844C2.99193 23.1844 1.46569 24.7106 1.46569 27.1211C1.46569 28.8775 1.46569 30.6218 1.46569 32.3782C1.46569 34.6797 3.02827 36.2301 5.34187 36.2301C5.95963 36.2301 6.5774 36.2301 7.26784 36.2301C7.26784 35.9637 7.26784 35.7214 7.26784 35.467C7.27996 34.2921 8.22477 33.3351 9.39974 33.3351C13.3001 33.3351 17.2005 33.3351 21.101 33.3351C22.2759 33.3351 23.2207 34.2921 23.2328 35.467C23.2207 35.7456 23.2207 35.9879 23.2207 36.2544ZM43.5343 36.969C43.5222 33.3957 40.5666 30.4522 36.9933 30.4643C33.4199 30.4643 30.4765 33.4199 30.4765 36.9933C30.4765 40.5787 33.4563 43.5464 37.0417 43.5222C40.603 43.498 43.5464 40.5424 43.5343 36.969ZM15.965 7.83715C15.6259 7.74024 15.323 7.63122 15.0081 7.58277C14.5357 7.51009 14.3661 7.21938 14.1481 6.81965C13.6878 5.95962 13.6878 5.23284 14.3055 4.49394C14.3782 4.40915 14.354 4.16689 14.2813 4.0821C13.9542 3.68237 13.5909 3.31898 13.2638 2.9677C13.0215 3.10094 12.852 3.17362 12.7066 3.28264C12.1373 3.70659 11.6285 3.74293 10.9139 3.44011C10.1992 3.13728 9.84792 2.77389 9.76313 2.05922C9.71468 1.59892 9.48453 1.46568 9.01212 1.47779C7.82504 1.51413 7.81293 1.48991 7.52222 2.61642C7.43742 2.94347 7.32841 3.13728 6.97713 3.22207C6.61374 3.30686 6.27457 3.47645 5.93541 3.65814C5.71737 3.77927 5.5599 3.75505 5.36609 3.63392C4.99059 3.40377 4.61508 3.19785 4.31226 3.04038C3.83985 3.47645 3.41589 3.87618 2.99193 4.27591C3.04039 4.3607 3.07673 4.4576 3.12518 4.51817C3.65815 5.20861 3.8883 5.91117 3.30687 6.69852C3.24631 6.78331 3.20997 6.89233 3.19786 6.98923C3.1494 7.34051 2.93137 7.46164 2.60432 7.54643C1.4778 7.82503 1.50203 7.83715 1.46569 8.98789C1.45358 9.48452 1.57471 9.76312 2.09557 9.79946C2.79812 9.84791 3.25842 10.175 3.36744 10.926C3.40378 11.1561 3.59759 11.3499 3.67026 11.5801C3.71872 11.7133 3.71872 11.9071 3.65815 12.0283C3.45223 12.4401 3.20997 12.8398 2.96771 13.2517C3.18574 13.4697 3.37955 13.6514 3.57336 13.8452C4.22747 14.4993 4.23958 14.5236 5.02693 14.0269C5.45088 13.7604 5.81428 13.6878 6.25035 13.9785C6.49261 14.1359 6.81966 14.1844 7.07403 14.3297C7.2315 14.4145 7.40109 14.572 7.46165 14.7416C7.60701 15.1413 7.70391 15.5653 7.81293 15.9892C8.249 15.9892 8.64873 15.9529 9.03635 16.0013C9.49664 16.0498 9.70257 15.8802 9.75102 15.4441C9.8237 14.7295 10.1386 14.2086 10.9139 14.0996C11.0229 14.0875 11.1561 14.0269 11.2409 13.9542C11.6043 13.6635 11.9314 13.7604 12.3069 13.9906C13.1911 14.5236 13.2032 14.5114 13.9058 13.7968C14.4509 13.2517 14.4872 13.2275 14.039 12.5491C13.7241 12.0646 13.7604 11.677 13.93 11.1198C14.2086 10.2234 14.7537 9.84791 15.6016 9.7389C15.8681 9.70256 15.9529 9.56931 15.9408 9.31494C15.9529 8.8183 15.965 8.34589 15.965 7.83715ZM29.7376 6.51682C27.8843 6.51682 26.0189 6.51682 24.1656 6.51682C23.4993 6.51682 23.2207 6.78331 23.2207 7.44953C23.2207 8.28533 23.2207 9.10902 23.2207 9.94482C23.2207 10.611 23.4993 10.8775 24.1656 10.8775C27.8843 10.8775 31.603 10.8775 35.3217 10.8775C36.0242 10.8775 36.2907 10.611 36.2907 9.9327C36.2907 9.13324 36.2907 8.33378 36.2907 7.53432C36.2907 6.78331 36.0363 6.52894 35.2853 6.52894C33.432 6.51682 31.5787 6.51682 29.7376 6.51682ZM22.4455 24.6622C24.323 24.6622 26.1884 24.6622 28.066 24.6622C28.7564 24.6622 29.0229 24.3957 29.0229 23.6931C29.0229 22.8573 29.0229 22.0336 29.0229 21.1978C29.0229 20.5922 28.7443 20.3015 28.1386 20.3015C24.3715 20.3015 20.6164 20.3015 16.8493 20.3015C16.2436 20.3015 15.965 20.5922 15.965 21.1978C15.9529 22.0094 15.965 22.8331 15.965 23.6447C15.965 24.4078 16.2194 24.6501 16.9704 24.6501C18.7874 24.6622 20.6164 24.6622 22.4455 24.6622ZM15.2382 39.1736C17.0915 39.1736 18.9569 39.1736 20.8102 39.1736C21.5007 39.1736 21.7672 38.9071 21.7672 38.2167C21.7672 37.3809 21.7672 36.5572 21.7672 35.7214C21.7672 35.1157 21.4886 34.825 20.8829 34.825C17.1158 34.825 13.3607 34.825 9.59355 34.825C8.9879 34.825 8.7093 35.1036 8.7093 35.7214C8.69718 36.533 8.7093 37.3567 8.7093 38.1682C8.7093 38.9314 8.96367 39.1736 9.70257 39.1857C11.5437 39.1736 13.397 39.1736 15.2382 39.1736Z" fill="white"/>
<path d="M26.0918 9.41186C26.0918 8.91522 26.0918 8.45493 26.0918 8.00674C25.6073 8.00674 25.147 8.00674 24.7109 8.00674C24.7109 8.50338 24.7109 8.95156 24.7109 9.41186C25.1833 9.41186 25.6194 9.41186 26.0918 9.41186ZM28.9868 9.41186C28.9868 8.93945 28.9868 8.47915 28.9868 8.00674C28.5144 8.00674 28.0541 8.00674 27.606 8.00674C27.606 8.49127 27.606 8.95156 27.606 9.41186C28.0784 9.41186 28.5144 9.41186 28.9868 9.41186ZM30.501 9.39975C30.9976 9.39975 31.4458 9.39975 31.9061 9.39975C31.9061 8.91522 31.9061 8.46704 31.9061 8.00674C31.4216 8.00674 30.9613 8.00674 30.501 8.00674C30.501 8.47915 30.501 8.92734 30.501 9.39975ZM34.8132 9.41186C34.8132 8.91522 34.8132 8.46704 34.8132 8.00674C34.3408 8.00674 33.8805 8.00674 33.4081 8.00674C33.4081 8.49127 33.4081 8.95156 33.4081 9.41186C33.8805 9.41186 34.3287 9.41186 34.8132 9.41186Z" fill="white"/>
<path d="M40.0944 33.5653C40.4456 33.9408 40.7606 34.2678 41.0513 34.5707C38.98 36.642 36.8844 38.7376 34.8131 40.8089C34.2074 40.2032 33.5654 39.5612 32.9355 38.9314C33.2263 38.6285 33.5533 38.2894 33.9409 37.8896C34.2195 38.2288 34.4981 38.5437 34.7767 38.8829C36.5937 37.0659 38.338 35.3217 40.0944 33.5653Z" fill="white"/>
<path d="M8.70899 13.0821C6.2985 13.0579 4.34829 11.0834 4.36041 8.68504C4.38463 6.31088 6.37118 4.34857 8.75745 4.36068C11.1558 4.36068 13.1181 6.35934 13.0818 8.76983C13.0576 11.1803 11.1195 13.0942 8.70899 13.0821ZM8.70899 11.6043C10.3079 11.6043 11.604 10.3445 11.6161 8.75772C11.6282 7.13457 10.3321 5.83847 8.73322 5.83847C7.1343 5.83847 5.85031 7.12246 5.85031 8.72138C5.8382 10.3082 7.1343 11.6043 8.70899 11.6043Z" fill="white"/>
<path d="M26.0918 9.41186C25.6194 9.41186 25.1833 9.41186 24.7109 9.41186C24.7109 8.95156 24.7109 8.49127 24.7109 8.00674C25.147 8.00674 25.6073 8.00674 26.0918 8.00674C26.0918 8.45493 26.0918 8.91522 26.0918 9.41186Z" fill="white"/>
<path d="M28.9864 9.41186C28.5139 9.41186 28.0779 9.41186 27.6055 9.41186C27.6055 8.95156 27.6055 8.49127 27.6055 8.00674C28.0537 8.00674 28.5139 8.00674 28.9864 8.00674C28.9864 8.47915 28.9864 8.93945 28.9864 9.41186Z" fill="white"/>
<path d="M30.501 9.39975C30.501 8.92734 30.501 8.47915 30.501 8.00674C30.9613 8.00674 31.4216 8.00674 31.9061 8.00674C31.9061 8.46704 31.9061 8.91522 31.9061 9.39975C31.4458 9.39975 30.9976 9.39975 30.501 9.39975Z" fill="white"/>
<path d="M34.8133 9.41186C34.3409 9.41186 33.8927 9.41186 33.4082 9.41186C33.4082 8.93945 33.4082 8.49127 33.4082 8.00674C33.8685 8.00674 34.3288 8.00674 34.8133 8.00674C34.8133 8.46704 34.8133 8.91522 34.8133 9.41186Z" fill="white"/>
<path d="M18.8354 23.1844C18.3509 23.1844 17.9148 23.1844 17.4424 23.1844C17.4424 22.7241 17.4424 22.2759 17.4424 21.7914C17.8906 21.7914 18.3509 21.7914 18.8354 21.7914C18.8354 22.2396 18.8354 22.6999 18.8354 23.1844Z" fill="white"/>
<path d="M21.7432 23.1965C21.2708 23.1965 20.8347 23.1965 20.3623 23.1965C20.3623 22.7362 20.3623 22.2759 20.3623 21.7914C20.7984 21.7914 21.2587 21.7914 21.7432 21.7914C21.7432 22.2396 21.7432 22.6999 21.7432 23.1965Z" fill="white"/>
<path d="M23.2451 21.7672C23.7175 21.7672 24.1536 21.7672 24.626 21.7672C24.626 22.2275 24.626 22.6878 24.626 23.1723C24.1899 23.1723 23.7296 23.1723 23.2451 23.1723C23.2451 22.7241 23.2451 22.2638 23.2451 21.7672Z" fill="white"/>
<path d="M26.1396 21.7792C26.6121 21.7792 27.0602 21.7792 27.5448 21.7792C27.5448 22.2516 27.5448 22.6998 27.5448 23.1843C27.0845 23.1843 26.6242 23.1843 26.1396 23.1843C26.1396 22.7119 26.1396 22.2759 26.1396 21.7792Z" fill="white"/>
<path d="M11.5926 37.6958C11.1202 37.6958 10.672 37.6958 10.1875 37.6958C10.1875 37.2234 10.1875 36.7752 10.1875 36.2907C10.6478 36.2907 11.1081 36.2907 11.5926 36.2907C11.5926 36.7631 11.5926 37.1992 11.5926 37.6958Z" fill="white"/>
<path d="M13.082 37.6959C13.082 37.2234 13.082 36.7753 13.082 36.3029C13.5544 36.3029 14.0026 36.3029 14.4871 36.3029C14.4871 36.7632 14.4871 37.2234 14.4871 37.6959C14.0268 37.6959 13.5787 37.6959 13.082 37.6959Z" fill="white"/>
<path d="M15.9893 36.2907C16.4496 36.2907 16.8977 36.2907 17.3823 36.2907C17.3823 36.7389 17.3823 37.1992 17.3823 37.6837C16.9341 37.6837 16.4738 37.6837 15.9893 37.6837C15.9893 37.2234 15.9893 36.7752 15.9893 36.2907Z" fill="white"/>
<path d="M20.3133 36.2907C20.3133 36.7752 20.3133 37.2113 20.3133 37.6716C19.853 37.6716 19.3927 37.6716 18.9082 37.6716C18.9082 37.2234 18.9082 36.7752 18.9082 36.2907C19.3564 36.2907 19.8167 36.2907 20.3133 36.2907Z" fill="white"/>
</g>
<defs>
<clipPath id="clip0_207_2410">
<rect width="45" height="44.9758" fill="white"/>
</clipPath>
</defs>
</svg>
