<svg width="45" height="40" viewBox="0 0 45 40" fill="none" xmlns="http://www.w3.org/2000/svg">
<g clip-path="url(#clip0_212_3997)">
<path d="M43.4915 35.2521C43.853 35.2521 44.1272 35.2396 44.4139 35.2521C44.763 35.2646 44.9749 35.4391 44.9749 35.8006C44.9873 36.4239 45.0123 37.0471 44.9624 37.6704C44.9001 38.6552 43.9901 39.4903 42.9555 39.5527C42.8308 39.5651 42.7062 39.5527 42.5815 39.5527C29.1812 39.5527 15.7685 39.5527 2.36822 39.5527C1.15907 39.5527 0.249102 38.9419 0.0621216 37.8698C-0.0625321 37.1593 -0.0126706 36.4114 0.0371909 35.6884C0.0496563 35.5388 0.348825 35.3269 0.548271 35.277C0.822509 35.2022 1.13414 35.2646 1.49564 35.2646C1.49564 35.0277 1.49564 34.8408 1.49564 34.6413C1.49564 26.1399 1.49564 17.6261 1.49564 9.12468C1.49564 7.9654 2.11891 7.13022 3.19093 6.88092C3.40284 6.83106 3.62722 6.83106 3.83913 6.83106C7.21725 6.83106 10.5829 6.83106 13.961 6.83106C14.6965 6.83106 14.9208 6.64407 15.0206 5.93355C15.1702 4.81166 16.1051 3.87676 17.2519 3.75211C17.6508 3.71471 17.8627 3.55266 18.0621 3.20363C19.4208 0.860141 22.1258 -0.361466 24.781 0.124684C27.3987 0.585903 29.5053 2.74241 29.9416 5.36014C29.979 5.55959 29.979 5.75903 30.004 5.95848C30.0787 6.60668 30.3031 6.80612 30.9887 6.80612C33.6314 6.80612 36.274 6.80612 38.9167 6.80612C39.6771 6.80612 40.4375 6.80612 41.1979 6.80612C42.5566 6.80612 43.479 7.7161 43.479 9.08729C43.479 17.5887 43.479 26.1025 43.479 34.6039C43.4915 34.8034 43.4915 35.0028 43.4915 35.2521ZM23.0607 13.9986C23.0607 14.5845 23.0732 15.133 23.0607 15.669C23.0483 15.9806 23.1231 16.1552 23.4347 16.3047C24.3322 16.741 24.7186 17.7881 24.3821 18.723C24.0704 19.5831 23.2602 20.1067 22.3502 20.0444C21.515 19.9945 20.7297 19.3214 20.5552 18.5111C20.3682 17.6136 20.7671 16.741 21.5524 16.2923C21.702 16.205 21.9139 16.0804 21.9264 15.9557C21.9638 15.3075 21.9389 14.6593 21.9389 13.9986C21.1411 13.9986 20.3807 13.9986 19.6203 13.9986C19.6078 14.0984 19.6078 14.1732 19.6078 14.248C19.6078 15.4446 19.6078 16.6413 19.6078 17.838C19.6078 18.374 19.4084 18.5734 18.8848 18.5984C18.5607 18.6108 18.2242 18.6233 17.9001 18.5984C17.551 18.5734 17.3516 18.6607 17.1771 19.0097C16.7657 19.82 15.8184 20.2064 14.9707 19.9696C14.0358 19.7203 13.4375 18.9225 13.4624 17.9751C13.4873 17.0776 14.0981 16.3297 14.9956 16.0928C15.8682 15.8685 16.7408 16.2673 17.2145 17.0651C17.3017 17.2022 17.4389 17.3768 17.576 17.4017C17.8377 17.4516 18.1244 17.4142 18.4361 17.4142C18.4361 16.2424 18.4361 15.1205 18.4361 13.9363C17.763 13.9363 17.1148 13.9488 16.4666 13.9363C14.684 13.8865 13.1508 12.6898 12.7394 10.9696C12.6646 10.6455 12.5275 10.5831 12.2408 10.5956C10.0594 10.6081 7.89038 10.5956 5.70894 10.6081C5.59675 10.6081 5.47209 10.633 5.37237 10.6455C5.37237 17.9502 5.37237 25.2175 5.37237 32.4973C16.8156 32.4973 28.2339 32.4973 39.6522 32.4973C39.6522 25.1801 39.6522 17.9003 39.6522 10.6081C37.533 10.6081 35.4513 10.6081 33.3696 10.6081C32.4721 10.6081 32.4721 10.6081 32.1729 11.4058C31.5995 12.9142 30.1909 13.9114 28.5455 13.9488C27.8973 13.9612 27.2616 13.9488 26.6134 13.9488C26.6134 15.1455 26.6134 16.2673 26.6134 17.4017C26.763 17.4142 26.8751 17.4017 26.9749 17.4142C27.4112 17.4765 27.6979 17.3518 27.9222 16.928C28.3087 16.2175 29.1812 15.8934 29.9292 16.0554C30.9015 16.2673 31.5621 17.0527 31.5621 18C31.5746 18.9349 30.9513 19.7203 30.0164 19.9696C29.1314 20.1939 28.2089 19.7701 27.7726 18.8851C27.648 18.6482 27.5109 18.5734 27.274 18.5859C26.9001 18.5984 26.5261 18.5984 26.1522 18.5859C25.6161 18.5734 25.4167 18.3615 25.4167 17.838C25.4042 17.3269 25.4167 16.8158 25.4167 16.3047C25.4167 15.5319 25.4167 14.759 25.4167 13.9737C24.6064 13.9986 23.8585 13.9986 23.0607 13.9986ZM31.8239 7.94047C31.9859 8.37676 32.1979 8.73826 32.2602 9.12468C32.3225 9.47371 32.4846 9.52358 32.7962 9.52358C35.1771 9.51111 37.558 9.52358 39.9389 9.52358C40.6992 9.52358 40.8114 9.63577 40.8114 10.3837C40.8114 17.8629 40.8114 25.3421 40.8114 32.8214C40.8114 33.5693 40.6868 33.6939 39.9513 33.6939C28.3211 33.6939 16.6909 33.6939 5.06074 33.6939C4.33774 33.6939 4.21309 33.5693 4.21309 32.8588C4.21309 25.3671 4.21309 17.8754 4.21309 10.3712C4.21309 9.63576 4.32528 9.52358 5.08567 9.52358C7.46655 9.52358 9.84744 9.52358 12.2283 9.51111C12.3904 9.51111 12.6397 9.43632 12.6771 9.3366C12.8641 8.90031 12.9887 8.43909 13.1508 7.9654C13.0136 7.95294 12.889 7.95294 12.7519 7.95294C9.83498 7.95294 6.90561 7.95294 3.98871 7.95294C3.01642 7.95294 2.64245 8.33937 2.64245 9.31166C2.64245 17.7881 2.64245 26.2646 2.64245 34.7286C2.64245 34.8906 2.64245 35.0527 2.64245 35.2147C15.9305 35.2147 29.1438 35.2147 42.3696 35.2147C42.3821 35.115 42.3945 35.0527 42.3945 34.9903C42.3945 26.3643 42.3945 17.7258 42.3945 9.09975C42.3945 8.37676 41.9707 7.95294 41.2228 7.92801C40.6743 7.91554 40.1383 7.92801 39.5898 7.92801C37.0095 7.94047 34.4416 7.94047 31.8239 7.94047ZM22.4499 12.8269C24.3447 12.8269 26.2394 12.8269 28.1341 12.8269C28.4832 12.8269 28.8571 12.8144 29.1937 12.7272C30.3779 12.428 31.1757 11.4183 31.2505 10.1967C31.3253 9.08729 30.6023 7.95294 29.5053 7.52912C28.9943 7.34214 28.7948 7.04297 28.8571 6.51942C28.8821 6.24518 28.8696 5.95848 28.8322 5.68424C28.4956 3.40308 26.6383 1.52081 24.4319 1.22164C22.0136 0.897537 19.7699 2.10668 18.7976 4.27565C18.5981 4.73687 18.3488 4.89892 17.8377 4.86153C16.7533 4.7618 16.0427 5.4848 16.1549 6.56928C16.2048 7.08036 16.0552 7.32967 15.569 7.49172C14.2602 7.94047 13.5497 9.2618 13.799 10.6081C14.0607 11.9668 15.1577 12.8144 16.7034 12.8269C18.6231 12.8269 20.5427 12.8269 22.4499 12.8269ZM1.18401 36.3865C0.972094 37.9696 1.35852 38.4308 2.86683 38.4308C16.0178 38.4058 29.1688 38.4183 42.3322 38.4183C42.569 38.4183 42.7934 38.4058 43.0303 38.3685C43.4666 38.3061 43.7533 38.0443 43.8156 37.6205C43.8779 37.2216 43.8654 36.7978 43.8779 36.3865C29.5926 36.3865 15.407 36.3865 1.18401 36.3865ZM22.5372 17.2022C22.051 17.1773 21.6646 17.5513 21.6521 18.025C21.6397 18.4986 22.0136 18.8975 22.4873 18.91C22.9361 18.9225 23.3225 18.5485 23.3474 18.0998C23.3724 17.6136 23.0233 17.2272 22.5372 17.2022ZM15.4444 18.9225C15.8931 18.9349 16.317 18.5236 16.317 18.0624C16.317 17.6136 15.943 17.2272 15.4943 17.2147C15.0206 17.1898 14.6217 17.5762 14.6092 18.0374C14.5843 18.4862 14.9832 18.91 15.4444 18.9225ZM30.4028 18.0624C30.4153 17.6011 30.0164 17.2022 29.5427 17.2022C29.094 17.2022 28.7076 17.5637 28.6826 18.0125C28.6577 18.4737 29.0566 18.8851 29.5178 18.91C29.979 18.9349 30.3904 18.5236 30.4028 18.0624Z" fill="white"/>
<path d="M22.4626 31.5249C21.777 31.5249 21.0914 31.5249 20.4058 31.5249C19.8698 31.5249 19.6828 31.338 19.6703 30.802C19.6578 29.8421 19.6578 28.8698 19.6703 27.91C19.6828 27.5734 19.5955 27.4363 19.234 27.4488C18.7229 27.4737 18.1994 27.4862 17.7008 27.4363C17.4764 27.4114 17.1523 27.2618 17.0775 27.0873C17.0027 26.9128 17.1149 26.5513 17.2645 26.4017C18.8351 24.8061 20.4307 23.2479 22.0263 21.6773C22.3504 21.3532 22.6371 21.3532 22.9612 21.6648C24.5567 23.2355 26.1523 24.8061 27.7229 26.3892C27.8725 26.5388 27.9847 26.9003 27.9224 27.0748C27.8476 27.2493 27.536 27.4114 27.3116 27.4363C26.788 27.4862 26.252 27.4737 25.7285 27.4488C25.4169 27.4363 25.3296 27.5485 25.3296 27.8477C25.3421 28.8075 25.3421 29.7798 25.3296 30.7396C25.3296 31.3504 25.1551 31.5249 24.5567 31.5249C23.8587 31.5249 23.1606 31.5249 22.4626 31.5249ZM22.5498 22.8864C21.403 24.0582 20.2811 25.205 19.1966 26.302C19.2091 26.302 19.3213 26.302 19.4335 26.302C20.8171 26.3144 20.8171 26.3144 20.8171 27.6981C20.8171 28.5831 20.8171 29.4557 20.8171 30.3407C21.9764 30.3407 23.0609 30.3407 24.1952 30.3407C24.1952 29.2189 24.1952 28.1344 24.1952 27.0499C24.1952 26.5014 24.3947 26.302 24.9556 26.2895C25.2797 26.2895 25.6038 26.2895 25.8781 26.2895C24.7437 25.1427 23.6343 23.9959 22.5498 22.8864Z" fill="white"/>
<path d="M22.525 5.69669C24.8062 5.78394 26.6386 6.71885 27.9225 8.65098C28.1968 9.06234 28.1718 9.38644 27.8727 9.58588C27.561 9.79779 27.2743 9.69807 26.9876 9.28671C24.7189 6.02079 20.3311 6.02079 18.0624 9.28671C17.7757 9.69807 17.4765 9.79779 17.1774 9.58588C16.8657 9.37397 16.8408 9.06234 17.115 8.65098C18.399 6.73131 20.2314 5.78394 22.525 5.69669Z" fill="white"/>
<path d="M26.2149 10.3463C26.0902 10.5083 26.003 10.7203 25.8534 10.7826C25.6789 10.8449 25.442 10.795 25.2551 10.7327C25.1304 10.6829 25.0431 10.5083 24.9559 10.3837C23.7467 8.73826 21.3534 8.71333 20.1193 10.3338C20.0819 10.3837 20.0445 10.4335 20.0071 10.4834C19.7204 10.8823 19.4213 10.9696 19.1096 10.7576C18.8105 10.5333 18.7855 10.2341 19.0722 9.82274C19.7329 8.85045 20.6553 8.26457 21.8021 8.05266C23.3728 7.75349 25.0805 8.48895 25.9656 9.84767C26.0653 9.98479 26.1152 10.1468 26.2149 10.3463Z" fill="white"/>
<path d="M22.5375 10.2715C23.1732 10.3213 23.7093 10.5707 24.0708 11.1067C24.2702 11.4058 24.2702 11.705 23.971 11.9294C23.6968 12.1288 23.4226 12.0665 23.1857 11.8172C22.6871 11.3061 22.3505 11.2936 21.8768 11.8047C21.6275 12.079 21.3408 12.1288 21.0541 11.9044C20.755 11.6676 20.7799 11.3684 20.9918 11.0817C21.3782 10.5582 21.9018 10.3089 22.5375 10.2715Z" fill="white"/>
</g>
<defs>
<clipPath id="clip0_212_3997">
<rect width="45" height="39.5526" fill="white"/>
</clipPath>
</defs>
</svg>
