<svg width="45" height="45" viewBox="0 0 45 45" fill="none" xmlns="http://www.w3.org/2000/svg">
<g clip-path="url(#clip0_212_3990)">
<path d="M45.0002 40.8675C44.6597 41.7245 44.014 42.0297 43.0983 42.018C40.3041 41.9828 37.4982 42.0063 34.7041 42.0063C33.6005 42.0063 33.0017 41.4193 32.9665 40.3039C32.9548 39.8578 32.9078 39.4117 32.8726 38.9069C32.6848 39.0125 32.5439 39.083 32.403 39.1652C30.325 40.3509 28.2352 41.5367 26.1572 42.7342C25.9811 42.8398 25.8168 43.0042 25.6994 43.1803C24.8071 44.6126 23.1987 45.2935 21.5668 44.8943C20.0054 44.5187 18.8196 43.0864 18.714 41.4427C18.5614 39.0712 20.7568 37.1341 23.1283 37.545C23.2926 37.5685 23.4805 37.5802 23.6331 37.5215C26.0985 36.6175 28.564 35.7135 31.0294 34.8096C31.0646 34.7978 31.1116 34.7743 31.2172 34.7156C30.9472 34.3634 30.7124 33.9995 30.4307 33.6825C27.5426 30.5127 23.9618 29.3034 19.8293 30.3953C15.6498 31.4988 13.0904 34.3282 12.1865 38.5781C12.0573 39.1652 12.0338 39.7639 12.0104 40.3626C11.9634 41.4193 11.3646 42.018 10.3198 42.018C7.41995 42.018 4.52013 42.018 1.62032 42.018C0.587183 42.018 -0.0350455 41.4075 -0.0115652 40.3861C0.152797 32.802 3.3109 26.7676 9.36882 22.2476C12.3039 20.0522 15.6263 18.6668 19.254 18.2325C28.1178 17.1641 35.3146 20.2165 40.7268 27.3311C42.9809 30.2896 44.2605 33.6942 44.8006 37.3806C44.871 37.8972 44.9297 38.4138 45.0002 38.9303C45.0002 39.5761 45.0002 40.2218 45.0002 40.8675ZM10.4724 40.4683C10.5428 37.4628 11.5407 34.833 13.4426 32.6259C11.3177 30.4892 9.21619 28.3877 7.09123 26.2627C3.46352 30.2779 1.5851 34.9974 1.50291 40.4683C4.50839 40.4683 7.45517 40.4683 10.4724 40.4683ZM8.27698 25.077C10.4254 27.2254 12.5152 29.3152 14.6284 31.4401C14.6754 31.4049 14.7575 31.3345 14.828 31.2758C16.6477 29.773 18.7257 28.8925 21.062 28.5755C21.7195 28.4934 21.7195 28.4934 21.7195 27.8124C21.7195 25.2179 21.7195 22.6233 21.7195 20.0404C21.7195 19.8761 21.7195 19.7117 21.7195 19.5356C16.5068 19.7939 12.0573 21.6488 8.27698 25.077ZM36.7468 25.0887C32.9196 21.6371 28.47 19.7704 23.2926 19.5239C23.2926 22.5294 23.2926 25.4996 23.2926 28.5051C25.9929 28.7164 28.3761 29.7026 30.3954 31.4401C32.5087 29.3269 34.6101 27.2254 36.7468 25.0887ZM32.7435 34.1991C32.8961 34.1521 33.0487 34.1051 33.2013 34.0464C34.7628 33.5064 36.3125 32.9664 37.8739 32.4263C38.4727 32.2267 39.0362 32.2854 39.494 32.7433C40.2337 33.4712 40.0693 34.5982 39.1301 35.1618C37.6156 36.0775 36.0894 36.9697 34.5749 37.8855C34.4575 37.9559 34.2814 38.1085 34.2814 38.2142C34.3519 38.9656 34.4575 39.7169 34.5514 40.4566C37.5334 40.4566 40.492 40.4566 43.474 40.4566C43.38 34.9857 41.5134 30.2661 37.9326 26.3097C35.7959 28.4464 33.6944 30.5479 31.5812 32.6494C31.9569 33.1307 32.3443 33.659 32.7435 34.1991ZM37.8622 34.1873C37.8387 34.1286 37.8269 34.0817 37.8035 34.023C33.6005 35.514 29.3858 37.0167 25.2767 38.4725C25.6524 39.306 26.0046 40.0691 26.3686 40.891C30.1489 38.6955 34.0114 36.4414 37.8622 34.1873ZM24.7249 41.2432C24.7249 39.9987 23.7505 39.0243 22.506 39.0125C21.2616 39.0125 20.2872 39.987 20.2754 41.2314C20.2637 42.4876 21.2851 43.509 22.5178 43.4973C23.7505 43.4738 24.7249 42.4759 24.7249 41.2432Z" fill="white"/>
<path d="M22.9405 -9.11579e-06C23.6801 0.293495 24.0793 0.915723 24.3023 1.60839C24.6428 2.65327 25.2885 3.21679 26.4156 3.18157C26.6386 3.16983 26.8734 3.26375 27.1082 3.31071C28.4701 3.61596 28.9632 5.07174 28.0474 6.12835C27.6718 6.56274 27.2843 6.98538 26.8617 7.37281C26.533 7.67805 26.4978 7.99503 26.5682 8.3942C26.6739 8.96947 26.7443 9.54473 26.8147 10.1317C26.8969 10.8009 26.6504 11.3527 26.0986 11.7284C25.5351 12.1041 24.9481 12.0923 24.361 11.7754C23.8445 11.4936 23.3162 11.2471 22.8113 10.9536C22.5883 10.8362 22.4239 10.8362 22.2126 10.9536C21.6725 11.2471 21.1325 11.5288 20.5807 11.7988C19.3832 12.3741 18.1035 11.5406 18.1975 10.2139C18.2444 9.59169 18.3501 8.96947 18.4557 8.34724C18.5144 7.98329 18.491 7.67805 18.1857 7.40803C17.7748 7.03234 17.3991 6.62144 17.0352 6.19879C16.049 5.09522 16.5186 3.61596 17.9627 3.31071C18.5497 3.18157 19.1484 3.11113 19.7237 2.98199C19.888 2.94677 20.0876 2.80589 20.1698 2.65327C20.4164 2.24236 20.6394 1.80797 20.8273 1.36185C21.0855 0.751361 21.473 0.270014 22.0835 -0.0117493C22.3535 -9.11579e-06 22.647 -9.11579e-06 22.9405 -9.11579e-06ZM27.0613 4.88389C26.8147 4.82519 26.6504 4.77823 26.486 4.74301C25.8286 4.62561 25.1711 4.49647 24.5019 4.40255C24.1145 4.34385 23.8797 4.14426 23.7036 3.8038C23.3984 3.15809 23.0696 2.52412 22.7526 1.87842C22.6822 1.74927 22.6 1.62013 22.4826 1.43229C22.0717 2.2541 21.696 2.98199 21.3556 3.72162C21.1677 4.12078 20.9094 4.39081 20.4398 4.42603C20.1346 4.44951 19.8411 4.51995 19.5358 4.57865C19.031 4.67257 18.5262 4.76649 17.9157 4.88389C18.0801 5.08348 18.1622 5.20088 18.2562 5.30654C18.7375 5.82311 19.2071 6.33967 19.7119 6.83276C19.9937 7.11452 20.1111 7.41977 20.0524 7.81893C19.9702 8.34724 19.888 8.88729 19.8176 9.42733C19.7706 9.7678 19.7354 10.1083 19.6885 10.5309C19.9115 10.437 20.0407 10.3783 20.1698 10.3196C20.7803 10.0026 21.3908 9.69736 22.0013 9.36863C22.3535 9.16905 22.6822 9.16905 23.0461 9.35689C23.6566 9.68562 24.2554 9.99086 24.8659 10.3078C24.995 10.3783 25.1359 10.4252 25.3472 10.5074C25.3355 10.2961 25.3355 10.167 25.312 10.0378C25.2063 9.34515 25.1124 8.65248 24.995 7.95981C24.9128 7.46673 25.042 7.09104 25.4059 6.73884C25.899 6.28097 26.3334 5.76441 26.803 5.27132C26.8617 5.1774 26.9321 5.06 27.0613 4.88389Z" fill="white"/>
<path d="M4.66081 16.2131C4.75473 15.5792 4.82518 14.8513 4.95432 14.1351C5.00128 13.8651 4.93084 13.7007 4.75473 13.5246C4.33209 13.102 3.92118 12.6559 3.51028 12.2215C3.02893 11.7167 2.84109 11.1297 3.07589 10.4487C3.3107 9.77954 3.79204 9.41559 4.49645 9.30993C5.07172 9.22775 5.64699 9.12209 6.22225 8.99295C6.38662 8.95772 6.57446 8.8051 6.65664 8.65248C6.95014 8.13591 7.20843 7.58413 7.46671 7.04408C7.78369 6.39837 8.27678 5.99921 9.00467 5.99921C9.73256 5.99921 10.2256 6.41011 10.5309 7.05582C10.7657 7.54891 11.0357 8.01851 11.247 8.5116C11.3879 8.85206 11.611 8.99295 11.9514 9.03991C12.5032 9.12209 13.0433 9.21601 13.5951 9.32167C14.9452 9.59169 15.4618 11.0944 14.546 12.1276C14.1116 12.6207 13.6303 13.0785 13.1959 13.5716C13.0902 13.7007 13.0081 13.9121 13.0198 14.0647C13.0902 14.7339 13.2194 15.3913 13.3016 16.0605C13.3955 16.7062 13.1842 17.258 12.6676 17.6572C12.151 18.0563 11.5758 18.1385 10.977 17.845C10.4252 17.575 9.87344 17.305 9.34513 16.9997C9.06337 16.8354 8.85205 16.8588 8.58202 17.0115C8.06546 17.305 7.52541 17.5867 6.98536 17.845C5.88179 18.3616 4.64907 17.5515 4.66081 16.2131ZM9.01641 7.41977C8.88727 7.65457 8.80509 7.77197 8.74639 7.90111C8.45288 8.48812 8.1359 9.06339 7.87761 9.67387C7.66629 10.1552 7.32583 10.39 6.821 10.4605C6.17529 10.5544 5.52958 10.6835 4.88388 10.8009C4.76647 10.8244 4.66081 10.8948 4.55515 10.9418C4.61385 11.0475 4.66081 11.1766 4.74299 11.2705C5.24782 11.8223 5.76439 12.3624 6.28095 12.9024C6.55098 13.1724 6.6449 13.4777 6.56272 13.8651C6.4688 14.323 6.42184 14.7926 6.35139 15.2504C6.29269 15.6496 6.25747 16.037 6.19877 16.5301C6.43358 16.4362 6.56272 16.3892 6.68012 16.3188C7.25539 16.0253 7.83065 15.7435 8.38244 15.4265C8.82857 15.1683 9.21599 15.18 9.65038 15.4383C10.2022 15.7553 10.7892 16.037 11.3527 16.3423C11.4701 16.401 11.611 16.4479 11.7871 16.5184C11.7871 16.3071 11.7988 16.1662 11.7871 16.0253C11.6932 15.3444 11.6227 14.6634 11.4818 13.9942C11.3879 13.5246 11.4936 13.1842 11.834 12.8437C12.3271 12.3624 12.785 11.8458 13.2546 11.341C13.3603 11.2236 13.4307 11.071 13.5481 10.8831C12.7263 10.7422 12.0219 10.5779 11.294 10.4957C10.707 10.4252 10.343 10.1787 10.0965 9.62691C9.77952 8.88728 9.40383 8.2181 9.01641 7.41977Z" fill="white"/>
<path d="M42.1119 11.0357C41.9241 11.3997 41.7949 11.8106 41.5367 12.1276C41.1492 12.6207 40.6914 13.055 40.2452 13.5012C40.0574 13.689 39.9752 13.8651 40.0339 14.1586C40.1631 14.7691 40.2335 15.4031 40.3157 16.0253C40.4096 16.718 40.1865 17.305 39.6113 17.7159C39.0595 18.1033 38.4725 18.1033 37.8737 17.7863C37.3454 17.5046 36.8171 17.2111 36.2771 16.9645C36.1245 16.8941 35.8779 16.8941 35.7253 16.9645C35.1735 17.2228 34.6335 17.5163 34.0817 17.7981C33.4594 18.1151 32.8607 18.0798 32.3089 17.6572C31.7689 17.2345 31.5693 16.671 31.6749 15.9901C31.7806 15.3444 31.8863 14.6869 31.9567 14.0412C31.9684 13.9003 31.8863 13.7008 31.7923 13.5834C31.3697 13.102 30.9118 12.6441 30.4774 12.1745C30.0078 11.6697 29.8435 11.0827 30.0783 10.437C30.3131 9.79129 30.7709 9.4156 31.4636 9.30994C31.8863 9.25124 32.2972 9.11036 32.7081 9.09862C33.342 9.08688 33.6708 8.78163 33.8938 8.21811C34.0699 7.76024 34.3165 7.31411 34.5513 6.87973C34.8565 6.30446 35.3613 5.98748 36.0071 5.99922C36.641 6.01096 37.1224 6.3162 37.4276 6.87973C37.7446 7.47848 38.0146 8.08896 38.3433 8.67597C38.4138 8.81685 38.6016 8.94599 38.7543 8.98122C39.3765 9.1221 40.0222 9.21602 40.6444 9.33342C41.4545 9.48604 42.0063 10.167 42.1119 11.0357ZM31.4519 10.8596C31.581 11.0592 31.6397 11.2001 31.7454 11.3058C32.2385 11.8458 32.7785 12.3506 33.2364 12.9142C33.4242 13.1372 33.5416 13.4894 33.5299 13.7712C33.5181 14.2643 33.389 14.7574 33.3186 15.2387C33.2599 15.6379 33.2246 16.0253 33.1777 16.5184C33.4125 16.4127 33.5416 16.3658 33.6708 16.3071C34.2813 15.9901 34.8917 15.6848 35.5022 15.3561C35.8427 15.1683 36.1597 15.1683 36.5001 15.3561C37.0989 15.6848 37.7211 15.9901 38.3316 16.3071C38.4607 16.3775 38.6134 16.4245 38.8482 16.5184C38.719 15.5674 38.6251 14.7104 38.4725 13.8651C38.402 13.4542 38.496 13.1607 38.7777 12.8789C39.2943 12.3389 39.8109 11.7989 40.3157 11.2471C40.5857 10.9653 40.5505 10.8596 40.1631 10.7892C39.4352 10.6483 38.6955 10.5192 37.9677 10.4018C37.6155 10.3431 37.3924 10.1552 37.2398 9.83825C36.9932 9.33342 36.7467 8.84033 36.5001 8.34725C36.3593 8.06548 36.2184 7.79546 36.0305 7.41977C35.9131 7.64284 35.831 7.76024 35.7723 7.88938C35.4553 8.53509 35.1265 9.16906 34.8096 9.81477C34.6452 10.1435 34.4221 10.3431 34.0465 10.4018C33.2129 10.5309 32.3911 10.6953 31.4519 10.8596Z" fill="white"/>
</g>
<defs>
<clipPath id="clip0_212_3990">
<rect width="45" height="45" fill="white"/>
</clipPath>
</defs>
</svg>
