<svg width="60" height="60" viewBox="0 0 60 60" fill="none" xmlns="http://www.w3.org/2000/svg">
<path d="M30.293 0C36.8848 3.86719 43.8135 7.00195 51.1084 9.30176C52.1777 9.63867 53.2617 9.94629 54.3457 10.2686C55.1807 10.5322 55.4736 10.8691 55.4736 11.7334C55.459 16.8018 55.6494 21.8848 55.3711 26.9385C54.8144 37.0166 50.7129 45.5127 43.2715 52.3535C40.1367 55.2393 36.665 57.583 32.6953 59.209C30.8203 59.9854 29.0332 59.9707 27.1582 59.209C22.5293 57.3047 18.5742 54.4189 15.0732 50.8887C11.1768 46.9629 8.30566 42.3633 6.47461 37.1484C5.00977 32.9297 4.39453 28.5498 4.39453 24.082C4.39453 20.0684 4.39453 16.0547 4.39453 12.041C4.39453 10.8545 4.62891 10.5176 5.75684 10.1953C13.8867 7.93945 21.5918 4.6582 28.8867 0.395508C29.1211 0.263672 29.3555 0.131836 29.5898 0C29.8242 0 30.0586 0 30.293 0ZM52.9541 12.5391C51.9287 12.2168 50.9326 11.9238 49.9219 11.6016C43.125 9.41895 36.6357 6.54785 30.4395 3.00293C30.1025 2.8125 29.8389 2.76855 29.4873 2.97363C22.5439 6.9873 15.2051 10.1074 7.5 12.3486C7.06055 12.4805 6.92871 12.6416 6.92871 13.0957C6.94336 16.7725 6.92871 20.4639 6.94336 24.1406C6.95801 27.7148 7.36816 31.2451 8.39355 34.6875C10.0781 40.415 13.0811 45.3516 17.3291 49.5264C20.1416 52.2949 23.2764 54.6094 26.8506 56.2939C29.6191 57.6123 30.1758 57.5977 32.9736 56.3379C33.0908 56.2793 33.2227 56.2207 33.3398 56.1475C39.917 52.8223 45.0586 47.959 48.6621 41.5283C51.2549 36.8994 52.6758 31.9043 52.8662 26.6162C53.0273 22.0752 52.9541 17.5342 52.9687 12.9932C52.9541 12.876 52.9541 12.7148 52.9541 12.5391Z" fill="#77D1DE"/>
<path d="M26.0158 31.9336C26.1476 31.7431 26.2648 31.5234 26.426 31.3623C30.381 27.4072 34.3361 23.4521 38.2912 19.497C39.5949 18.1933 41.1037 17.7392 42.8615 18.3545C45.3957 19.248 46.3478 22.5 44.7072 24.624C44.5314 24.8584 44.341 25.0781 44.1359 25.2832C39.0969 30.3222 34.0431 35.3613 29.0041 40.415C27.466 41.9531 25.5324 42.246 23.8039 41.2207C23.467 41.0302 23.1594 40.7666 22.8957 40.5029C20.4933 38.1152 18.091 35.7275 15.7033 33.3105C13.799 31.3916 13.9455 28.6669 15.9963 27.0117C17.4172 25.8691 19.673 25.8544 21.05 27.1289C22.5588 28.5058 23.9797 29.9853 25.4152 31.4355C25.5617 31.582 25.6349 31.8017 25.7521 31.9921C25.84 31.9628 25.9279 31.9482 26.0158 31.9336ZM42.964 22.4853C42.9787 21.4306 42.5099 20.8447 41.7629 20.6689C41.0451 20.4931 40.5324 20.8447 40.0637 21.3134C35.757 25.6347 31.4357 29.9414 27.1291 34.248C26.1916 35.1855 25.6056 35.1855 24.6681 34.248C22.9982 32.5781 21.343 30.9082 19.6584 29.2529C18.9553 28.5644 17.9885 28.5351 17.3586 29.1503C16.7287 29.7656 16.758 30.747 17.4465 31.4502C19.8635 33.8818 22.2951 36.3134 24.7267 38.7304C25.4738 39.4628 26.3381 39.4482 27.0998 38.7158C27.7297 38.1005 28.3449 37.4707 28.9601 36.8554C33.3986 32.4169 37.8371 27.9931 42.2609 23.54C42.6125 23.1884 42.8176 22.705 42.964 22.4853Z" fill="#77D1DE"/>
<path d="M9.37549 17.724C9.37549 16.9623 9.36084 16.2006 9.37549 15.4535C9.39014 14.7064 9.68311 14.2963 10.3862 14.0472C12.5981 13.2562 14.8101 12.4799 17.022 11.7035C17.813 11.4252 18.5161 11.7035 18.7798 12.3627C19.0581 13.0658 18.7358 13.7689 17.9009 14.0765C16.0991 14.7504 14.2974 15.3949 12.481 16.0248C12.0708 16.1713 11.895 16.3324 11.9097 16.8011C11.9536 17.8558 11.9243 18.8959 11.9243 19.9506C11.9243 20.8441 11.4409 21.4008 10.6792 21.4154C9.90283 21.43 9.39014 20.8734 9.36084 19.9506C9.36084 19.2035 9.37549 18.4564 9.37549 17.724Z" fill="#77D1DE"/>
<path d="M44.2534 40.4298C45.2348 40.4152 45.8354 41.4406 45.3227 42.3341C45.0444 42.8175 44.7075 43.2716 44.3706 43.7257C42.4809 46.3185 40.2251 48.5597 37.7055 50.5519C36.9878 51.1232 36.27 51.1232 35.7866 50.5519C35.2593 49.9367 35.3618 49.1896 36.1089 48.5744C37.9546 47.0802 39.7124 45.4836 41.2065 43.6232C41.8511 42.8175 42.4516 41.9826 43.0522 41.1476C43.3598 40.7521 43.6968 40.4298 44.2534 40.4298Z" fill="#77D1DE"/>
<path d="M33.721 50.5369C34.4095 50.5515 34.9808 51.1375 34.9515 51.8113C34.9368 52.4851 34.2923 53.0857 33.6184 53.1004C32.9153 53.1004 32.3587 52.5437 32.3733 51.8406C32.3733 51.0935 32.9593 50.5222 33.721 50.5369Z" fill="#77D1DE"/>
<path d="M22.4561 11.3235C22.4707 12.012 21.8701 12.6126 21.1523 12.6272C20.5078 12.6419 19.8926 12.0266 19.8926 11.3528C19.8926 10.7083 20.4932 10.093 21.167 10.0784C21.8262 10.0637 22.4268 10.6497 22.4561 11.3235Z" fill="#77D1DE"/>
</svg>
