<svg width="40" height="41" viewBox="0 0 40 41" fill="none" xmlns="http://www.w3.org/2000/svg">
<path d="M0 21.8196C0.10445 21.1615 0.18801 20.5139 0.31335 19.8663C1.0445 16.0852 2.88282 12.9204 5.76565 10.3614C8.29334 8.1157 11.2493 6.73696 14.6021 6.29827C19.5217 5.65068 23.94 6.90408 27.8046 10.0271C28.0344 10.2151 28.2642 10.4136 28.5149 10.633C28.9954 10.1525 29.4758 9.68245 29.9354 9.20198C29.9981 9.13931 29.9876 8.99308 29.9667 8.88863C29.7787 7.94858 29.5803 7.00853 29.3714 6.06848C29.3087 5.76557 29.3714 5.53578 29.5803 5.32688C31.2724 3.63479 32.9645 1.93225 34.667 0.240159C35.1057 -0.198532 35.6697 -0.0105214 35.8055 0.59529C36.004 1.48312 36.192 2.37094 36.3591 3.26921C36.4113 3.51989 36.5262 3.63479 36.7769 3.68701C37.6543 3.86458 38.5317 4.0317 39.3986 4.25105C39.6284 4.31372 39.9104 4.52262 39.9835 4.72107C40.0462 4.90908 39.9209 5.24332 39.7642 5.4C38.1034 7.09209 36.4218 8.76329 34.7401 10.4449C34.5103 10.6747 34.2597 10.7478 33.9254 10.6643C33.0062 10.4449 32.0766 10.2569 31.1366 10.0794C31.0217 10.0585 30.8546 10.0898 30.771 10.1629C30.301 10.5912 29.8519 11.0508 29.4236 11.4686C30.0294 12.2624 30.6352 13.0144 31.1679 13.8082C32.6302 15.9808 33.4658 18.404 33.7583 20.9944C34.3014 25.726 33.1107 29.9876 30.1339 33.6955C27.4495 37.0379 23.9713 39.0643 19.7411 39.7954C19.2293 39.879 18.7175 39.9521 18.2057 40.0252C17.3701 40.0252 16.5345 40.0252 15.6989 40.0252C15.2602 39.9626 14.8215 39.9208 14.3932 39.8477C11.3955 39.3567 8.67981 38.2078 6.31923 36.2755C3.1335 33.6851 1.10717 30.3636 0.31335 26.3109C0.18801 25.6529 0.10445 24.9844 0 24.3159C0 23.4908 0 22.6552 0 21.8196ZM27.554 11.5312C22.2583 6.4445 12.8265 5.6089 6.3819 11.5103C-0.240236 17.5789 -0.480471 27.5957 5.77609 34.0925C11.7715 40.3177 21.9972 40.3281 28.1075 34.1133C34.3954 27.721 33.7687 17.9131 28.5358 12.4922C27.836 13.192 27.1466 13.8814 26.4259 14.6021C28.7865 17.2551 29.8832 20.4095 29.6116 23.9712C29.34 27.5539 27.7733 30.5203 25.0367 32.8495C20.2738 36.8917 13.0876 36.735 8.45002 32.4944C3.65576 28.1179 2.85149 21.0466 6.55947 15.8137C8.46046 13.1293 11.0195 11.3745 14.2261 10.6852C18.4459 9.7869 22.2061 10.8314 25.4545 13.6098C26.1752 12.91 26.8646 12.2206 27.554 11.5312ZM23.3968 17.6102C26.4677 21.3391 25.7887 26.8018 22.321 29.6115C18.9159 32.3795 14.0172 32.1288 10.9568 29.0371C7.88599 25.9349 7.68753 20.9944 10.4659 17.6624C13.2861 14.2783 18.6548 13.4218 22.4254 16.6075C23.1253 15.9077 23.8146 15.2183 24.5145 14.5289C20.5767 10.8419 13.5785 10.3718 8.9096 14.9781C4.38691 19.4485 4.39735 26.7914 8.93049 31.1992C13.5994 35.7428 20.9005 35.5965 25.2874 30.8858C29.7265 26.102 29.058 19.1874 25.4858 15.5212C24.7965 16.2106 24.1071 16.9 23.3968 17.6102ZM22.4881 18.5712C21.7779 19.2814 21.078 19.9812 20.3782 20.6811C21.757 22.8432 21.1512 24.974 19.6889 26.2065C18.0803 27.5643 15.8033 27.5539 14.247 26.2065C12.722 24.9008 12.3669 22.6447 13.4218 20.9317C13.9545 20.0648 14.6961 19.4694 15.6675 19.1561C17.0045 18.7174 18.2474 18.9681 19.3442 19.6783C20.0753 18.9472 20.7751 18.2474 21.475 17.558C19.3442 15.5317 15.0513 15.1139 12.1684 17.7356C9.17072 20.4513 8.95138 24.9426 11.6462 27.9299C14.2574 30.8127 18.8115 31.053 21.6943 28.4835C24.8382 25.6738 24.6293 21.0362 22.4881 18.5712ZM34.7715 1.91136C33.4032 3.27966 32.0871 4.59573 30.7815 5.92225C30.7083 5.99536 30.6979 6.15204 30.7188 6.26693C30.865 7.02942 31.0217 7.79191 31.2097 8.55439C31.241 8.66929 31.3768 8.81552 31.4917 8.84685C32.2229 9.02442 32.9645 9.1602 33.6956 9.33777C33.9463 9.40044 34.0925 9.32732 34.2701 9.1602C35.4608 7.95903 36.662 6.76829 37.8527 5.56712C37.9363 5.48356 37.999 5.4 38.1034 5.2851C37.3409 5.11798 36.6202 4.95086 35.8995 4.80463C35.5339 4.73152 35.3355 4.54351 35.2624 4.17793C35.1161 3.42589 34.949 2.70518 34.7715 1.91136ZM18.4563 20.6915C17.4536 19.8872 15.7093 20.1484 14.7797 21.2242C13.7874 22.3627 13.8814 24.1488 14.9886 25.1724C16.148 26.2483 17.9445 26.196 19.0726 25.0575C20.0127 24.107 20.1589 22.4358 19.3442 21.5689C18.7384 22.1747 18.1325 22.7909 17.5267 23.3968C17.4118 23.5117 17.2656 23.637 17.1194 23.6788C16.8374 23.7623 16.5658 23.6788 16.4196 23.3968C16.2524 23.0939 16.3151 22.8223 16.5553 22.582C17.1821 21.9553 17.8192 21.3182 18.4563 20.6915Z" fill="#77D1DE"/>
</svg>
