<svg width="40" height="40" viewBox="0 0 40 40" fill="none" xmlns="http://www.w3.org/2000/svg">
<g clip-path="url(#clip0_1155_6751)">
<path d="M13.4793 33.7717C13.7501 34.0321 13.9897 34.2612 14.2188 34.4904C14.5626 34.8342 14.573 35.1779 14.2397 35.5112C13.2293 36.5217 12.2084 37.5321 11.1876 38.5321C10.8543 38.855 10.5313 38.855 10.198 38.5217C7.29176 35.6467 4.39593 32.7717 1.48968 29.8967C1.14593 29.5529 1.14593 29.23 1.5001 28.8758C2.5001 27.8758 3.51051 26.8758 4.52093 25.8862C4.8751 25.5425 5.17718 25.5529 5.54176 25.8967C5.66676 26.0112 5.79176 26.1258 5.89593 26.2508C6.01051 26.3758 6.10426 26.5217 6.27093 26.7508C6.65635 26.3237 6.94801 25.98 7.26051 25.6571C7.9376 24.9696 8.6251 24.2925 9.3126 23.6258C10.9168 22.0737 12.8334 21.2821 15.0834 21.2821C18.9063 21.2821 22.7397 21.3029 26.5626 21.2717C27.698 21.2612 28.6355 21.5321 29.2709 22.5633C29.3959 22.4383 29.5001 22.355 29.6043 22.2508C31.0105 20.855 32.4063 19.4592 33.823 18.0842C35.3022 16.6467 37.6251 17.0321 38.4793 18.8237C39.0105 19.9383 38.7813 21.1675 37.8543 22.1154C36.7918 23.1883 35.7084 24.2404 34.6355 25.3029C32.9376 26.9904 31.2293 28.6675 29.5418 30.355C28.0834 31.8133 26.3334 32.5425 24.2501 32.5217C21.2084 32.4904 18.1563 32.5217 15.1147 32.5112C14.8438 32.5112 14.6459 32.5842 14.4688 32.7821C14.1668 33.105 13.8334 33.4175 13.4793 33.7717ZM12.6147 32.8862C13.0522 32.4383 13.4584 32.0321 13.8543 31.6154C14.0938 31.355 14.3543 31.2508 14.7084 31.2612C17.9168 31.2717 21.1147 31.2717 24.323 31.2717C25.9793 31.2717 27.3959 30.7092 28.573 29.5425C30.0209 28.105 31.4688 26.6675 32.9272 25.23C34.2709 23.9071 35.6043 22.5737 36.948 21.2508C37.3543 20.855 37.5834 20.3967 37.4897 19.8237C37.3855 19.1987 37.0209 18.7612 36.4063 18.5633C35.7605 18.355 35.198 18.5217 34.7293 18.9904C33.073 20.6258 31.4168 22.2612 29.7709 23.9071C29.6563 24.0217 29.5834 24.1779 29.5418 24.3342C29.2813 25.4071 28.323 26.2612 27.2709 26.2717C24.0626 26.2925 20.8647 26.2821 17.6563 26.2821C17.3126 26.2821 17.0834 26.1154 17.0209 25.7717C16.9584 25.4487 17.0938 25.2092 17.3959 25.0842C17.5209 25.0321 17.6772 25.0425 17.8126 25.0425C20.8438 25.0425 23.8855 25.0425 26.9168 25.0425C27.7709 25.0425 28.3022 24.5633 28.3022 23.8029C28.3022 23.0425 27.7709 22.5529 26.9272 22.5529C22.9897 22.5529 19.0626 22.5425 15.1251 22.5529C13.2084 22.5633 11.5418 23.23 10.1668 24.5842C9.26051 25.48 8.35426 26.3758 7.44801 27.2717C7.36468 27.355 7.29176 27.4383 7.27093 27.4696C9.05218 29.2612 10.8126 31.0529 12.6147 32.8862ZM12.7501 35.0842C10.198 32.4696 7.61468 29.8237 5.0626 27.2092C4.30218 27.98 3.57301 28.7196 2.95843 29.3446C5.5001 31.9487 8.08343 34.5946 10.6459 37.2196C11.4063 36.4487 12.1251 35.7196 12.7501 35.0842Z" fill="#77D1DE"/>
<path d="M23.0209 15.2713C22.2917 16.7088 21.7917 18.1671 21.4897 19.6983C21.4688 19.8233 21.4376 19.9483 21.4167 20.0837C21.323 20.5004 21.0417 20.7192 20.6772 20.6567C20.323 20.5942 20.0938 20.2817 20.1772 19.865C20.2917 19.2712 20.4584 18.6775 20.5834 18.0838C20.6147 17.9171 20.6251 17.7192 20.5626 17.5629C19.9897 16.0733 19.073 14.8129 17.9792 13.6358C17.9272 13.6671 17.8751 13.6775 17.8438 13.7088C16.2292 15.1775 13.6355 14.7921 12.198 13.3025C11.3126 12.3858 10.8542 11.2608 10.5209 10.0525C9.92716 7.85458 9.8855 5.64625 10.3959 3.4275C10.5417 2.78167 11.0626 2.615 11.5522 3.06292C12.7605 4.1775 14.1459 5.01083 15.6459 5.66708C15.9272 5.79208 16.2084 5.93792 16.4897 6.06292C18.8751 7.13583 20.1667 10.0317 18.8126 12.5004C19.6667 13.6567 20.5001 14.7921 21.323 15.9171C21.5313 15.4796 21.7813 14.99 21.9897 14.49C22.0313 14.3858 21.9584 14.1983 21.8855 14.0837C21.2397 13.1775 20.7917 12.1879 20.7917 11.0629C20.7917 8.85458 21.7397 7.12542 23.5834 5.93792C24.323 5.45875 25.1459 5.115 25.948 4.75042C27.698 3.94833 29.3022 2.93792 30.7292 1.63583C31.323 1.09417 31.8022 1.24 31.9792 2.02125C32.7709 5.51083 32.5313 8.93792 31.1667 12.2504C30.4272 14.0317 29.2188 15.3754 27.2917 15.9275C25.7917 16.3442 24.3647 16.2088 23.0209 15.2713ZM23.6563 14.1254C23.7605 14.2088 23.8438 14.2921 23.9376 14.3546C24.0313 14.4171 24.1355 14.4796 24.2397 14.5317C25.8126 15.2087 27.2397 14.8962 28.5209 13.8442C29.3126 13.1879 29.8022 12.3233 30.1563 11.3754C30.6772 9.97958 30.9792 8.53167 31.0834 7.0525C31.1667 5.77125 31.1667 4.49 30.9167 3.18792C30.823 3.26083 30.7501 3.31292 30.6772 3.35458C29.9376 3.865 29.2397 4.4275 28.4584 4.865C27.3126 5.50042 26.1251 6.0525 24.9376 6.615C23.3126 7.39625 22.3647 8.6775 22.073 10.4379C21.9063 11.4067 22.2084 12.2921 22.7709 13.115C22.8959 12.9275 22.9897 12.7712 23.0938 12.615C24.2813 10.7921 25.7397 9.20875 27.4376 7.85458C27.8126 7.5525 28.198 7.56292 28.4376 7.865C28.6876 8.1775 28.6042 8.50042 28.2397 8.84417C27.4584 9.56292 26.6667 10.2817 25.9272 11.0525C25.0522 11.9692 24.3126 13.0004 23.6563 14.1254ZM17.823 11.615C18.0522 11.1358 18.1772 10.6462 18.0938 10.115C17.8751 8.74 17.1147 7.79208 15.8751 7.16708C14.6251 6.54208 13.3959 5.85458 12.1667 5.18792C11.9272 5.0525 11.7084 4.865 11.448 4.6775C11.2501 6.04208 11.2917 7.34417 11.5209 8.64625C11.7188 9.75042 11.9792 10.8337 12.6042 11.7817C13.323 12.8754 14.323 13.4587 15.6667 13.3337C16.1876 13.2817 16.6772 13.1254 17.0938 12.5837C15.9063 11.7296 14.7397 10.8858 13.5626 10.0525C13.1459 9.76083 13.0105 9.45875 13.2084 9.115C13.4063 8.76083 13.7813 8.69833 14.2188 8.96917C14.7292 9.28167 15.2397 9.60458 15.7188 9.95875C16.4272 10.49 17.1042 11.0421 17.823 11.615Z" fill="#77D1DE"/>
</g>
<defs>
<clipPath id="clip0_1155_6751">
<rect width="40" height="40" fill="white"/>
</clipPath>
</defs>
</svg>
