<svg width="60" height="60" viewBox="0 0 60 60" fill="none" xmlns="http://www.w3.org/2000/svg">
<rect x="0.652344" y="20.8695" width="39.1304" height="39.1304" rx="19.5652" fill="#77D1DE"/>
<path d="M43.0436 32.6087C42.6958 32.6087 42.4567 32.4348 42.3263 32.0869C42.1958 31.7391 42.261 31.4348 42.5219 31.1739C42.7828 30.913 43.0871 30.8913 43.435 31.1087C43.7828 31.3261 43.9132 31.5652 43.8263 31.8261C43.7393 32.0869 43.6306 32.2826 43.5002 32.413C43.3697 32.5435 43.2176 32.6087 43.0436 32.6087ZM38.7393 18.2608H31.6958C31.435 18.2608 31.2393 18.3261 31.1089 18.4565C30.9784 18.5869 30.9132 18.7826 30.9132 19.0435V28.6956C30.9132 28.9565 30.9784 29.1521 31.1089 29.2826C31.2393 29.413 31.435 29.4782 31.6958 29.4782H38.7393C39.0002 29.4782 39.1958 29.413 39.3263 29.2826C39.4567 29.1521 39.5219 28.9565 39.5219 28.6956V19.0435C39.5219 18.7826 39.4567 18.5869 39.3263 18.4565C39.1958 18.3261 39.0002 18.2608 38.7393 18.2608ZM32.348 19.8261H34.435V28.0435H32.348V19.8261ZM38.0871 28.0435H36.0002V19.8261H38.0871V28.0435ZM54.3915 25.3043L43.8263 19.0435V13.4348C43.8263 13.1739 43.7393 12.9565 43.5654 12.7826L35.7393 6.65215C35.3915 6.47823 35.0436 6.47823 34.6958 6.65215L26.8697 12.7826C26.6958 12.9565 26.6089 13.1739 26.6089 13.4348V19.0435L16.0436 25.3043C15.7828 25.3913 15.6523 25.6087 15.6523 25.9565V30.1304C15.6523 30.3913 15.7393 30.5869 15.9132 30.7174C16.0871 30.8478 16.2393 30.913 16.3697 30.913C16.5002 30.913 16.6523 30.8695 16.8263 30.7826L17.348 30.5217V42.5217C17.348 42.6956 17.4132 42.8695 17.5436 43.0435C17.6741 43.2174 17.8697 43.3043 18.1306 43.3043H52.3045C52.5654 43.3043 52.761 43.2174 52.8915 43.0435C53.0219 42.8695 53.0871 42.6956 53.0871 42.5217V30.5217L53.6089 30.7826C53.7828 30.8695 53.935 30.913 54.0654 30.913C54.1958 30.913 54.348 30.8478 54.5219 30.7174C54.6958 30.5869 54.7828 30.3913 54.7828 30.1304V25.9565C54.7828 25.6087 54.6523 25.3913 54.3915 25.3043ZM35.2176 8.21737L42.261 13.8261V16.3043L35.7393 11.2174C35.3915 10.9565 35.0436 10.9565 34.6958 11.2174L28.1741 16.3043V13.8261L35.2176 8.21737ZM17.2176 26.3478L26.6089 20.7391V23.2174L17.2176 28.8261V26.3478ZM18.9132 33.2608H22.1741V37.8261H18.9132V33.2608ZM18.9132 39.2608H22.9567C23.2176 39.2608 23.4132 39.1956 23.5436 39.0652C23.6741 38.9348 23.7393 38.7391 23.7393 38.4782V32.4782C23.7393 32.2174 23.6741 32.0217 23.5436 31.8913C23.4132 31.7608 23.2176 31.6956 22.9567 31.6956H18.9132V29.6087L26.6089 25.0435V41.7391H18.9132V39.2608ZM33.3915 41.7391V33.3913H37.0436V41.7391H33.3915ZM51.5219 37.8261H48.0002V33.2608H51.5219V37.8261ZM51.5219 31.6956H47.2176C47.0436 31.6956 46.8915 31.7608 46.761 31.8913C46.6306 32.0217 46.5654 32.2174 46.5654 32.4782V38.4782C46.5654 38.7391 46.6306 38.9348 46.761 39.0652C46.8915 39.1956 47.0436 39.2608 47.2176 39.2608H51.5219V41.7391H43.8263V35.2174C43.8263 35.0435 43.761 34.8695 43.6306 34.6956C43.5002 34.5217 43.3263 34.4348 43.1089 34.4348C42.8915 34.4348 42.6958 34.5217 42.5219 34.6956C42.348 34.8695 42.261 35.0435 42.261 35.2174V41.7391H38.4784V32.7391C38.4784 32.4782 38.4132 32.2826 38.2828 32.1521C38.1523 32.0217 38.0002 31.9565 37.8263 31.9565H32.6089C32.435 31.9565 32.2828 32.0217 32.1523 32.1521C32.0219 32.2826 31.9567 32.4782 31.9567 32.7391V41.7391H28.1741V18.2608L35.2176 12.7826L42.261 18.2608V28.3043C42.261 28.5652 42.348 28.7608 42.5219 28.8913C42.6958 29.0217 42.8915 29.0869 43.1089 29.0869C43.3263 29.0869 43.5002 29.0217 43.6306 28.8913C43.761 28.7608 43.8263 28.5652 43.8263 28.3043V25.0435L51.5219 29.6087V31.6956ZM53.2176 28.8261L43.8263 23.2174V20.7391L53.2176 26.3478V28.8261Z" fill="#222222"/>
</svg>
