<svg width="19" height="19" viewBox="0 0 19 19" fill="none" xmlns="http://www.w3.org/2000/svg">
<g clip-path="url(#clip0_21_1500)">
<path d="M12.965 13.04C12.805 13.04 12.695 12.96 12.635 12.8C12.575 12.64 12.605 12.5 12.725 12.38C12.845 12.26 12.985 12.25 13.145 12.35C13.305 12.45 13.365 12.56 13.325 12.68C13.285 12.8 13.235 12.89 13.175 12.95C13.115 13.01 13.045 13.04 12.965 13.04ZM10.985 6.44002H7.74499C7.62499 6.44002 7.53499 6.47002 7.47499 6.53002C7.41499 6.59002 7.38499 6.68002 7.38499 6.80002V11.24C7.38499 11.36 7.41499 11.45 7.47499 11.51C7.53499 11.57 7.62499 11.6 7.74499 11.6H10.985C11.105 11.6 11.195 11.57 11.255 11.51C11.315 11.45 11.345 11.36 11.345 11.24V6.80002C11.345 6.68002 11.315 6.59002 11.255 6.53002C11.195 6.47002 11.105 6.44002 10.985 6.44002ZM8.04499 7.16002H9.00499V10.94H8.04499V7.16002ZM10.685 10.94H9.72499V7.16002H10.685V10.94ZM18.185 9.68002L13.325 6.80002V4.22002C13.325 4.10002 13.285 4.00002 13.205 3.92002L9.60499 1.10002C9.44499 1.02002 9.28499 1.02002 9.12499 1.10002L5.52499 3.92002C5.44499 4.00002 5.40499 4.10002 5.40499 4.22002V6.80002L0.54499 9.68002C0.42499 9.72002 0.36499 9.82002 0.36499 9.98002V11.9C0.36499 12.02 0.40499 12.11 0.48499 12.17C0.56499 12.23 0.63499 12.26 0.69499 12.26C0.75499 12.26 0.82499 12.24 0.90499 12.2L1.14499 12.08V17.6C1.14499 17.68 1.17499 17.76 1.23499 17.84C1.29499 17.92 1.38499 17.96 1.50499 17.96H17.225C17.345 17.96 17.435 17.92 17.495 17.84C17.555 17.76 17.585 17.68 17.585 17.6V12.08L17.825 12.2C17.905 12.24 17.975 12.26 18.035 12.26C18.095 12.26 18.165 12.23 18.245 12.17C18.325 12.11 18.365 12.02 18.365 11.9V9.98002C18.365 9.82002 18.305 9.72002 18.185 9.68002ZM9.36499 1.82002L12.605 4.40002V5.54002L9.60499 3.20002C9.44499 3.08002 9.28499 3.08002 9.12499 3.20002L6.12499 5.54002V4.40002L9.36499 1.82002ZM1.08499 10.16L5.40499 7.58002V8.72002L1.08499 11.3V10.16ZM1.86499 13.34H3.36499V15.44H1.86499V13.34ZM1.86499 16.1H3.72499C3.84499 16.1 3.93499 16.07 3.99499 16.01C4.05499 15.95 4.08499 15.86 4.08499 15.74V12.98C4.08499 12.86 4.05499 12.77 3.99499 12.71C3.93499 12.65 3.84499 12.62 3.72499 12.62H1.86499V11.66L5.40499 9.56002V17.24H1.86499V16.1ZM8.52499 17.24V13.4H10.205V17.24H8.52499ZM16.865 15.44H15.245V13.34H16.865V15.44ZM16.865 12.62H14.885C14.805 12.62 14.735 12.65 14.675 12.71C14.615 12.77 14.585 12.86 14.585 12.98V15.74C14.585 15.86 14.615 15.95 14.675 16.01C14.735 16.07 14.805 16.1 14.885 16.1H16.865V17.24H13.325V14.24C13.325 14.16 13.295 14.08 13.235 14C13.175 13.92 13.095 13.88 12.995 13.88C12.895 13.88 12.805 13.92 12.725 14C12.645 14.08 12.605 14.16 12.605 14.24V17.24H10.865V13.1C10.865 12.98 10.835 12.89 10.775 12.83C10.715 12.77 10.645 12.74 10.565 12.74H8.16499C8.08499 12.74 8.01499 12.77 7.95499 12.83C7.89499 12.89 7.86499 12.98 7.86499 13.1V17.24H6.12499V6.44002L9.36499 3.92002L12.605 6.44002V11.06C12.605 11.18 12.645 11.27 12.725 11.33C12.805 11.39 12.895 11.42 12.995 11.42C13.095 11.42 13.175 11.39 13.235 11.33C13.295 11.27 13.325 11.18 13.325 11.06V9.56002L16.865 11.66V12.62ZM17.645 11.3L13.325 8.72002V7.58002L17.645 10.16V11.3Z" fill="#0056A6"/>
</g>
<defs>
<clipPath id="clip0_21_1500">
<rect width="18" height="18" fill="white" transform="matrix(1 0 0 -1 0.36499 18.5)"/>
</clipPath>
</defs>
</svg>
