<svg width="32" height="31" viewBox="0 0 32 31" fill="none" xmlns="http://www.w3.org/2000/svg">
<path d="M28.3319 8.81684C27.7003 9.65934 26.9369 10.3943 26.071 10.9932C26.071 11.2133 26.071 11.4334 26.071 11.6657C26.0779 15.6625 24.4813 19.4949 21.6394 22.3037C18.7973 25.1124 14.9475 26.6628 10.9529 26.6071C8.6436 26.6148 6.36384 26.0875 4.29223 25.0666C4.18053 25.0177 4.10848 24.9072 4.10889 24.7853V24.6508C4.10889 24.4753 4.25116 24.3329 4.42667 24.3329C6.69669 24.258 8.88573 23.4711 10.6841 22.0831C8.62938 22.0417 6.78069 20.8245 5.92991 18.953C5.88694 18.8508 5.90032 18.7335 5.96521 18.6436C6.03011 18.5537 6.13716 18.5042 6.24767 18.5129C6.87213 18.5756 7.50284 18.5176 8.10533 18.3416C5.83713 17.8709 4.13282 15.9878 3.88891 13.6832C3.88025 13.5726 3.92979 13.4655 4.01965 13.4006C4.10951 13.3357 4.22671 13.3223 4.32889 13.3653C4.93757 13.6339 5.59465 13.7753 6.25989 13.781C4.2724 12.4765 3.41394 9.99543 4.17001 7.74086C4.24805 7.52178 4.43555 7.35994 4.66361 7.3148C4.89166 7.26968 5.12663 7.34791 5.28216 7.52077C7.96415 10.3751 11.6493 12.076 15.5605 12.2648C15.4603 11.8651 15.411 11.4543 15.4138 11.0422C15.4504 8.88118 16.7875 6.95615 18.7992 6.16828C20.8108 5.38042 23.0988 5.88564 24.5921 7.44742C25.6101 7.2535 26.5942 6.9116 27.5131 6.43257C27.5803 6.39055 27.6658 6.39055 27.7331 6.43257C27.7751 6.49991 27.7751 6.58532 27.7331 6.65266C27.2879 7.6719 26.536 8.52677 25.5821 9.09806C26.4175 9.00118 27.2381 8.80413 28.0264 8.51116C28.0928 8.46598 28.18 8.46598 28.2464 8.51116C28.302 8.5366 28.3435 8.58524 28.36 8.64414C28.3766 8.70304 28.3663 8.76621 28.3319 8.81684Z" fill="white"/>
</svg>
