<svg width="60" height="60" viewBox="0 0 60 60" fill="none" xmlns="http://www.w3.org/2000/svg">
<rect x="0.652344" y="20.8695" width="39.1304" height="39.1304" rx="19.5652" fill="#77D1DE"/>
<g clip-path="url(#clip0_185_3546)">
<path d="M55.4347 33.5218L54.2609 32.4783V27.9131C54.2609 27.1305 53.9784 26.4566 53.4133 25.8914C52.8481 25.3262 52.1961 25.0436 51.4571 25.0436C50.7181 25.0436 50.0877 25.261 49.5661 25.6957C49.0444 26.1305 48.6966 26.6957 48.5228 27.3914L47.4795 26.4783C46.9578 25.9566 46.3057 25.6957 45.5233 25.6957C44.7408 25.6957 44.0453 25.9566 43.4367 26.4783L35.4815 33.5218C35.3076 33.6957 35.2206 33.9131 35.2206 34.174C35.2206 34.4349 35.2858 34.6523 35.4163 34.8262C35.5467 35.0001 35.7423 35.087 36.0031 35.087C36.2639 35.087 36.4813 35.0436 36.6552 34.9566V41.3479C36.6552 42.1305 36.916 42.7827 37.4377 43.3044C37.9593 43.8262 38.5679 44.087 39.2634 44.087H51.6527C52.4352 44.087 53.0655 43.8262 53.5437 43.3044C54.0219 42.7827 54.2609 42.1305 54.2609 41.3479V34.9566C54.5218 35.0436 54.7609 35.087 54.9782 35.087C55.1956 35.087 55.3912 34.9783 55.5651 34.7609C55.739 34.5436 55.8042 34.3262 55.7607 34.1088C55.7172 33.8914 55.6085 33.6957 55.4347 33.5218ZM47.0882 42.2609H44.0887V40.0436C44.0887 39.6957 44.2191 39.3914 44.48 39.1305C44.7408 38.8696 45.0451 38.7392 45.3929 38.7392H45.7841C46.1319 38.7392 46.4362 38.8696 46.697 39.1305C46.9578 39.3914 47.0882 39.6957 47.0882 40.0436V42.2609ZM52.4352 41.3479C52.4352 41.6088 52.3699 41.8262 52.2395 42.0001C52.1091 42.174 51.9135 42.2609 51.6527 42.2609H48.914V40.0436C48.914 39.174 48.6097 38.4349 48.0011 37.8262C47.3925 37.2175 46.6535 36.9131 45.7841 36.9131H45.3929C44.5234 36.9131 43.7844 37.2175 43.1758 37.8262C42.5672 38.4349 42.2629 39.174 42.2629 40.0436V42.2609H39.2634C39.0896 42.2609 38.9157 42.174 38.7418 42.0001C38.5679 41.8262 38.481 41.6088 38.481 41.3479V33.2609L44.6104 27.9131C44.8712 27.6523 45.1538 27.5218 45.4581 27.5218C45.7624 27.5218 46.0449 27.6523 46.3057 27.9131L52.4352 33.2609V41.3479ZM52.4352 27.9131V30.9131L50.3485 28.9566V27.9131C50.3485 27.6523 50.4355 27.4131 50.6094 27.1957C50.7833 26.9783 51.0224 26.8479 51.3266 26.8044C51.6309 26.761 51.8918 26.8479 52.1091 27.0653C52.3265 27.2827 52.4352 27.5653 52.4352 27.9131ZM45.5233 29.7392C44.7408 29.7392 44.0887 30.0218 43.5671 30.587C43.0454 31.1523 42.7846 31.8044 42.7846 32.5436C42.7846 33.2827 43.0454 33.9131 43.5671 34.4349C44.0887 34.9566 44.7191 35.2175 45.4581 35.2175C46.1971 35.2175 46.8491 34.9566 47.4143 34.4349C47.9794 33.9131 48.2619 33.2827 48.2619 32.5436C48.2619 31.8044 47.9794 31.1523 47.4143 30.587C46.8491 30.0218 46.2188 29.7392 45.5233 29.7392ZM46.3057 32.4783C46.3057 32.7392 46.2405 32.9566 46.1101 33.1305C45.9797 33.3044 45.7841 33.3914 45.5233 33.3914C45.2624 33.3914 45.0451 33.3044 44.8712 33.1305C44.6973 32.9566 44.6104 32.7392 44.6104 32.4783C44.6104 32.2175 44.6973 32.0001 44.8712 31.8262C45.0451 31.6523 45.2624 31.5653 45.5233 31.5653C45.7841 31.5653 45.9797 31.6523 46.1101 31.8262C46.2405 32.0001 46.3057 32.2175 46.3057 32.4783ZM33.6557 42.1305H22.0489C21.2664 42.1305 20.5709 41.8479 19.9623 41.2827C19.3537 40.7175 19.0494 40.0436 19.0494 39.2609V10.3044C19.0494 9.52182 19.3537 8.82617 19.9623 8.21747C20.5709 7.60878 21.2664 7.30443 22.0489 7.30443H48.5228C49.3922 7.30443 50.1095 7.60878 50.6746 8.21747C51.2397 8.82617 51.5223 9.52182 51.5223 10.3044V21.9131C51.5223 22.174 51.6092 22.3914 51.7831 22.5653C51.957 22.7392 52.1743 22.8262 52.4352 22.8262C52.696 22.8262 52.9133 22.7392 53.0872 22.5653C53.2611 22.3914 53.348 22.174 53.348 21.9131V10.3044C53.348 9.00008 52.8699 7.86964 51.9135 6.91312C50.9571 5.9566 49.8269 5.47834 48.5228 5.47834H22.0489C20.7448 5.47834 19.6145 5.9566 18.6582 6.91312C17.7018 7.86964 17.2236 9.00008 17.2236 10.3044V39.2609C17.2236 40.5653 17.7018 41.6957 18.6582 42.6523C19.6145 43.6088 20.7448 44.087 22.0489 44.087H33.6557C33.9165 44.087 34.1556 43.9783 34.3729 43.7609C34.5903 43.5436 34.699 43.3262 34.699 43.1088C34.699 42.8914 34.5903 42.674 34.3729 42.4566C34.1556 42.2392 33.9165 42.1305 33.6557 42.1305ZM45.0016 14.7392C45.0016 14.4783 44.9147 14.261 44.7408 14.087C44.5669 13.9131 44.3495 13.8262 44.0887 13.8262H25.9613C25.7005 13.8262 25.4831 13.9131 25.3092 14.087C25.1354 14.261 25.0484 14.4783 25.0484 14.7392C25.0484 15.0001 25.1354 15.2175 25.3092 15.3914C25.4831 15.5653 25.7005 15.6523 25.9613 15.6523H44.0887C44.3495 15.6523 44.5669 15.5653 44.7408 15.3914C44.9147 15.2175 45.0016 15.0001 45.0016 14.7392ZM40.5676 21.7827C40.5676 21.6088 40.4806 21.4131 40.3067 21.1957C40.1329 20.9783 39.9155 20.8696 39.6547 20.8696H25.9613C25.7005 20.8696 25.4831 20.9783 25.3092 21.1957C25.1354 21.4131 25.0484 21.6305 25.0484 21.8479C25.0484 22.0653 25.1354 22.2827 25.3092 22.5001C25.4831 22.7175 25.7005 22.8262 25.9613 22.8262H39.6547C39.9155 22.8262 40.1329 22.7175 40.3067 22.5001C40.4806 22.2827 40.5676 22.0436 40.5676 21.7827ZM25.9613 28.0436C25.7005 28.0436 25.4831 28.1305 25.3092 28.3044C25.1354 28.4783 25.0484 28.6957 25.0484 28.9566C25.0484 29.2175 25.1354 29.4349 25.3092 29.6088C25.4831 29.7827 25.7005 29.8696 25.9613 29.8696H31.5691C31.743 29.8696 31.9386 29.7827 32.1559 29.6088C32.3733 29.4349 32.482 29.2175 32.482 28.9566C32.482 28.6957 32.3733 28.4783 32.1559 28.3044C31.9386 28.1305 31.743 28.0436 31.5691 28.0436H25.9613Z" fill="#222222"/>
</g>
<defs>
<clipPath id="clip0_185_3546">
<rect width="39.137" height="39.1304" fill="white" transform="matrix(1 0 0 -1 16.9561 44.3478)"/>
</clipPath>
</defs>
</svg>
