<svg width="32" height="31" viewBox="0 0 32 31" fill="none" xmlns="http://www.w3.org/2000/svg">
<path fill-rule="evenodd" clip-rule="evenodd" d="M23.7346 6.21726L25.5217 6.40086C27.6373 6.63998 29.2259 8.44575 29.1936 10.5746V20.611C29.2259 22.7398 27.6373 24.5455 25.5217 24.7848L23.808 24.9684C18.4612 25.519 13.0718 25.519 7.72485 24.9684L5.93784 24.7848C3.82218 24.5455 2.23349 22.7398 2.26587 20.611V10.5746C2.23349 8.44575 3.82218 6.63998 5.93784 6.40086L7.65141 6.21726C12.9983 5.66651 18.3878 5.66651 23.7346 6.21726ZM14.6404 19.5339L19.4017 16.3517H19.4751C19.7317 16.1845 19.8865 15.899 19.8865 15.5928C19.8865 15.2866 19.7317 15.0011 19.4751 14.8339L14.7138 11.6516C14.4327 11.4616 14.0697 11.4422 13.7699 11.601C13.4701 11.7599 13.2824 12.0712 13.2818 12.4105V18.7751C13.2976 19.0909 13.4748 19.3764 13.751 19.5306C14.0271 19.6848 14.3631 19.6862 14.6404 19.5339Z" fill="white"/>
</svg>
